<svg width="24" height="24" viewBox="0 0 24 24" fill="none" xmlns="http://www.w3.org/2000/svg">
<path d="M12.4964 17.4965L12.4964 7.70349L17.1429 12.35C17.3361 12.5472 17.6526 12.5504 17.8498 12.3572C18.047 12.1639 18.0503 11.8474 17.857 11.6501C17.8547 11.6478 17.8523 11.6454 17.8498 11.643L12.3498 6.14301C12.1548 5.94769 11.8385 5.94739 11.6432 6.14246C11.6432 6.14215 11.643 6.14258 11.6432 6.14246L6.14287 11.643C5.94964 11.8402 5.95281 12.1567 6.15001 12.35C6.34441 12.5405 6.65551 12.5405 6.8499 12.35L11.4964 7.70349L11.4964 17.4965C11.4964 17.7726 11.7203 17.9965 11.9964 17.9965C12.2725 17.9965 12.4964 17.7726 12.4964 17.4965Z" fill="#272726"/>
</svg>
