<svg width="24" height="24" viewBox="0 0 24 24" fill="none" xmlns="http://www.w3.org/2000/svg">
<path d="M17.5 11.5H7.70697L12.3535 6.85353C12.5507 6.66029 12.5539 6.34376 12.3607 6.14656C12.1674 5.94935 11.8508 5.94612 11.6536 6.13941C11.6512 6.14173 11.6489 6.14411 11.6465 6.14656L6.14648 11.6466C5.95117 11.8416 5.95087 12.1579 6.14594 12.3532C6.14563 12.3532 6.14606 12.3534 6.14594 12.3532L11.6465 17.8535C11.8437 18.0468 12.1602 18.0436 12.3535 17.8464C12.544 17.652 12.544 17.3409 12.3535 17.1465L7.70697 12.5H17.5C17.7761 12.5 18 12.2761 18 12C18 11.7239 17.7761 11.5 17.5 11.5Z" fill="#272726"/>
</svg>
