<svg width="24" height="24" viewBox="0 0 24 24" fill="none" xmlns="http://www.w3.org/2000/svg">
<path d="M11.5035 6.4964L11.5035 16.2894L6.857 11.6429C6.66377 11.4457 6.34724 11.4425 6.15003 11.6357C5.95283 11.829 5.9496 12.1456 6.14289 12.3428C6.14521 12.3452 6.14759 12.3475 6.15003 12.3499L11.65 17.8499C11.8451 18.0452 12.1614 18.0455 12.3567 17.8505C12.3567 17.8508 12.3569 17.8503 12.3567 17.8505L17.857 12.3499C18.0502 12.1527 18.0471 11.8362 17.8499 11.6429C17.6555 11.4524 17.3444 11.4524 17.15 11.6429L12.5035 16.2894L12.5035 6.4964C12.5035 6.22028 12.2796 5.9964 12.0035 5.9964C11.7274 5.9964 11.5035 6.22028 11.5035 6.4964Z" fill="#272726"/>
</svg>
