<svg width="24" height="24" viewBox="0 0 24 24" fill="none" xmlns="http://www.w3.org/2000/svg">
<path d="M6.49982 12.4929L16.2928 12.4929L11.6463 17.1394C11.4491 17.3326 11.4459 17.6492 11.6392 17.8464C11.8325 18.0436 12.149 18.0468 12.3462 17.8535C12.3486 17.8512 12.351 17.8488 12.3533 17.8464L17.8533 12.3464C18.0486 12.1513 18.049 11.835 17.8539 11.6397C17.8542 11.6397 17.8538 11.6395 17.8539 11.6397L12.3533 6.13939C12.1561 5.94616 11.8396 5.94933 11.6464 6.14653C11.4558 6.34093 11.4558 6.65203 11.6464 6.84642L16.2928 11.4929L6.49982 11.4929C6.22369 11.4929 5.99982 11.7168 5.99982 11.9929C5.99982 12.269 6.22369 12.4929 6.49982 12.4929Z" fill="#272726"/>
</svg>
