<svg width="24" height="24" viewBox="0 0 24 24" fill="none" xmlns="http://www.w3.org/2000/svg">
<path d="M19.9795 7.95215L13.9795 2.68555C12.8456 1.69531 11.1544 1.69531 10.0205 2.68555L4.02051 7.95215C3.3717 8.52191 2.99982 9.34357 3 10.207V19C3.00183 20.6561 4.34387 21.9982 6 22H8.5H15.5C15.4998 22 15.5002 22 15.5 22H18C19.6561 21.9982 20.9982 20.6561 21 19V10.207C21.0002 9.34357 20.6283 8.52191 19.9795 7.95215ZM15 21H9V15C9.0014 13.896 9.896 13.0014 11 13H13C14.104 13.0014 14.9986 13.896 15 15V21ZM20 19C19.9986 20.104 19.104 20.9986 18 21H16V15C15.9982 13.3439 14.6561 12.0018 13 12H11C9.34387 12.0018 8.00183 13.3439 8 15V21H6C4.896 20.9986 4.0014 20.104 4 19V10.207C3.99976 9.63135 4.2478 9.08362 4.68066 8.7041L10.6807 3.4375C11.0456 3.11749 11.5146 2.94147 12 2.94238C12.4854 2.94147 12.9544 3.11749 13.3193 3.4375L19.3193 8.70404C19.7522 9.08356 20.0002 9.63135 20 10.207V19Z" fill="#272726"/>
</svg>
