<svg width="24" height="24" viewBox="0 0 24 24" fill="none" xmlns="http://www.w3.org/2000/svg">
<path d="M12 5.99998C9.51469 5.99998 7.49998 8.01469 7.49998 10.5C7.49998 12.9853 9.51469 15 12 15C14.4841 14.9973 16.4973 12.9841 16.5 10.5C16.5 8.01469 14.4853 5.99998 12 5.99998ZM12 14C10.067 14 8.49998 12.433 8.49998 10.5C8.49998 8.567 10.067 6.99998 12 6.99998C13.932 7.0023 15.4977 8.56798 15.5 10.5C15.5 12.433 13.933 14 12 14ZM18.0107 4.48924C14.6911 1.1696 9.30888 1.1696 5.98924 4.48924C2.6696 7.80888 2.6696 13.1911 5.98924 16.5107L11.6465 22.167C11.7401 22.2609 11.8674 22.3136 12 22.3135C12.1326 22.3136 12.2599 22.2609 12.3535 22.167L18.0107 16.5107C21.3304 13.1911 21.3304 7.80888 18.0107 4.48924ZM17.3037 15.8037L12 21.1064L6.69627 15.8037C3.76714 12.8746 3.76714 8.12541 6.69627 5.19627C9.62541 2.26714 14.3746 2.26714 17.3037 5.19627C20.2328 8.12541 20.2328 12.8746 17.3037 15.8037Z" fill="#272726"/>
</svg>
