<svg width="24" height="24" viewBox="0 0 24 24" fill="none" xmlns="http://www.w3.org/2000/svg">
<path d="M21 4.5C21 4.22386 20.7761 4 20.5 4H4.5C4.22386 4 4 4.22386 4 4.5V7.5C4 7.77614 4.22386 8 4.5 8H20.5C20.7761 8 21 7.77614 21 7.5V4.5ZM22 7.5C22 8.32843 21.3284 9 20.5 9H4.5C3.67157 9 3 8.32843 3 7.5V4.5C3 3.67157 3.67157 3 4.5 3H20.5C21.3284 3 22 3.67157 22 4.5V7.5Z" fill="#272726"/>
<path d="M20 9H5V20.5C5 20.7761 5.22386 21 5.5 21H19.5C19.7761 21 20 20.7761 20 20.5V9ZM21 20.5C21 21.3284 20.3284 22 19.5 22H5.5C4.67157 22 4 21.3284 4 20.5V8.5C4 8.22386 4.22386 8 4.5 8H20.5C20.7761 8 21 8.22386 21 8.5V20.5Z" fill="#272726"/>
<path d="M15 11.5C15.2761 11.5 15.5 11.7239 15.5 12C15.5 12.2761 15.2761 12.5 15 12.5H10C9.72386 12.5 9.5 12.2761 9.5 12C9.5 11.7239 9.72386 11.5 10 11.5H15Z" fill="#272726"/>
</svg>
