<svg width="24" height="24" viewBox="0 0 24 24" fill="none" xmlns="http://www.w3.org/2000/svg">
<path d="M12 2C6.47717 2 2 6.47717 2 12C2 17.5228 6.47717 22 12 22C17.5201 21.9935 21.9935 17.5201 22 12C22 6.47717 17.5228 2 12 2ZM12 21C7.02942 21 3 16.9706 3 12C3 9.69476 3.87408 7.59869 5.29938 6.00641L17.9936 18.7006C16.4013 20.1259 14.3052 21 12 21ZM18.7006 17.9936L6.00641 5.29944C7.59875 3.87415 9.69476 3 12 3C16.9683 3.00543 20.9946 7.03168 21 12C21 14.3052 20.1259 16.4013 18.7006 17.9936Z" fill="#272726"/>
</svg>
