<svg width="24" height="24" viewBox="0 0 24 24" fill="none" xmlns="http://www.w3.org/2000/svg">
<path d="M17.3535 16.6465L12.7069 12L17.3535 7.35343C17.5406 7.15971 17.5406 6.85252 17.3535 6.65873C17.1616 6.46012 16.8451 6.45463 16.6465 6.64646L11.9999 11.293L7.35345 6.64652C7.15973 6.45939 6.85254 6.45939 6.65875 6.64652C6.46014 6.83836 6.45465 7.15488 6.64648 7.35349L11.293 12L6.64648 16.6465C6.55273 16.7402 6.50006 16.8673 6.50006 16.9999C6.5 17.276 6.72388 17.4999 7 17.5C7.13263 17.5001 7.25983 17.4474 7.35345 17.3534L11.9999 12.7069L16.6465 17.3535C16.7401 17.4474 16.8674 17.5002 17 17.5C17.1325 17.4999 17.2596 17.4473 17.3533 17.3536C17.5486 17.1584 17.5487 16.8418 17.3535 16.6465Z" fill="#272726"/>
</svg>
