<svg width="24" height="24" viewBox="0 0 24 24" fill="none" xmlns="http://www.w3.org/2000/svg">
<path d="M20.8535 8.14648L14.8535 2.14648C14.7598 2.05267 14.6326 2 14.5 2H10C8.34387 2.00183 7.00183 3.34387 7 5V6H6C4.34387 6.00183 3.00183 7.34387 3 9V19C3.00183 20.6561 4.34387 21.9982 6 22H14C15.6561 21.9982 16.9982 20.6561 17 19V18H18C19.6561 17.9982 20.9982 16.6561 21 15V8.5C21 8.36737 20.9473 8.24023 20.8535 8.14648ZM15 3.70697L19.293 8H16.333C15.597 7.99939 15.0006 7.40295 15 6.66699V3.70697ZM16 19C15.9986 20.104 15.104 20.9986 14 21H6C4.896 20.9986 4.0014 20.104 4 19V9C4.0014 7.896 4.896 7.0014 6 7H7V15C7.00183 16.6561 8.34387 17.9982 10 18H16V19ZM20 15C19.9986 16.104 19.104 16.9986 18 17H10C8.896 16.9986 8.0014 16.104 8 15V5C8.0014 3.896 8.896 3.0014 10 3H14V6.66699C14.0016 7.95477 15.0452 8.99835 16.333 9H20V15Z" fill="#272726"/>
</svg>
