<svg width="24" height="24" viewBox="0 0 24 24" fill="none" xmlns="http://www.w3.org/2000/svg">
<path d="M18 9H16.5C16.2239 9 16 9.22388 16 9.5C16 9.77612 16.2239 10 16.5 10H18C19.104 10.0014 19.9986 10.896 20 12V19C19.9986 20.104 19.104 20.9986 18 21H6C4.896 20.9986 4.0014 20.104 4 19V12C4.0014 10.896 4.896 10.0014 6 10H8.5C8.77612 10 9 9.77612 9 9.5C9 9.22388 8.77612 9 8.5 9H6C4.34387 9.00183 3.00183 10.3439 3 12V19C3.00183 20.6561 4.34387 21.9982 6 22H18C19.6561 21.9982 20.9982 20.6561 21 19V12C20.9982 10.3439 19.6561 9.00183 18 9Z" fill="#272726"/>
<path d="M8.16249 13.6553C7.96529 13.8486 7.96211 14.1651 8.15535 14.3623L11.6466 17.8535C11.7402 17.9474 11.8674 18.0002 12.0001 18C12.1327 18.0001 12.2599 17.9474 12.3536 17.8535L15.8448 14.3623C16.0353 14.1679 16.0353 13.8569 15.8448 13.6625C15.6515 13.4653 15.335 13.462 15.1378 13.6553L12.5001 16.293V2.5C12.5001 2.22388 12.2762 2 12.0001 2C11.724 2 11.5001 2.22388 11.5001 2.5V16.293L8.86232 13.6553C8.66798 13.4648 8.35689 13.4648 8.16249 13.6553Z" fill="#272726"/>
</svg>
