<svg width="24" height="24" viewBox="0 0 24 24" fill="none" xmlns="http://www.w3.org/2000/svg">
<path d="M10.6 4C10.8209 4 11 4.17909 11 4.4C11 4.62091 10.8209 4.8 10.6 4.8H7.2C5.87452 4.8 4.8 5.87452 4.8 7.2V16.8C4.8 18.1255 5.87452 19.2 7.2 19.2H16.8C18.1255 19.2 19.2 18.1255 19.2 16.8V13.4C19.2 13.1791 19.3791 13 19.6 13C19.8209 13 20 13.1791 20 13.4V16.8C20 18.512 18.6556 19.9103 16.9648 19.9961L16.8 20H7.2L7.03516 19.9961C5.39904 19.9131 4.08692 18.601 4.00391 16.9648L4 16.8V7.2C4 5.43269 5.43269 4 7.2 4H10.6Z" fill="#272726"/>
<path d="M19.2 8.8V4.8H15.2C14.9791 4.8 14.8 4.62091 14.8 4.4C14.8 4.17909 14.9791 4 15.2 4H19.2C19.6418 4 20 4.35817 20 4.8V8.8C20 9.02091 19.8209 9.2 19.6 9.2C19.3791 9.2 19.2 9.02091 19.2 8.8Z" fill="#272726"/>
<path d="M18.9274 4.50782C19.0889 4.35711 19.3415 4.36586 19.4922 4.52735C19.6429 4.68885 19.6342 4.94147 19.4727 5.09219L13.4727 10.6922C13.3112 10.8429 13.0586 10.8342 12.9078 10.6727C12.7571 10.5112 12.7659 10.2585 12.9274 10.1078L18.9274 4.50782Z" fill="#272726"/>
</svg>
