<svg width="24" height="24" viewBox="0 0 24 24" fill="none" xmlns="http://www.w3.org/2000/svg">
<path d="M12 8C9.79083 8 8 9.79083 8 12C8 14.2092 9.79083 16 12 16C14.2083 15.9978 15.9978 14.2083 16 12C16 9.79083 14.2092 8 12 8ZM12 15C10.3431 15 9 13.6569 9 12C9 10.3431 10.3431 9 12 9C13.6561 9.00183 14.9982 10.3439 15 12C15 13.6569 13.6569 15 12 15ZM21.96 11.8047C19.9189 6.99023 16.1025 4 12 4C7.89746 4 4.08105 6.99023 2.03998 11.8047C1.98627 11.9294 1.98627 12.0706 2.03998 12.1953C4.08105 17.0098 7.89746 20 12 20C16.1025 20 19.919 17.0098 21.96 12.1953C22.0137 12.0706 22.0137 11.9294 21.96 11.8047ZM12 19C8.36035 19 4.94434 16.3232 3.04492 12C4.94434 7.67676 8.36035 5 12 5C15.6396 5 19.0557 7.67676 20.9551 12C19.0557 16.3232 15.6396 19 12 19Z" fill="#272726"/>
</svg>
