<svg width="24" height="24" viewBox="0 0 24 24" fill="none" xmlns="http://www.w3.org/2000/svg">
<path d="M9.44238 5.44923C10.2617 5.14973 11.1276 4.99763 12 5.00002C15.6387 5.00002 19.0557 7.67677 20.9561 12C20.4915 13.0734 19.8965 14.0856 19.1846 15.0137C19.1162 15.1016 19.0792 15.2099 19.0794 15.3212C19.0798 15.5973 19.304 15.8208 19.5801 15.8203C19.7347 15.8206 19.8808 15.7492 19.9756 15.627C20.7828 14.5733 21.4501 13.4195 21.961 12.1944C22.0134 12.0697 22.0131 11.9291 21.96 11.8047C19.918 6.99025 16.1016 4.00002 12 4.00002C11.0096 3.99733 10.0266 4.17061 9.09668 4.51173C8.83777 4.60719 8.70532 4.89442 8.80078 5.15334C8.89624 5.41225 9.18347 5.54469 9.44238 5.44923ZM13.0283 8.13673C12.7614 8.06606 12.4877 8.22523 12.417 8.4922C12.3464 8.75917 12.5055 9.03285 12.7725 9.10353C13.8121 9.38277 14.6225 10.1973 14.8965 11.2383C14.9548 11.4574 15.1531 11.6101 15.3799 11.6104C15.4231 11.6105 15.4661 11.605 15.5079 11.5938C15.7747 11.5228 15.9337 11.2493 15.8633 10.9824C15.497 9.59413 14.4152 8.50838 13.0283 8.13673ZM2.85346 2.14656C2.65973 1.95937 2.35254 1.95937 2.15875 2.14656C1.96015 2.33839 1.95465 2.65492 2.14649 2.85353L5.79224 6.49928C4.15839 7.96327 2.86237 9.76698 2.039 11.8057C1.98657 11.9303 1.98694 12.0709 2.03998 12.1953C4.08197 17.0098 7.89844 20 12 20C13.9681 19.9732 15.8692 19.3194 17.4434 18.1505L21.1465 21.8535C21.2401 21.9475 21.3674 22.0002 21.5 22C21.6325 22 21.7596 21.9473 21.8533 21.8537C22.0486 21.6584 22.0487 21.3418 21.8535 21.1466L2.85346 2.14656ZM9.56214 10.2692L13.7308 14.4379C13.2294 14.7999 12.6269 15.0034 12 15C10.3439 14.9982 9.00183 13.6561 9 12C8.99664 11.3731 9.20014 10.7706 9.56214 10.2692ZM12 19C8.36133 19 4.94434 16.3233 3.04492 12C3.81604 10.1572 5.00598 8.52766 6.4975 7.20454L8.85559 9.56264C8.31024 10.2565 7.99597 11.1077 8 12C8.0022 14.2083 9.79175 15.9978 12 16C12.8923 16.0048 13.7438 15.6904 14.4374 15.1445L16.7302 17.4372C15.3513 18.4229 13.7037 18.9732 12 19Z" fill="#272726"/>
</svg>
