<svg width="24" height="24" viewBox="0 0 24 24" fill="none" xmlns="http://www.w3.org/2000/svg">
<path d="M19.5 2H4.5C3.11981 2.00128 2.00128 3.11981 2 4.5V6.62793C2.00098 7.32294 2.29028 7.98633 2.79883 8.46002L9 14.2178V21.5C9 21.7761 9.22388 22 9.5 22C9.5636 22.0001 9.62665 21.9879 9.68555 21.9639L14.6855 19.9639C14.8756 19.8884 15.0003 19.7045 15 19.5V14.2178L21.2021 8.4599C21.7101 7.9859 21.9989 7.32269 22 6.62793V4.5C21.9987 3.11981 20.8802 2.00128 19.5 2ZM14.1602 13.6338C14.058 13.7281 13.9999 13.8609 14 14V19.1611L10 20.7617V14C10.0001 13.8609 9.94202 13.7281 9.83984 13.6338L3.77289 8H20.228L14.1602 13.6338ZM21 6.62793C20.9998 6.75519 20.9784 6.87897 20.9471 7H3.05292C3.02167 6.87897 3.00024 6.75519 3 6.62793V4.5C3.00092 3.67194 3.67194 3.00092 4.5 3H19.5C20.3281 3.00092 20.9991 3.67194 21 4.5V6.62793Z" fill="#272726"/>
</svg>
