<svg width="24" height="24" viewBox="0 0 24 24" fill="none" xmlns="http://www.w3.org/2000/svg">
<path d="M20.0828 12.0231C20.2927 11.8133 20.6328 11.8133 20.8426 12.0231C21.0525 12.2329 21.0525 12.5731 20.8426 12.7829L12.7829 20.8426C12.5731 21.0525 12.2329 21.0525 12.0231 20.8426C11.8133 20.6328 11.8133 20.2927 12.0231 20.0828L20.0828 12.0231ZM18.4709 3.15738C18.6807 2.94754 19.0208 2.94754 19.2307 3.15738C19.4405 3.36721 19.4405 3.70734 19.2307 3.91717L3.91717 19.2307C3.70734 19.4405 3.36721 19.4405 3.15738 19.2307C2.94754 19.0208 2.94754 18.6807 3.15738 18.4709L18.4709 3.15738Z" fill="#272726"/>
</svg>
