<svg width="24" height="24" viewBox="0 0 24 24" fill="none" xmlns="http://www.w3.org/2000/svg">
<path d="M21.8535 7.14648L16.8535 2.14648C16.8535 2.14642 16.8535 2.14648 16.8535 2.14648C16.6583 1.95129 16.3416 1.95123 16.1465 2.14648L2.14648 16.1465C2.05267 16.2402 2 16.3674 2 16.5V21.5005C2.00018 21.7765 2.224 22.0002 2.5 22H7.5C7.63263 22 7.75977 21.9473 7.85345 21.8534L21.8535 7.85345C21.8534 7.85351 21.8535 7.85345 21.8535 7.85345C22.0486 7.65826 22.0487 7.34161 21.8535 7.14648ZM7.29303 21H3V16.707L13.6718 6.03515L17.9644 10.3286L7.29303 21ZM18.6714 9.62157L14.3788 5.32818L16.5 3.20696L20.793 7.49999L18.6714 9.62157Z" fill="#272726"/>
</svg>
