<svg width="24" height="24" viewBox="0 0 24 24" fill="none" xmlns="http://www.w3.org/2000/svg">
<path d="M21.5 11.5C21.2239 11.5 21 11.7239 21 12C20.9924 15.3253 19.1559 18.3767 16.2212 19.9404C11.8243 22.2832 6.36079 20.618 4.01807 16.2212C1.6753 11.8243 3.34046 6.36079 7.73731 4.01807C11.8784 1.81159 16.9634 3.16236 19.4985 7.00001H16.5C16.2239 7.00001 16 7.22389 16 7.50001C16 7.77613 16.2239 8.00001 16.5 8.00001H20.5C20.4998 8.00001 20.5002 8.00001 20.5 8.00001C20.7759 7.99983 21.0002 7.77601 21 7.50001V3.50001C21 3.22389 20.7761 3.00001 20.5 3.00001C20.2239 3.00001 20 3.22389 20 3.50001V5.9972C18.1317 3.51106 15.1926 2.00398 12.0253 2.00001C6.50245 1.99305 2.01966 6.46455 2.01264 11.9874C2.00568 17.5102 6.47718 21.993 12 22C17.5202 21.9935 21.9935 17.5202 22 12C22 11.7239 21.7761 11.5 21.5 11.5Z" fill="#272726"/>
</svg>
