<svg width="24" height="24" viewBox="0 0 24 24" fill="none" xmlns="http://www.w3.org/2000/svg">
<path d="M14.3143 6.08571C14.5983 6.08571 14.8286 6.31597 14.8286 6.6C14.8286 6.88403 14.5983 7.11429 14.3143 7.11429H8.91429C8.63025 7.11429 8.4 6.88403 8.4 6.6C8.4 6.31597 8.63025 6.08571 8.91429 6.08571H14.3143Z" fill="#272726"/>
<path fill-rule="evenodd" clip-rule="evenodd" d="M16.4367 3.00603C16.7304 3.03532 17.0065 3.16538 17.2172 3.37567L20.6243 6.78281C20.8647 7.0237 20.9998 7.35052 21 7.69085V19.7143C21 20.0553 20.8644 20.3822 20.6233 20.6233C20.3822 20.8644 20.0553 21 19.7143 21H4.28571C3.94472 21 3.61779 20.8644 3.37667 20.6233C3.13556 20.3822 3 20.0553 3 19.7143V4.28571C3 3.94472 3.13556 3.61779 3.37667 3.37667C3.61779 3.13556 3.94472 3 4.28571 3H16.3092L16.4367 3.00603ZM4.28571 4.02857C4.21752 4.02857 4.15213 4.05568 4.10391 4.10391C4.05568 4.15213 4.02857 4.21752 4.02857 4.28571V19.7143C4.02857 19.7825 4.05568 19.8479 4.10391 19.8961C4.15213 19.9443 4.21751 19.9714 4.28571 19.9714H6.85714V14.3143C6.85714 13.9733 6.9927 13.6464 7.23382 13.4052C7.47494 13.1641 7.80187 13.0286 8.14286 13.0286H15.8571C16.1981 13.0286 16.5251 13.1641 16.7662 13.4052C17.0073 13.6464 17.1429 13.9733 17.1429 14.3143V19.9714H19.7143C19.7825 19.9714 19.8479 19.9443 19.8961 19.8961C19.9443 19.8479 19.9714 19.7825 19.9714 19.7143V7.69085C19.9714 7.62274 19.9442 7.55723 19.8961 7.50904L16.491 4.10391C16.4548 4.06778 16.4088 4.04346 16.3594 4.03359L16.3092 4.02857H4.28571ZM8.14286 14.0571C8.07466 14.0571 8.00927 14.0843 7.96105 14.1325C7.91283 14.1807 7.88571 14.2461 7.88571 14.3143V19.9714H16.1143V14.3143C16.1143 14.2461 16.0872 14.1807 16.039 14.1325C15.9907 14.0843 15.9253 14.0571 15.8571 14.0571H8.14286Z" fill="#272726"/>
</svg>
