<svg width="24" height="24" viewBox="0 0 24 24" fill="none" xmlns="http://www.w3.org/2000/svg">
<path d="M12.3535 6.14655C12.3535 6.14648 12.3536 6.14661 12.3535 6.14655C12.1583 5.95142 11.8417 5.95129 11.6465 6.14655L7.14655 10.6465C6.95935 10.8403 6.95935 11.1475 7.14655 11.3412C7.33838 11.5399 7.65491 11.5453 7.85352 11.3535L11.5 7.70697V21.5005C11.5002 21.7766 11.724 22.0002 12 22C12.2759 21.9998 12.5002 21.776 12.5 21.5V7.70697L16.1465 11.3535C16.2401 11.4474 16.3674 11.5002 16.5 11.5C16.6325 11.5 16.7596 11.4473 16.8534 11.3536C17.0486 11.1584 17.0488 10.8418 16.8535 10.6465L12.3535 6.14655ZM19.5 2H4.5C4.22388 2 4 2.22388 4 2.5C4 2.77612 4.22388 3 4.5 3H19.5C19.7761 3 20 2.77612 20 2.5C20 2.22388 19.7761 2 19.5 2Z" fill="#272726"/>
</svg>
