<svg width="24" height="24" viewBox="0 0 24 24" fill="none" xmlns="http://www.w3.org/2000/svg">
<path d="M2.625 7.18182H21.375C21.7202 7.18182 22 6.91724 22 6.59091C22 6.26458 21.7202 6 21.375 6H2.625C2.27985 6 2 6.26458 2 6.59091C2 6.91724 2.27985 7.18182 2.625 7.18182ZM21.375 11.9091H2.625C2.27985 11.9091 2 12.1737 2 12.5C2 12.8263 2.27985 13.0909 2.625 13.0909H21.375C21.7202 13.0909 22 12.8263 22 12.5C22 12.1737 21.7202 11.9091 21.375 11.9091ZM21.375 17.8182H2.625C2.27985 17.8182 2 18.0828 2 18.4091C2 18.7354 2.27985 19 2.625 19H21.375C21.7202 19 22 18.7354 22 18.4091C22 18.0828 21.7202 17.8182 21.375 17.8182Z" fill="#272726"/>
<path d="M17 11.5C17 11.2239 17.2239 11 17.5 11C17.7761 11 18 11.2239 18 11.5V13.5C18 13.7761 17.7761 14 17.5 14C17.2239 14 17 13.7761 17 13.5V11.5Z" fill="white"/>
<path d="M17.0098 13.6006C17.0563 13.8286 17.2583 14 17.5 14C17.7417 14 17.9437 13.8286 17.9902 13.6006L18 13.5V11.5C18 11.2239 17.7761 11 17.5 11C17.2239 11 17 11.2239 17 11.5V13.5L17.0098 13.6006ZM19 13.5C19 14.3284 18.3284 15 17.5 15C16.6716 15 16 14.3284 16 13.5V11.5C16 10.6716 16.6716 10 17.5 10C18.3284 10 19 10.6716 19 11.5V13.5Z" fill="#272726"/>
<path d="M6 5.5C6 5.22386 6.22386 5 6.5 5C6.77614 5 7 5.22386 7 5.5V7.5C7 7.77614 6.77614 8 6.5 8C6.22386 8 6 7.77614 6 7.5V5.5Z" fill="white"/>
<path d="M6.00977 7.60059C6.05629 7.82855 6.25829 8 6.5 8C6.74171 8 6.94371 7.82855 6.99023 7.60059L7 7.5V5.5C7 5.22386 6.77614 5 6.5 5C6.22386 5 6 5.22386 6 5.5V7.5L6.00977 7.60059ZM8 7.5C8 8.32843 7.32843 9 6.5 9C5.67157 9 5 8.32843 5 7.5V5.5C5 4.67157 5.67157 4 6.5 4C7.32843 4 8 4.67157 8 5.5V7.5Z" fill="#272726"/>
<path d="M6 17.5C6 17.2239 6.22386 17 6.5 17C6.77614 17 7 17.2239 7 17.5V19.5C7 19.7761 6.77614 20 6.5 20C6.22386 20 6 19.7761 6 19.5V17.5Z" fill="white"/>
<path d="M6.00977 19.6006C6.05629 19.8286 6.25829 20 6.5 20C6.74171 20 6.94371 19.8286 6.99023 19.6006L7 19.5V17.5C7 17.2239 6.77614 17 6.5 17C6.22386 17 6 17.2239 6 17.5V19.5L6.00977 19.6006ZM8 19.5C8 20.3284 7.32843 21 6.5 21C5.67157 21 5 20.3284 5 19.5V17.5C5 16.6716 5.67157 16 6.5 16C7.32843 16 8 16.6716 8 17.5V19.5Z" fill="#272726"/>
</svg>
