<svg width="24" height="24" viewBox="0 0 24 24" fill="none" xmlns="http://www.w3.org/2000/svg">
<path d="M20.2041 4.01074C21.2128 4.113 22 4.96435 22 6V18C22 19.0357 21.2128 19.887 20.2041 19.9893L20 20H4C2.89543 20 2 19.1046 2 18V6C2 4.89543 2.89543 4 4 4H20L20.2041 4.01074ZM4 5C3.44772 5 3 5.44772 3 6V18C3 18.5523 3.44772 19 4 19H7.26367V5H4ZM8.31543 19H20C20.5523 19 21 18.5523 21 18V6C21 5.44772 20.5523 5 20 5H8.31543V19ZM15.8926 8.80176C16.2111 8.49952 16.7373 8.72585 16.7373 9.16504V14.835C16.7373 15.2742 16.2111 15.5005 15.8926 15.1982L12.9082 12.3623C12.7007 12.1652 12.7007 11.8348 12.9082 11.6377L15.8926 8.80176Z" fill="#272726"/>
</svg>
