<svg width="24" height="24" viewBox="0 0 24 24" fill="none" xmlns="http://www.w3.org/2000/svg">
<path d="M21.8534 11.6466L17.3534 7.14656C17.1597 6.95937 16.8525 6.95937 16.6587 7.14656C16.4601 7.33839 16.4546 7.65492 16.6465 7.85353L20.293 11.5H3.70696L7.35345 7.85353C7.54064 7.65974 7.54064 7.35255 7.35345 7.15883C7.16161 6.96022 6.84509 6.95467 6.64648 7.14656L2.14648 11.6466C2.14642 11.6466 2.14648 11.6465 2.14648 11.6466C1.95129 11.8418 1.95123 12.1584 2.14648 12.3535L6.64648 16.8535C6.7401 16.9475 6.86736 17.0002 6.99999 17C7.13256 17 7.2597 16.9473 7.35339 16.8536C7.5487 16.6583 7.5487 16.3418 7.35351 16.1465L3.70696 12.5H20.293L16.6465 16.1465C16.5527 16.2402 16.5001 16.3674 16.5001 16.5C16.5001 16.7761 16.7239 17 17 17C17.1326 17.0001 17.2598 16.9475 17.3534 16.8535L21.8534 12.3535C21.8534 12.3536 21.8535 12.3535 21.8534 12.3535C22.0486 12.1583 22.0487 11.8417 21.8534 11.6466Z" fill="#272726"/>
</svg>
