<svg width="24" height="24" viewBox="0 0 24 24" fill="none" xmlns="http://www.w3.org/2000/svg">
<path d="M20.5 6H18.5H16V4.5C15.9987 3.11981 14.8802 2.00128 13.5 2H10.5C9.11987 2.00146 8.00146 3.11987 8 4.5V6H5.5C5.49982 6 5.50024 6 5.5 6H3.5C3.22388 6 3 6.22388 3 6.5C3 6.77612 3.22388 7 3.5 7H5V19.5C5.00146 20.8801 6.11987 21.9985 7.5 22H16.5C17.8802 21.9987 18.9987 20.8802 19 19.5V7H20.5C20.7761 7 21 6.77612 21 6.5C21 6.22388 20.7761 6 20.5 6ZM9 4.5C9.00092 3.67194 9.67194 3.00092 10.5 3H13.5C14.3281 3.00092 14.9991 3.67194 15 4.5V6H9V4.5ZM18 19.5C17.9991 20.3281 17.3281 20.9991 16.5 21H7.5C6.67194 20.9991 6.00092 20.3281 6 19.5V7H8.5H15.5H18V19.5Z" fill="#272726"/>
</svg>
