<svg width="24" height="24" viewBox="0 0 24 24" fill="none" xmlns="http://www.w3.org/2000/svg">
<path d="M15.1113 7.50001H5.70898L10.3555 2.85353C10.546 2.65913 10.546 2.34809 10.3555 2.1537C10.1622 1.95649 9.8457 1.95326 9.6485 2.14656L4.1485 7.64656C4.14844 7.64656 4.14856 7.64649 4.1485 7.64656C3.95337 7.84181 3.95325 8.1584 4.1485 8.35353L9.6485 13.8535C9.74213 13.9475 9.86938 14.0002 10.002 14C10.1346 14 10.2617 13.9473 10.3554 13.8536C10.5507 13.6583 10.5507 13.3417 10.3555 13.1465L5.70898 8.50001H15.1113C16.9819 8.50239 18.4976 10.0181 18.5 11.8887V21.5006C18.5002 21.7766 18.724 22.0002 19 22C19.2759 21.9998 19.5002 21.776 19.5 21.5V11.8887C19.4973 9.46601 17.534 7.50276 15.1113 7.50001Z" fill="#272726"/>
</svg>
