<svg width="24" height="24" viewBox="0 0 24 24" fill="none" xmlns="http://www.w3.org/2000/svg">
<path d="M18 9H16.5C16.2239 9 16 9.22388 16 9.5C16 9.77612 16.2239 10 16.5 10H18C19.104 10.0014 19.9986 10.896 20 12V19C19.9986 20.104 19.104 20.9986 18 21H6C4.896 20.9986 4.0014 20.104 4 19V12C4.0014 10.896 4.896 10.0014 6 10H8.5C8.77612 10 9 9.77612 9 9.5C9 9.22388 8.77612 9 8.5 9H6C4.34387 9.00183 3.00183 10.3439 3 12V19C3.00183 20.6561 4.34387 21.9982 6 22H18C19.6561 21.9982 20.9982 20.6561 21 19V12C20.9982 10.3439 19.6561 9.00183 18 9Z" fill="#272726"/>
<path d="M15.8376 6.34473C16.0348 6.15143 16.038 5.8349 15.8448 5.6377L12.3536 2.14648C12.2599 2.05255 12.1327 1.99982 12 2C11.8674 1.99988 11.7402 2.05255 11.6465 2.14648L8.15532 5.6377C7.96483 5.83209 7.96483 6.14313 8.15532 6.33752C8.34862 6.53473 8.66515 6.53796 8.86235 6.34473L11.5 3.70703L11.5 17.5C11.5 17.7761 11.7239 18 12 18C12.2762 18 12.5 17.7761 12.5 17.5L12.5 3.70703L15.1378 6.34473C15.3321 6.53522 15.6432 6.53522 15.8376 6.34473Z" fill="#272726"/>
</svg>
