<svg width="24" height="24" viewBox="0 0 24 24" fill="none" xmlns="http://www.w3.org/2000/svg">
<path d="M21.8 16.1L16.9 11.2C17.3 9.59995 17.1 7.99995 16.4 6.49995C14.7 2.69995 10.3 0.999953 6.49999 2.69995C6.39999 2.69995 6.39999 2.79995 6.39999 2.79995C6.19999 2.99995 6.19999 3.29995 6.39999 3.49995L11.5 8.59995L8.69999 11.4L3.49999 6.39995L3.39999 6.29995C3.09999 6.19995 2.89999 6.29995 2.69999 6.59995C2.09999 7.99995 1.89999 9.69995 2.29999 11.2C3.19999 15.2 7.19999 17.8 11.3 16.8L16.2 21.7C16.3 21.8 16.4 21.8 16.6 21.8C16.7 21.8 16.9 21.7 17 21.7C17.2 21.5 17.2 21.2 17 21L11.7 16C11.6 15.9 11.4 15.8 11.2 15.9C9.99999 16.2 8.69999 16.2 7.59999 15.8C4.19999 14.7 2.29999 11 3.39999 7.59995L8.39999 12.6C8.59999 12.8 8.89999 12.8 9.09999 12.6L12.6 8.99995C12.8 8.79995 12.8 8.49995 12.6 8.29995L7.59999 3.29995C8.79999 2.99995 10.1 2.99995 11.3 3.29995C14.8 4.19995 16.8 7.79995 15.9 11.3C15.9 11.5 15.9 11.7 16 11.8L21.1 16.9C21.3 17.1 21.6 17.1 21.8 16.9C22 16.6 22 16.3 21.8 16.1Z" fill="#272726"/>
</svg>
