<svg width="24" height="24" viewBox="0 0 24 24" fill="none" xmlns="http://www.w3.org/2000/svg">
<path d="M21.7 15.7L17.1 11.1C17.4 9.79999 17.3 8.49999 16.9 7.19999C15.6 3.19999 11.3 0.99999 7.30001 2.29999C7.20001 2.39999 7.00001 2.49999 6.90001 2.59999C6.50001 2.99999 6.50001 3.59999 6.90001 3.99999L11.3 8.39999L8.50001 11.2L4.10001 6.89999C4.00001 6.69999 3.80001 6.69999 3.70001 6.59999C3.20001 6.39999 2.60001 6.69999 2.40001 7.19999C2.00001 8.49999 1.90001 9.89999 2.20001 11.2C3.00001 15.3 7.10001 18 11.2 17.2L15.8 21.8C16.2 22.2 16.8 22.2 17.2 21.8L21.8 17.2C22.1 16.7 22.1 16.1 21.7 15.7Z" fill="#272726"/>
</svg>
