<svg width="24" height="24" viewBox="0 0 24 24" fill="none" xmlns="http://www.w3.org/2000/svg">
<path d="M16 2H8C6.34387 2.00183 5.00183 3.34387 5 5V19C5.00183 20.6561 6.34387 21.9982 8 22H16C17.6561 21.9982 18.9982 20.6561 19 19V5C18.9982 3.34387 17.6561 2.00183 16 2ZM18 19C17.9986 20.104 17.104 20.9986 16 21H8C6.896 20.9986 6.0014 20.104 6 19V5C6.0014 3.896 6.896 3.0014 8 3H16C17.104 3.0014 17.9986 3.896 18 5V19ZM12 15.5C11.1716 15.5 10.5 16.1716 10.5 17C10.5 17.8284 11.1716 18.5 12 18.5C12.8281 18.4991 13.4991 17.8281 13.5 17C13.5 16.1716 12.8284 15.5 12 15.5ZM12 17.5C11.7239 17.5 11.5 17.2761 11.5 17C11.5 16.7239 11.7239 16.5 12 16.5C12.2759 16.5005 12.4995 16.7241 12.5 17C12.5 17.2761 12.2761 17.5 12 17.5Z" fill="#272726"/>
</svg>
