<svg width="24" height="24" viewBox="0 0 24 24" fill="none" xmlns="http://www.w3.org/2000/svg">
<path d="M19.5674 12.9375C19.3701 12.9003 19.1738 12.8573 18.9785 12.8105C18.5682 12.7098 18.1641 12.5849 17.7685 12.4365C16.8175 12.077 15.7476 12.483 15.2744 13.3828L14.5234 14.8252C13.4135 14.1951 12.3941 13.4175 11.4931 12.5137C10.592 11.6092 9.81706 10.5873 9.18937 9.47557L10.623 8.72948C11.5228 8.25615 11.9289 7.18651 11.5698 6.23533C11.4209 5.83916 11.2959 5.43449 11.1953 5.02342C11.1476 4.82841 11.1055 4.63182 11.0688 4.43358C10.7977 3.01536 9.55369 1.99223 8.10985 1.99998H5.03416C4.14848 1.99992 3.30693 2.38658 2.72996 3.05858C2.15825 3.72081 1.90397 4.59959 2.03367 5.46483C3.36534 13.967 10.0318 20.6382 18.5332 21.9756C18.6812 21.9981 18.8307 22.0095 18.9805 22.0097C19.7 22.0089 20.3954 21.7501 20.9404 21.2803C21.613 20.703 22 19.8609 22 18.9746V15.8965C22.0082 14.4527 20.9854 13.2086 19.5674 12.9375ZM21 18.9746C20.9997 19.5694 20.7397 20.1344 20.2881 20.5215C19.8463 20.9024 19.2607 21.0725 18.6836 20.9873C10.6146 19.7179 4.28697 13.3862 3.02293 5.31639C2.93632 4.739 3.10631 4.15251 3.48826 3.71092C3.87504 3.25957 4.4398 2.99986 5.03416 2.99998H8.10985C9.07152 2.99223 9.90196 3.67119 10.0855 4.61522C10.125 4.83104 10.1719 5.04686 10.2237 5.26072C10.3341 5.71049 10.4711 6.1533 10.6338 6.5869C10.8155 7.06492 10.6126 7.60344 10.1607 7.84276L8.2769 8.82323C8.03215 8.95061 7.93687 9.25218 8.06401 9.49705C8.77574 10.8692 9.6934 12.1244 10.7851 13.2187C11.8763 14.3142 13.1292 15.2358 14.5 15.9512C14.6181 16.0113 14.755 16.0232 14.8818 15.9844C15.0081 15.9447 15.1134 15.8566 15.1748 15.7392L16.1611 13.8447C16.4005 13.3934 16.9383 13.1908 17.416 13.3721C17.8491 13.535 18.2916 13.6717 18.7412 13.7812C18.9531 13.834 19.167 13.8789 19.3838 13.9199C20.3283 14.1034 21.0077 14.9343 21 15.8965V18.9746Z" fill="#272726"/>
</svg>
