<svg width="24" height="24" viewBox="0 0 24 24" fill="none" xmlns="http://www.w3.org/2000/svg">
<path d="M17.5 9.875C17.1548 9.875 16.875 10.1548 16.875 10.5C16.875 10.8452 17.1548 11.125 17.5 11.125C17.8451 11.125 18.125 10.8452 18.125 10.5C18.125 10.1548 17.8451 9.875 17.5 9.875ZM15.5 6C15.7761 6 16 5.77612 16 5.5C16.0002 4.85425 16.4135 4.28107 17.0261 4.0769C17.8122 3.815 18.6619 4.23999 18.9238 5.02612C19.1857 5.81232 18.7607 6.66193 17.9746 6.92383C17.376 7.13995 16.9832 7.71533 17 8.35156V8.5C17 8.49982 17 8.50018 17 8.5C17.0002 8.776 17.224 9.00018 17.5 9C17.4997 9 17.5002 9 17.5 9C17.7759 8.99982 18.0002 8.776 18 8.5V8.35156C17.9887 8.14752 18.1039 7.95746 18.29 7.87305C19.3107 7.53308 19.9995 6.57819 20 5.50232C20.0006 4.12158 18.8818 3.00177 17.5012 3.00116C16.1204 3.00049 15.0006 4.11926 15 5.5C15 5.77612 15.2239 6 15.5 6ZM19.5082 13.0059C19.2327 12.9871 18.9943 13.1953 18.9756 13.4707C18.7271 17.695 15.2316 20.9949 11 21H3.70696L5.34277 19.3643C5.34271 19.3643 5.34283 19.3642 5.34277 19.3643C5.5379 19.169 5.53802 18.8524 5.34277 18.6572C3.84283 17.157 3.00011 15.1225 2.99999 13.001C2.99969 8.58246 6.58141 5.00031 11 5C11.1113 5 11.2207 5.00781 11.331 5.01563L11.4707 5.02441C11.4748 5.02472 11.479 5.02496 11.4831 5.02515C11.7555 5.03772 11.9864 4.82709 11.999 4.55469C11.999 4.55487 11.999 4.55444 11.999 4.55469C12.0149 4.27924 11.8047 4.04236 11.5293 4.02637L11.3994 4.01758C11.2666 4.00879 11.1348 4 11 4C8.78619 4.00012 6.65014 4.81616 5.00005 6.29199C1.29504 9.60596 0.97802 15.296 4.29199 19.001L2.14648 21.1465C2.05273 21.2402 2.00005 21.3674 2.00005 21.4999C1.99999 21.7761 2.22387 21.9999 2.49999 22H11C15.7609 21.9946 19.694 18.282 19.9736 13.5293C19.9871 13.2571 19.7801 13.0243 19.5082 13.0059Z" fill="#272726"/>
</svg>
