<svg width="24" height="24" viewBox="0 0 24 24" fill="none" xmlns="http://www.w3.org/2000/svg">
<path d="M19 4H5C3.34387 4.00183 2.00183 5.34387 2 7V17C2.00183 18.6561 3.34387 19.9982 5 20H19C20.6561 19.9982 21.9982 18.6561 22 17V7C21.9982 5.34387 20.6561 4.00183 19 4ZM5 5H19C19.3701 5.00049 19.7122 5.10815 20.0094 5.28357L13.0605 12.2324C12.4741 12.8165 11.5259 12.8165 10.9394 12.2324L3.99054 5.28357C4.28778 5.10815 4.62994 5.00049 5 5ZM21 17C20.9986 18.104 20.104 18.9986 19 19H5C3.896 18.9986 3.0014 18.104 3 17V7C3.00049 6.62994 3.10815 6.28784 3.28357 5.9906L10.2324 12.9395C10.7008 13.4088 11.337 13.672 12 13.6709C12.663 13.6719 13.2991 13.4088 13.7675 12.9395L20.7164 5.99054C20.8918 6.28778 20.9995 6.62994 21 7V17Z" fill="#272726"/>
</svg>
