<svg width="24" height="24" viewBox="0 0 24 24" fill="none" xmlns="http://www.w3.org/2000/svg">
<path d="M10 10.5H8C7.72388 10.5 7.5 10.7239 7.5 11C7.5 11.2761 7.72388 11.5 8 11.5H10C10.2761 11.5 10.5 11.2761 10.5 11C10.5 10.7239 10.2761 10.5 10 10.5ZM17.5 6H11V3H12.5C12.7761 3 13 2.77612 13 2.5C13 2.22388 12.7761 2 12.5 2H10.4995C10.2234 2.00018 9.99982 2.224 10 2.5V6H6.5C4.56799 6.00232 3.00232 7.56799 3 9.5V16.5005C3.00018 16.7766 3.224 17.0002 3.5 17H10V21.5005C10.0002 21.7766 10.224 22.0002 10.5 22C10.7759 21.9998 11.0002 21.776 11 21.5V17H20.5006C20.7766 16.9998 21.0002 16.776 21 16.5V9.5C21 7.56702 19.433 6 17.5 6ZM14 16H4V9.5C4.00128 8.11981 5.11981 7.00128 6.5 7H15.0556C14.4058 7.63544 14 8.51929 14 9.5V16ZM20 16H15V9.5C15 8.11926 16.1193 7 17.5 7C18.8802 7.00128 19.9987 8.11981 20 9.5V16Z" fill="#272726"/>
</svg>
