<svg width="24" height="24" viewBox="0 0 24 24" fill="none" xmlns="http://www.w3.org/2000/svg">
<path d="M21.9 11.7L19.9 9.2C19.8 9.1 19.7 9 19.5 9H12.5V2.5C12.5 2.2 12.3 2 12 2C11.7 2 11.5 2.2 11.5 2.5V4H4.49999C4.29999 4 4.19999 4.1 4.09999 4.2L2.09999 6.7C1.99999 6.9 1.99999 7.1 2.09999 7.3L4.09999 9.8C4.19999 9.9 4.29999 10 4.49999 10H11.5V21H8.49999C8.19999 21 7.99999 21.2 7.99999 21.5C7.99999 21.8 8.19999 22 8.49999 22H15.5C15.8 22 16 21.8 16 21.5C16 21.2 15.8 21 15.5 21H12.5V15H19.5C19.7 15 19.8 14.9 19.9 14.8L21.9 12.3C22 12.1 22 11.9 21.9 11.7ZM11.5 9H4.69999L3.09999 7L4.69999 5H11.5V9ZM19.3 14H12.5V10H19.3L20.9 12L19.3 14Z" fill="#272726"/>
</svg>
