<svg width="24" height="24" viewBox="0 0 24 24" fill="none" xmlns="http://www.w3.org/2000/svg">
<path fill-rule="evenodd" clip-rule="evenodd" d="M2.5 9C2.5 8.72386 2.72386 8.5 3 8.5H21C21.2761 8.5 21.5 8.72386 21.5 9C21.5 9.27614 21.2761 9.5 21 9.5H3C2.72386 9.5 2.5 9.27614 2.5 9Z" fill="#272726"/>
<path fill-rule="evenodd" clip-rule="evenodd" d="M6.5 13C6.5 12.7239 6.72386 12.5 7 12.5H9.57C9.84614 12.5 10.07 12.7239 10.07 13C10.07 13.2761 9.84614 13.5 9.57 13.5H7C6.72386 13.5 6.5 13.2761 6.5 13Z" fill="#272726"/>
<path fill-rule="evenodd" clip-rule="evenodd" d="M6 5.5C4.61914 5.5 3.5 6.61914 3.5 8V16C3.5 17.3809 4.61914 18.5 6 18.5H18C19.3809 18.5 20.5 17.3809 20.5 16V8C20.5 6.61914 19.3809 5.5 18 5.5H6ZM2.5 8C2.5 6.06686 4.06686 4.5 6 4.5H18C19.9331 4.5 21.5 6.06686 21.5 8V16C21.5 17.9331 19.9331 19.5 18 19.5H6C4.06686 19.5 2.5 17.9331 2.5 16V8Z" fill="#272726"/>
</svg>
