<svg width="24" height="24" viewBox="0 0 24 24" fill="none" xmlns="http://www.w3.org/2000/svg">
<path fill-rule="evenodd" clip-rule="evenodd" d="M2.5 8C2.5 7.72386 2.72386 7.5 3 7.5H21C21.2761 7.5 21.5 7.72386 21.5 8C21.5 8.27614 21.2761 8.5 21 8.5H3C2.72386 8.5 2.5 8.27614 2.5 8Z" fill="#272726"/>
<path fill-rule="evenodd" clip-rule="evenodd" d="M6.5 12C6.5 11.7239 6.72386 11.5 7 11.5H9.57C9.84614 11.5 10.07 11.7239 10.07 12C10.07 12.2761 9.84614 12.5 9.57 12.5H7C6.72386 12.5 6.5 12.2761 6.5 12Z" fill="#272726"/>
<path fill-rule="evenodd" clip-rule="evenodd" d="M6 4.5C4.61914 4.5 3.5 5.61914 3.5 7V15C3.5 16.3809 4.61914 17.5 6 17.5H9C9.27614 17.5 9.5 17.7239 9.5 18C9.5 18.2761 9.27614 18.5 9 18.5H6C4.06686 18.5 2.5 16.9331 2.5 15V7C2.5 5.06686 4.06686 3.5 6 3.5H18C19.9331 3.5 21.5 5.06686 21.5 7V11C21.5 11.2761 21.2761 11.5 21 11.5C20.7239 11.5 20.5 11.2761 20.5 11V7C20.5 5.61914 19.3809 4.5 18 4.5H6Z" fill="#272726"/>
<path fill-rule="evenodd" clip-rule="evenodd" d="M17.1911 14.3674C15.6276 14.3674 14.3677 15.6273 14.3677 17.1908C14.3677 18.7544 15.6276 20.0143 17.1911 20.0143C18.7547 20.0143 20.0146 18.7544 20.0146 17.1908C20.0146 15.6273 18.7547 14.3674 17.1911 14.3674ZM13.3677 17.1908C13.3677 15.075 15.0753 13.3674 17.1911 13.3674C19.307 13.3674 21.0146 15.075 21.0146 17.1908C21.0146 19.3066 19.307 21.0143 17.1911 21.0143C15.0753 21.0143 13.3677 19.3066 13.3677 17.1908Z" fill="#272726"/>
<path fill-rule="evenodd" clip-rule="evenodd" d="M19.6216 14.7601C19.8169 14.9554 19.8169 15.2719 19.6216 15.4672L15.4673 19.6215C15.2721 19.8168 14.9555 19.8168 14.7602 19.6215C14.565 19.4262 14.565 19.1097 14.7602 18.9144L18.9145 14.7601C19.1098 14.5648 19.4264 14.5648 19.6216 14.7601Z" fill="#272726"/>
</svg>
