<svg width="24" height="24" viewBox="0 0 24 24" fill="none" xmlns="http://www.w3.org/2000/svg">
<path d="M21 16.6113C20.9999 18.3603 19.582 19.7773 17.833 19.7773H5.16699C3.41801 19.7773 2.00012 18.3603 2 16.6113V9.75H21V16.6113ZM6.22266 12.917C5.93122 12.917 5.69441 13.1529 5.69434 13.4443C5.69434 13.7358 5.93117 13.9727 6.22266 13.9727H8.93457C9.22605 13.9727 9.46289 13.7358 9.46289 13.4443C9.46282 13.1529 9.22601 12.917 8.93457 12.917H6.22266ZM17.833 5C19.5821 5 21 6.41794 21 8.16699V8.69434H2V8.16699C2 6.41794 3.41794 5 5.16699 5H17.833Z" fill="#272726"/>
</svg>
