<svg width="24" height="24" viewBox="0 0 24 24" fill="none" xmlns="http://www.w3.org/2000/svg">
<path fill-rule="evenodd" clip-rule="evenodd" d="M2.5 7C2.5 6.72386 2.72386 6.5 3 6.5H21C21.2761 6.5 21.5 6.72386 21.5 7C21.5 7.27614 21.2761 7.5 21 7.5H3C2.72386 7.5 2.5 7.27614 2.5 7Z" fill="#272726"/>
<path fill-rule="evenodd" clip-rule="evenodd" d="M6.5 11C6.5 10.7239 6.72386 10.5 7 10.5H9.57C9.84614 10.5 10.07 10.7239 10.07 11C10.07 11.2761 9.84614 11.5 9.57 11.5H7C6.72386 11.5 6.5 11.2761 6.5 11Z" fill="#272726"/>
<path fill-rule="evenodd" clip-rule="evenodd" d="M6 3.5C5.33696 3.5 4.70107 3.76339 4.23223 4.23223C3.76339 4.70107 3.5 5.33696 3.5 6V14C3.5 14.663 3.76339 15.2989 4.23223 15.7678C4.70107 16.2366 5.33696 16.5 6 16.5H9C9.27614 16.5 9.5 16.7239 9.5 17C9.5 17.2761 9.27614 17.5 9 17.5H6C5.07174 17.5 4.1815 17.1313 3.52513 16.4749C2.86875 15.8185 2.5 14.9283 2.5 14V6C2.5 5.07174 2.86875 4.1815 3.52513 3.52513C4.1815 2.86875 5.07174 2.5 6 2.5H18C18.9283 2.5 19.8185 2.86875 20.4749 3.52513C21.1313 4.1815 21.5 5.07174 21.5 6V10C21.5 10.2761 21.2761 10.5 21 10.5C20.7239 10.5 20.5 10.2761 20.5 10V6C20.5 5.33696 20.2366 4.70107 19.7678 4.23223C19.2989 3.76339 18.663 3.5 18 3.5H6Z" fill="#272726"/>
<path fill-rule="evenodd" clip-rule="evenodd" d="M17 14.5C17.2761 14.5 17.5 14.7239 17.5 15V16.82C17.5 17.0961 17.2761 17.32 17 17.32C16.7239 17.32 16.5 17.0961 16.5 16.82V15C16.5 14.7239 16.7239 14.5 17 14.5Z" fill="#272726"/>
<path d="M17.0001 18.1798C16.9012 18.1784 16.8031 18.1969 16.7115 18.2341C16.6199 18.2713 16.5367 18.3265 16.4667 18.3964C16.3968 18.4663 16.3416 18.5496 16.3044 18.6412C16.2672 18.7328 16.2487 18.8309 16.2501 18.9298C16.2501 19.0781 16.2941 19.2231 16.3765 19.3464C16.4589 19.4698 16.576 19.5659 16.7131 19.6227C16.8501 19.6794 17.0009 19.6943 17.1464 19.6653C17.2919 19.6364 17.4255 19.565 17.5304 19.4601C17.6353 19.3552 17.7067 19.2216 17.7357 19.0761C17.7646 18.9306 17.7497 18.7798 17.693 18.6427C17.6362 18.5057 17.5401 18.3886 17.4167 18.3062C17.2934 18.2237 17.1484 18.1798 17.0001 18.1798Z" fill="#272726"/>
<path fill-rule="evenodd" clip-rule="evenodd" d="M18.7221 12.8425C17.8998 12.502 16.995 12.4128 16.1221 12.5865C15.2492 12.7601 14.4474 13.1887 13.818 13.818C13.1887 14.4474 12.7601 15.2492 12.5865 16.1221C12.4128 16.995 12.502 17.8998 12.8425 18.7221C13.1831 19.5443 13.7599 20.2471 14.4999 20.7416C15.24 21.2361 16.11 21.5 17 21.5C18.1935 21.5 19.3381 21.0259 20.182 20.182C21.0259 19.3381 21.5 18.1935 21.5 17C21.5 16.11 21.2361 15.24 20.7416 14.4999C20.2471 13.7599 19.5443 13.1831 18.7221 12.8425ZM15.927 11.6057C16.9939 11.3935 18.0998 11.5024 19.1048 11.9187C20.1098 12.3349 20.9687 13.0399 21.5731 13.9444C22.1774 14.8488 22.5 15.9122 22.5 17C22.5 18.4587 21.9205 19.8576 20.8891 20.8891C19.8576 21.9205 18.4587 22.5 17 22.5C15.9122 22.5 14.8488 22.1774 13.9444 21.5731C13.0399 20.9687 12.3349 20.1098 11.9187 19.1048C11.5024 18.0998 11.3935 16.9939 11.6057 15.927C11.8179 14.8601 12.3417 13.8801 13.1109 13.1109C13.8801 12.3417 14.8601 11.8179 15.927 11.6057Z" fill="#272726"/>
</svg>
