<svg width="24" height="24" viewBox="0 0 24 24" fill="none" xmlns="http://www.w3.org/2000/svg">
<path fill-rule="evenodd" clip-rule="evenodd" d="M2.5 8C2.5 7.72386 2.72386 7.5 3 7.5H21C21.2761 7.5 21.5 7.72386 21.5 8C21.5 8.27614 21.2761 8.5 21 8.5H3C2.72386 8.5 2.5 8.27614 2.5 8Z" fill="#272726"/>
<path fill-rule="evenodd" clip-rule="evenodd" d="M6.5 12C6.5 11.7239 6.72386 11.5 7 11.5H9.57C9.84614 11.5 10.07 11.7239 10.07 12C10.07 12.2761 9.84614 12.5 9.57 12.5H7C6.72386 12.5 6.5 12.2761 6.5 12Z" fill="#272726"/>
<path fill-rule="evenodd" clip-rule="evenodd" d="M6 4.5C4.61914 4.5 3.5 5.61914 3.5 7V15C3.5 16.3809 4.61914 17.5 6 17.5H8C8.27614 17.5 8.5 17.7239 8.5 18C8.5 18.2761 8.27614 18.5 8 18.5H6C4.06686 18.5 2.5 16.9331 2.5 15V7C2.5 5.06686 4.06686 3.5 6 3.5H18C19.9331 3.5 21.5 5.06686 21.5 7V11C21.5 11.2761 21.2761 11.5 21 11.5C20.7239 11.5 20.5 11.2761 20.5 11V7C20.5 5.61914 19.3809 4.5 18 4.5H6Z" fill="#272726"/>
<path fill-rule="evenodd" clip-rule="evenodd" d="M15.5455 14.5C15.0324 14.5 14.5909 14.9328 14.5909 15.5V17.2661L14.8229 17.0269C15.0151 16.8287 15.3316 16.8238 15.5299 17.016C15.7281 17.2083 15.733 17.5248 15.5408 17.7231L14.4499 18.8481C14.3557 18.9452 14.2262 19 14.0909 19C13.9556 19 13.8261 18.9452 13.732 18.8481L12.6411 17.7231C12.4488 17.5248 12.4537 17.2083 12.6519 17.016C12.8502 16.8238 13.1667 16.8287 13.359 17.0269L13.5909 17.2661V15.5C13.5909 14.4097 14.4513 13.5 15.5455 13.5H17.7273C18.0034 13.5 18.2273 13.7239 18.2273 14C18.2273 14.2761 18.0034 14.5 17.7273 14.5H15.5455ZM19.9091 15C20.0444 15 20.1739 15.0548 20.268 15.1519L21.359 16.2769C21.5512 16.4752 21.5463 16.7917 21.3481 16.984C21.1498 17.1762 20.8333 17.1713 20.6411 16.9731L20.4092 16.7339L20.4093 18.5C20.4093 19.5865 19.5452 20.5 18.4547 20.5H16.2809C16.0048 20.5 15.7809 20.2761 15.7809 20C15.7809 19.7239 16.0048 19.5 16.2809 19.5H18.4547C18.9642 19.5 19.4092 19.0635 19.4093 18.5C19.4093 18.5 19.4093 18.5 19.4093 18.5L19.4092 16.7338L19.1771 16.9731C18.9849 17.1713 18.6684 17.1762 18.4701 16.984C18.2719 16.7917 18.267 16.4752 18.4592 16.2769L19.5501 15.1519C19.6443 15.0548 19.7738 15 19.9091 15Z" fill="#272726"/>
</svg>
