<svg width="24" height="24" viewBox="0 0 24 24" fill="none" xmlns="http://www.w3.org/2000/svg">
<path fill-rule="evenodd" clip-rule="evenodd" d="M2.5 8C2.5 7.72386 2.72386 7.5 3 7.5H21C21.2761 7.5 21.5 7.72386 21.5 8C21.5 8.27614 21.2761 8.5 21 8.5H3C2.72386 8.5 2.5 8.27614 2.5 8Z" fill="#272726"/>
<path fill-rule="evenodd" clip-rule="evenodd" d="M6.5 12C6.5 11.7239 6.72386 11.5 7 11.5H9C9.27614 11.5 9.5 11.7239 9.5 12C9.5 12.2761 9.27614 12.5 9 12.5H7C6.72386 12.5 6.5 12.2761 6.5 12Z" fill="#272726"/>
<path fill-rule="evenodd" clip-rule="evenodd" d="M6 4.5C5.33696 4.5 4.70107 4.76339 4.23223 5.23223C3.76339 5.70107 3.5 6.33696 3.5 7V15C3.5 15.663 3.76339 16.2989 4.23223 16.7678C4.70107 17.2366 5.33696 17.5 6 17.5H12C12.2761 17.5 12.5 17.7239 12.5 18C12.5 18.2761 12.2761 18.5 12 18.5H6C5.07174 18.5 4.1815 18.1313 3.52513 17.4749C2.86875 16.8185 2.5 15.9283 2.5 15V7C2.5 6.07174 2.86875 5.1815 3.52513 4.52513C4.1815 3.86875 5.07174 3.5 6 3.5H18C18.9283 3.5 19.8185 3.86875 20.4749 4.52513C21.1313 5.1815 21.5 6.07174 21.5 7V14C21.5 14.2761 21.2761 14.5 21 14.5C20.7239 14.5 20.5 14.2761 20.5 14V7C20.5 6.33696 20.2366 5.70107 19.7678 5.23223C19.2989 4.76339 18.663 4.5 18 4.5H6Z" fill="#272726"/>
<path fill-rule="evenodd" clip-rule="evenodd" d="M18.125 15.8523C18.4011 15.8523 18.625 16.0762 18.625 16.3523V20.8977C18.625 21.1739 18.4011 21.3977 18.125 21.3977C17.8489 21.3977 17.625 21.1739 17.625 20.8977V16.3523C17.625 16.0762 17.8489 15.8523 18.125 15.8523Z" fill="#272726"/>
<path fill-rule="evenodd" clip-rule="evenodd" d="M15.3521 18.625C15.3521 18.3489 15.5759 18.125 15.8521 18.125H20.3975C20.6736 18.125 20.8975 18.3489 20.8975 18.625C20.8975 18.9011 20.6736 19.125 20.3975 19.125H15.8521C15.5759 19.125 15.3521 18.9011 15.3521 18.625Z" fill="#272726"/>
</svg>
