<svg width="24" height="24" viewBox="0 0 24 24" fill="none" xmlns="http://www.w3.org/2000/svg">
<path d="M9 18C7.89545 18 7 18.8954 7 20C7 21.1046 7.89545 22 9 22C10.104 21.9986 10.9986 21.104 11 20C11 18.8954 10.1046 18 9 18ZM9 21C8.44769 21 8 20.5523 8 20C8 19.4477 8.44769 19 9 19C9.55212 19.0004 9.99963 19.4479 10 20C10 20.5523 9.55231 21 9 21ZM17 18C15.8954 18 15 18.8954 15 20C15 21.1046 15.8954 22 17 22C18.104 21.9986 18.9986 21.104 19 20C19 18.8954 18.1046 18 17 18ZM17 21C16.4477 21 16 20.5523 16 20C16 19.4477 16.4477 19 17 19C17.5521 19.0004 17.9996 19.4479 18 20C18 20.5523 17.5523 21 17 21ZM19.4985 12.0502L21.4834 4.62891C21.4946 4.58698 21.5002 4.54382 21.5002 4.50043C21.5002 4.22412 21.2763 4.00006 21 4H5.91986L5.48352 2.37158C5.42493 2.15302 5.22687 2.00098 5.00055 2.00098H3.50482C3.50311 2.00098 3.50171 2 3.5 2C3.22388 2 3 2.22388 3 2.5C3 2.77612 3.22388 3 3.5 3H4.61621L7.19604 12.6288C7.25464 12.8478 7.45306 13 7.67969 13H11H17.8604H19C19.8284 13 20.5 13.6716 20.5 14.5C20.5 15.3284 19.8284 16 19 16H5C4.72388 16 4.5 16.2239 4.5 16.5C4.5 16.7761 4.72388 17 5 17H19C20.3807 17 21.5 15.8807 21.5 14.5C21.5 13.29 20.6404 12.2814 19.4985 12.0502ZM18.4762 12H17.8604H11H8.06348L6.18781 5H20.3486L18.4762 12Z" fill="#272726"/>
</svg>
