<svg width="24" height="24" viewBox="0 0 24 24" fill="none" xmlns="http://www.w3.org/2000/svg">
<path d="M21.5 14C21.5 13.2 21.1 12.5 20.5 12C21.1 11.5 21.5 10.8 21.5 10C21.5 8.6 20.4 7.5 19 7.5H13C13.3 7.1 13.5 6.6 13.5 6C13.5 4.6 12.4 3.5 11 3.5H5C3.6 3.5 2.5 4.6 2.5 6C2.5 6.8 2.9 7.5 3.5 8C2.9 8.5 2.5 9.2 2.5 10C2.5 10.8 2.9 11.5 3.5 12C2.9 12.5 2.5 13.2 2.5 14C2.5 14.8 2.9 15.5 3.5 16C2.9 16.5 2.5 17.2 2.5 18C2.5 19.4 3.6 20.5 5 20.5H11C11.4 20.5 11.7 20.4 12 20.3C12.3 20.4 12.6 20.5 13 20.5H19C20.4 20.5 21.5 19.4 21.5 18C21.5 17.2 21.1 16.5 20.5 16C21.1 15.5 21.5 14.8 21.5 14ZM12.5 18.2V18.3V18.4C12.5 18.5 12.5 18.5 12.4 18.6V18.7C12.4 18.8 12.3 18.8 12.3 18.9C12.2 19 12.2 19 12.1 19.1C12 19.2 12 19.2 11.9 19.3C11.7 19.4 11.4 19.5 11.2 19.5H5C4.2 19.5 3.5 18.8 3.5 18C3.5 17.2 4.2 16.5 5 16.5H11C11.3 16.5 11.5 16.6 11.7 16.7C11.9 16.8 12.1 17 12.2 17.2C12.2 17.2 12.2 17.2 12.2 17.3C12.2 17.4 12.3 17.4 12.3 17.5V17.6V17.7C12.3 17.8 12.3 17.8 12.3 17.9V18C12.5 18.1 12.5 18.2 12.5 18.2ZM12.5 14.2V14.3V14.4C12.5 14.5 12.5 14.5 12.4 14.6V14.7C12.4 14.8 12.3 14.8 12.3 14.9C12.2 15 12.2 15 12.1 15.1C12 15.2 12 15.2 11.9 15.3C11.7 15.4 11.4 15.5 11.2 15.5H5C4.2 15.5 3.5 14.8 3.5 14C3.5 13.2 4.2 12.5 5 12.5H11C11.3 12.5 11.5 12.6 11.7 12.7C11.9 12.8 12.1 13 12.2 13.2C12.2 13.2 12.2 13.2 12.2 13.3C12.2 13.4 12.3 13.4 12.3 13.5V13.6V13.7C12.3 13.8 12.3 13.8 12.3 13.9V14C12.5 14.1 12.5 14.2 12.5 14.2ZM12.5 10.2V10.3V10.4C12.5 10.5 12.5 10.5 12.4 10.6V10.7C12.4 10.8 12.3 10.8 12.3 10.9C12.2 11 12.2 11 12.1 11.1C12 11.2 12 11.2 11.9 11.3C11.7 11.4 11.4 11.5 11.2 11.5H5C4.2 11.5 3.5 10.8 3.5 10C3.5 9.2 4.2 8.5 5 8.5H11C11.3 8.5 11.5 8.6 11.7 8.7C12 8.8 12.2 9 12.3 9.2C12.3 9.2 12.3 9.2 12.3 9.3C12.3 9.4 12.4 9.4 12.4 9.5V9.6V9.7C12.4 9.8 12.4 9.8 12.4 9.9V10C12.5 10.1 12.5 10.2 12.5 10.2ZM11 7.5H5C4.2 7.5 3.5 6.8 3.5 6C3.5 5.2 4.2 4.5 5 4.5H11C11.8 4.5 12.5 5.2 12.5 6C12.5 6.8 11.8 7.5 11 7.5ZM13.5 9.5C13.5 9.4 13.5 9.4 13.5 9.3C13.5 9.2 13.5 9.1 13.4 9.1C13.4 9 13.3 9 13.3 8.9C13.3 8.8 13.2 8.8 13.2 8.7C13.2 8.6 13.1 8.5 13 8.4H19C19.8 8.4 20.5 9.1 20.5 9.9C20.5 10.7 19.8 11.4 19 11.4H13C13.1 11.3 13.1 11.2 13.2 11.1C13.2 11 13.3 11 13.3 10.9C13.3 10.8 13.4 10.8 13.4 10.7C13.4 10.6 13.5 10.5 13.5 10.5C13.5 10.4 13.5 10.4 13.5 10.3C13.5 10.2 13.5 9.8 13.5 9.5ZM20.5 18C20.5 18.8 19.8 19.5 19 19.5H13C13.1 19.4 13.1 19.3 13.2 19.2C13.2 19.1 13.3 19.1 13.3 19C13.3 18.9 13.4 18.9 13.4 18.8C13.4 18.7 13.5 18.6 13.5 18.6C13.5 18.5 13.5 18.5 13.5 18.4C13.6 18.1 13.6 17.8 13.5 17.5C13.5 17.4 13.5 17.4 13.5 17.3C13.5 17.2 13.5 17.1 13.4 17.1C13.4 17 13.3 17 13.3 16.9C13.3 16.8 13.2 16.8 13.2 16.7C13.2 16.6 13.1 16.5 13 16.4H19C19.8 16.5 20.5 17.2 20.5 18ZM19 15.5H13C13.1 15.4 13.1 15.3 13.2 15.2C13.2 15.1 13.3 15.1 13.3 15C13.3 14.9 13.4 14.9 13.4 14.8C13.4 14.7 13.5 14.6 13.5 14.6C13.5 14.5 13.5 14.5 13.5 14.4C13.6 14.1 13.6 13.8 13.5 13.5C13.5 13.4 13.5 13.4 13.5 13.3C13.5 13.2 13.5 13.1 13.4 13.1C13.4 13 13.3 13 13.3 12.9C13.3 12.8 13.2 12.8 13.2 12.7C13.2 12.6 13.1 12.5 13 12.4H19C19.8 12.4 20.5 13.1 20.5 13.9C20.5 14.7 19.8 15.5 19 15.5Z" fill="#272726"/>
</svg>
