<svg width="24" height="24" viewBox="0 0 24 24" fill="none" xmlns="http://www.w3.org/2000/svg">
<path fill-rule="evenodd" clip-rule="evenodd" d="M8.60547 0.900024C9.858 0.900139 10.8418 1.9451 10.8418 3.27502C10.8418 3.84501 10.6629 4.31983 10.3945 4.69983H15.7627C17.0153 4.69983 17.9999 5.74492 18 7.07483C18 7.83482 17.6423 8.50022 17.1055 8.97522C17.1424 9.00791 17.1767 9.0433 17.2119 9.07776C16.8859 9.02537 16.5517 8.99771 16.2109 8.99768C15.4788 8.99768 14.7761 9.12427 14.123 9.3551H10.3945C10.484 9.4501 10.5732 9.54526 10.5732 9.64026C10.5734 9.73492 10.6629 9.7351 10.6631 9.82971C10.6631 9.92471 10.7529 9.92514 10.7529 10.0201C10.842 10.0204 10.8418 10.1148 10.8418 10.2096V10.4C10.9313 10.685 10.9313 10.9705 10.8418 11.2555V11.4449C10.8384 11.4486 10.7529 11.5423 10.7529 11.6354C10.7527 11.7182 10.6841 11.7286 10.667 11.7936L10.6592 11.8561C10.6422 11.9214 10.5732 11.932 10.5732 12.0153C10.4841 12.1101 10.4839 12.2055 10.3945 12.3004H10.6904C10.2167 13.1819 9.9473 14.1896 9.94727 15.2604C9.94727 15.8786 10.0382 16.4756 10.2051 17.0397C9.93777 17.0137 9.71883 16.9374 9.5 16.86C9.23163 16.955 8.96326 17.0504 8.60547 17.0504H3.2373C1.9848 17.0504 1.00019 16.0052 1 14.6754C1 13.9155 1.35775 13.25 1.89453 12.775C1.35775 12.3 1 11.6346 1 10.8746C1.00012 10.1149 1.3579 9.45013 1.89453 8.97522C1.3577 8.50022 1 7.83482 1 7.07483C1.00006 6.31506 1.35791 5.65036 1.89453 5.17542C1.35769 4.70042 1 4.03502 1 3.27502C1 1.94502 1.98467 0.900024 3.2373 0.900024H8.60547ZM3.2373 13.2496C2.52152 13.2496 1.89453 13.9154 1.89453 14.6754C1.89475 15.4353 2.52164 16.1002 3.2373 16.1002H8.78418C8.96306 16.1002 9.23121 16.0048 9.41016 15.9098C9.49963 15.8148 9.50037 15.8153 9.58984 15.7203C9.6793 15.6254 9.67909 15.6249 9.76855 15.5299C9.76863 15.4352 9.85715 15.435 9.85742 15.3405V15.2448C9.94681 15.1498 9.94727 15.15 9.94727 15.0553V14.8649C9.94717 14.8605 9.94302 14.7681 9.76855 14.6754V14.1998C9.76843 14.1051 9.67893 14.105 9.67871 14.0104V13.9147C9.58918 13.7248 9.41027 13.535 9.23145 13.4401C9.05257 13.3451 8.87373 13.2497 8.60547 13.2496H3.2373ZM3.2373 9.44983C2.52164 9.44983 1.89475 10.1148 1.89453 10.8746C1.89453 11.6346 2.52152 12.3004 3.2373 12.3004H8.78418C8.96304 12.3004 9.23121 12.2049 9.41016 12.11C9.49963 12.015 9.50037 12.0146 9.58984 11.9196C9.67891 11.825 9.67922 11.825 9.76855 11.7301C9.76855 11.6351 9.85742 11.6347 9.85742 11.5397V11.4449C9.94675 11.3501 9.94727 11.35 9.94727 11.2555V11.0651C9.94727 11.0651 9.9475 10.9696 9.76855 10.8746V10.4C9.76855 10.305 9.67871 10.3046 9.67871 10.2096V10.1149C9.5892 9.92494 9.41032 9.73522 9.23145 9.64026C9.05255 9.54528 8.87377 9.44988 8.60547 9.44983H3.2373ZM3.2373 5.65002C2.52158 5.65002 1.89464 6.31491 1.89453 7.07483C1.89453 7.83483 2.52152 8.49963 3.2373 8.49963H8.78418C8.96301 8.49963 9.23121 8.40512 9.41016 8.31018C9.49963 8.21518 9.50037 8.21475 9.58984 8.11975C9.67898 8.02511 9.67926 8.02511 9.76855 7.9303C9.76855 7.8353 9.85742 7.83487 9.85742 7.73987V7.64514C9.9469 7.55014 9.94727 7.54971 9.94727 7.45471V7.26526C9.94727 7.26526 9.9469 7.16983 9.85742 7.07483V6.60022C9.85742 6.50522 9.76855 6.50479 9.76855 6.40979V6.31506C9.67908 6.12507 9.49986 5.93546 9.23145 5.84045C9.05254 5.74548 8.87378 5.65007 8.60547 5.65002H3.2373ZM10.3945 5.5553C10.484 5.65028 10.5732 5.74547 10.5732 5.84045C10.5735 5.92324 10.6421 5.93371 10.6592 5.99866L10.667 6.06116C10.6839 6.12644 10.7529 6.13705 10.7529 6.22034C10.842 6.22055 10.8418 6.31497 10.8418 6.40979V7.55042C10.8358 7.55688 10.753 7.64833 10.7529 7.73987C10.7529 7.83487 10.6631 7.8353 10.6631 7.9303C10.6629 8.02493 10.5734 8.02511 10.5732 8.11975C10.4838 8.21473 10.484 8.30993 10.3945 8.40491H15.7627C16.4785 8.40491 17.1054 7.74007 17.1055 6.9801C17.1055 6.2201 16.4785 5.5553 15.7627 5.5553H10.3945ZM3.2373 1.85022C2.52152 1.85022 1.89453 2.51502 1.89453 3.27502C1.89453 4.03502 2.52152 4.69983 3.2373 4.69983H8.60547C9.32117 4.6997 9.94727 4.03495 9.94727 3.27502C9.94727 2.5151 9.32117 1.85035 8.60547 1.85022H3.2373Z" fill="#272726"/>
<path d="M16 15.5069C16.3093 15.5069 16.5605 15.7391 16.5605 16.0254V19.4815C16.5605 19.7678 16.3093 20 16 20C15.6909 19.9998 15.4404 19.7677 15.4404 19.4815V16.0254C15.4404 15.7392 15.6909 15.5071 16 15.5069Z" fill="#272726"/>
<path d="M16 12.6397C16.3091 12.6397 16.5603 12.8902 16.5605 13.1992C16.5605 13.5085 16.3093 13.7598 16 13.7598C15.6909 13.7596 15.4404 13.5084 15.4404 13.1992C15.4407 12.8903 15.6911 12.6399 16 12.6397Z" fill="#272726"/>
<path fill-rule="evenodd" clip-rule="evenodd" d="M16 9.00003C19.866 9.00003 23 12.134 23 16C23 19.866 19.866 23 16 23C12.134 23 9 19.866 9 16C9 12.134 12.134 9.00003 16 9.00003ZM16 10.1201C12.7526 10.1201 10.1201 12.7526 10.1201 16C10.1201 19.2475 12.7526 21.8799 16 21.8799C19.2474 21.8799 21.8799 19.2475 21.8799 16C21.8799 12.7526 19.2474 10.1201 16 10.1201Z" fill="#272726"/>
</svg>
