<svg width="24" height="24" viewBox="0 0 24 24" fill="none" xmlns="http://www.w3.org/2000/svg">
<path d="M22 19.2H19V18.2L22 18.2C22.5523 18.2 23 18.6477 23 19.2V21.2C23 21.7523 22.5523 22.2 22 22.2L2 22.2L1.89746 22.1951C1.39333 22.1438 1 21.7177 1 21.2L1 19.2L1.00488 19.0975C1.05278 18.627 1.42703 18.2528 1.89746 18.2049L2 18.2H5L5 19.2H2L2 21.2L22 21.2V19.2Z" fill="#272726"/>
<path d="M19 22.1914L19 6C19 4.3 17.7 3 16 3L8 3C6.3 3 5 4.3 5 6L5 22.1914C6.46318 22.1914 6.3 22.1914 8 22.1914H16.112C17.812 22.1914 17.4169 22.1914 19 22.1914ZM11 8C11 7.4 11.4 7 12 7C12.6 7 13 7.4 13 8C13 8.6 12.6 9 12 9C11.4 9 11 8.6 11 8ZM11.4 16.9C9.8 16.6 8.7 15 9 13.4C9.3 11.8 10.9 10.7 12.5 11C13.7 11.2 14.6 12.2 14.9 13.4C15.2 15 14.2 16.6 12.5 16.9C12.2 17 11.8 17 11.4 16.9ZM11 20C11 19.4 11.4 19 12 19C12.6 19 13 19.4 13 20C13 20.6 12.6 21 12 21C11.4 21 11 20.6 11 20Z" fill="#272726"/>
</svg>
