<svg width="24" height="24" viewBox="0 0 24 24" fill="none" xmlns="http://www.w3.org/2000/svg">
<path d="M22 19.2H19V18.2H22C22.5523 18.2 23 18.6477 23 19.2V21.2C23 21.7522 22.5523 22.2 22 22.2H2L1.89746 22.1951C1.39333 22.1437 1 21.7176 1 21.2L1 19.2L1.00488 19.0974C1.05278 18.627 1.42703 18.2527 1.89746 18.2048L2 18.2H5L5 19.2H2L2 21.2H22V19.2Z" fill="#272726"/>
<path d="M5 6.24585C5.00183 4.45422 6.34387 3.00174 8 2.99976L16 2.99976C17.6561 3.00174 18.9982 4.45422 19 6.24585L19 21.2L18 21.2L18 6.24585C17.9986 5.05152 17.104 4.08331 16 4.08179L8 4.08179C6.896 4.08331 6.00141 5.05152 6 6.24585L6 21.2H5L5 6.24585Z" fill="#272726"/>
<path fill-rule="evenodd" clip-rule="evenodd" d="M12 10.032C11.1716 10.032 10.5 9.30515 10.5 8.40894C10.5002 7.51287 11.1717 6.78687 12 6.78687C12.828 6.78786 13.4989 7.51327 13.5 8.40894C13.5 9.30515 12.8284 10.032 12 10.032ZM12 8.94995C12.2761 8.94995 12.5 8.70765 12.5 8.40894C12.4998 8.11037 12.276 7.86792 12 7.86792C11.7242 7.86851 11.5007 8.11057 11.5 8.40894C11.5 8.70765 11.7239 8.94995 12 8.94995Z" fill="#272726"/>
<path fill-rule="evenodd" clip-rule="evenodd" d="M12 17.6042C10.6193 17.6042 9.5 16.3939 9.5 14.9001C9.50001 13.4064 10.6193 12.196 12 12.196C13.3802 12.1974 14.4987 13.407 14.5 14.9001C14.5 16.3939 13.3807 17.6042 12 17.6042ZM12 16.5232C12.8284 16.5232 13.5 15.7964 13.5 14.9001C13.5 14.0039 12.8284 13.2771 12 13.2771C11.1719 13.2781 10.5009 14.0043 10.5 14.9001C10.5 15.7964 11.1716 16.5232 12 16.5232Z" fill="#272726"/>
<path d="M10.5117 21.2C10.5992 20.3939 11.2314 19.7683 12 19.7683C12.7683 19.7692 13.4001 20.3943 13.4883 21.2H12.4668C12.3953 20.9957 12.2138 20.8503 12 20.8503C11.7865 20.8508 11.6059 20.9961 11.5342 21.2H10.5117Z" fill="#272726"/>
</svg>
