<svg width="24" height="24" viewBox="0 0 24 24" fill="none" xmlns="http://www.w3.org/2000/svg">
<path d="M18.5977 17.7031C17.4283 19.403 15.5175 20.4423 13.4551 20.5C10.3645 20.5 7.70258 18.0612 6.81128 14.5H13C13.2761 14.5 13.5 14.2761 13.5 14C13.5 13.7239 13.2761 13.5 13 13.5H6.62061C6.4743 12.5046 6.4743 11.4954 6.62061 10.5H13C13.2761 10.5 13.5 10.2761 13.5 10C13.5 9.72388 13.2761 9.5 13 9.5H6.81128C7.70258 5.93884 10.3645 3.5 13.4551 3.5C15.5175 3.55774 17.4283 4.59698 18.5977 6.29688C18.7616 6.5191 19.0746 6.56628 19.2969 6.40234C19.5191 6.2384 19.5663 5.92535 19.4023 5.70312C18.046 3.74609 15.8356 2.5556 13.4551 2.5C9.82593 2.5 6.72595 5.35962 5.78735 9.5H3C2.72388 9.5 2.5 9.72388 2.5 10C2.5 10.2761 2.72388 10.5 3 10.5H5.61206C5.47858 11.4963 5.47858 12.5037 5.61206 13.5H3C2.72388 13.5 2.5 13.7239 2.5 14C2.5 14.2761 2.72388 14.5 3 14.5H5.78735C6.72589 18.6404 9.82599 21.5 13.4551 21.5C15.8356 21.4444 18.046 20.2539 19.4023 18.2969C19.5663 18.0746 19.5191 17.7616 19.2969 17.5977C19.0746 17.4337 18.7616 17.4809 18.5977 17.7031Z" fill="#272726"/>
</svg>
