<svg width="24" height="24" viewBox="0 0 24 24" fill="none" xmlns="http://www.w3.org/2000/svg">
<path d="M12 12.5C10.6193 12.5 9.5 13.6193 9.5 15C9.5 16.3807 10.6193 17.5 12 17.5C13.3801 17.4985 14.4985 16.3801 14.5 15C14.5 13.6193 13.3807 12.5 12 12.5ZM12 16.5C11.1716 16.5 10.5 15.8284 10.5 15C10.5 14.1716 11.1716 13.5 12 13.5C12.8281 13.5009 13.4991 14.1719 13.5 15C13.5 15.8284 12.8284 16.5 12 16.5ZM9.60352 5.60352L11.5 3.70697V9.5C11.5 9.49982 11.5 9.50018 11.5 9.5C11.5002 9.776 11.724 10.0002 12 10C11.9998 10 12.0002 10 12 10C12.2759 9.99982 12.5002 9.776 12.5 9.5V3.70697L14.3965 5.60352C14.4901 5.69745 14.6174 5.75018 14.75 5.75C14.8825 5.75 15.0096 5.69733 15.1034 5.60364C15.2987 5.40839 15.2988 5.0918 15.1035 4.89655L12.3539 2.14697C12.3077 2.10065 12.2523 2.06396 12.1909 2.03857C12.1329 2.01465 12.0715 2.00317 12.0097 2.00195C12.0063 2.00189 12.0034 2 12 2C11.9976 2 11.9956 2.00128 11.9932 2.00134C11.9305 2.0022 11.8679 2.01422 11.809 2.03857C11.7476 2.06396 11.6923 2.10065 11.6461 2.14697L8.89655 4.89655C8.70935 5.09027 8.70935 5.39746 8.89655 5.59125C9.08838 5.78986 9.40491 5.79535 9.60352 5.60352ZM4.5 15C4.5 15.8284 5.17157 16.5 6 16.5C6.82806 16.4991 7.49908 15.8281 7.5 15C7.5 14.1716 6.82843 13.5 6 13.5C5.17157 13.5 4.5 14.1716 4.5 15ZM6.5 15C6.5 15.2761 6.27612 15.5 6 15.5C5.72388 15.5 5.5 15.2761 5.5 15C5.5 14.7239 5.72388 14.5 6 14.5C6.276 14.5004 6.49963 14.724 6.5 15ZM19.5 15C19.5 14.1716 18.8284 13.5 18 13.5C17.1716 13.5 16.5 14.1716 16.5 15C16.5 15.8284 17.1716 16.5 18 16.5C18.8281 16.4991 19.4991 15.8281 19.5 15ZM17.5 15C17.5 14.7239 17.7239 14.5 18 14.5C18.2759 14.5005 18.4995 14.7241 18.5 15C18.5 15.2761 18.2761 15.5 18 15.5C17.7239 15.5 17.5 15.2761 17.5 15ZM20 8H15C14.7239 8 14.5 8.22388 14.5 8.5C14.5 8.77612 14.7239 9 15 9H20C21.104 9.0014 21.9986 9.896 22 11V19C21.9986 20.104 21.104 20.9986 20 21H4C2.89594 20.9987 2.00128 20.1041 2 19V11C2.00128 9.89594 2.89594 9.00128 4 9H9C9.27612 9 9.5 8.77612 9.5 8.5C9.5 8.22388 9.27612 8 9 8H4C2.34387 8.00183 1.00183 9.34387 1 11V19C1.00183 20.6561 2.34387 21.9982 4 22H20C21.6561 21.9982 22.9982 20.6561 23 19V11C22.9982 9.34387 21.6561 8.00183 20 8Z" fill="#272726"/>
</svg>
