<svg width="24" height="24" viewBox="0 0 24 24" fill="none" xmlns="http://www.w3.org/2000/svg">
<path d="M19.8748 17.4843C19.8748 16.1639 18.8044 15.0936 17.4841 15.0936C16.1638 15.0936 15.0935 16.1639 15.0935 17.4843C15.0935 18.8046 16.1638 19.8749 17.4841 19.8749C18.8044 19.8749 19.8748 18.8046 19.8748 17.4843ZM19.1958 4.00842C19.4155 3.78875 19.7715 3.78875 19.9912 4.00842C20.2109 4.22809 20.2109 4.58416 19.9912 4.80383L4.80371 19.9913C4.58404 20.211 4.22797 20.211 4.0083 19.9913C3.78863 19.7717 3.78863 19.4156 4.0083 19.1959L19.1958 4.00842ZM8.90601 6.5155C8.90601 5.1952 7.83569 4.12488 6.51538 4.12488C5.19508 4.12488 4.12476 5.1952 4.12476 6.5155C4.12476 7.83581 5.19508 8.90613 6.51538 8.90613C7.83569 8.90613 8.90601 7.83581 8.90601 6.5155ZM20.9998 17.4843C20.9998 19.4259 19.4258 20.9999 17.4841 20.9999C15.5425 20.9999 13.9685 19.4259 13.9685 17.4843C13.9685 15.5426 15.5425 13.9686 17.4841 13.9686C19.4258 13.9686 20.9998 15.5426 20.9998 17.4843ZM10.031 6.5155C10.031 8.45713 8.45701 10.0311 6.51538 10.0311C4.57375 10.0311 2.99976 8.45713 2.99976 6.5155C2.99976 4.57388 4.57375 2.99988 6.51538 2.99988C8.45701 2.99988 10.031 4.57388 10.031 6.5155Z" fill="#272726"/>
</svg>
