<svg width="24" height="24" viewBox="0 0 24 24" fill="none" xmlns="http://www.w3.org/2000/svg">
<path d="M23 12H20V3.00001C20 2.60001 19.8 2.30001 19.5 2.10001C19.2 1.90001 18.8 1.90001 18.5 2.10001L15.5 3.80001L12.5 2.10001C12.2 1.90001 11.8 1.90001 11.5 2.10001L8.5 3.80001L5.5 2.10001C5.2 1.90001 4.8 1.90001 4.5 2.10001C4.2 2.30001 4 2.60001 4 3.00001V19C4 20.7 5.3 22 7 22H21C22.7 22 24 20.7 24 19V13C24 12.5 23.5 12 23 12ZM11 18H9C8.4 18 8 17.6 8 17C8 16.4 8.4 16 9 16H11C11.6 16 12 16.4 12 17C12 17.6 11.5 18 11 18ZM11 14H9C8.4 14 8 13.6 8 13C8 12.4 8.4 12 9 12H11C11.6 12 12 12.4 12 13C12 13.6 11.5 14 11 14ZM10 10C9.4 10 9 9.60001 9 9.00001C9 8.40001 9.4 8.00001 10 8.00001H14C14.6 8.00001 15 8.40001 15 9.00001C15 9.60001 14.6 10 14 10H10ZM15 18C14.4 18 14 17.6 14 17C14 16.4 14.4 16 15 16C15.6 16 16 16.4 16 17C16 17.6 15.5 18 15 18ZM15 14C14.4 14 14 13.6 14 13C14 12.4 14.4 12 15 12C15.6 12 16 12.4 16 13C16 13.6 15.5 14 15 14ZM22 19C22 19.6 21.6 20 21 20C20.4 20 20 19.6 20 19V14H22V19Z" fill="#272726"/>
</svg>
