<svg width="24" height="24" viewBox="0 0 24 24" fill="none" xmlns="http://www.w3.org/2000/svg">
<path d="M9.5 12H6.5C6.22388 12 6 12.2239 6 12.5C6 12.7761 6.22388 13 6.5 13H9.5C9.77612 13 10 12.7761 10 12.5C10 12.2239 9.77612 12 9.5 12ZM11.5 8H7.5C7.22388 8 7 8.22387 7 8.5C7 8.77612 7.22388 9 7.5 9H11.5C11.7761 9 12 8.77612 12 8.5C12 8.22387 11.7761 8 11.5 8ZM9.5 16H6.5C6.22388 16 6 16.2239 6 16.5C6 16.7761 6.22388 17 6.5 17H9.5C9.77612 17 10 16.7761 10 16.5C10 16.2239 9.77612 16 9.5 16ZM21.5 12H17V2.5C17.0001 2.41247 16.9771 2.32647 16.9335 2.25061C16.7959 2.01129 16.4904 1.92883 16.251 2.0664L13 3.92968L9.74902 2.0664C9.5946 1.97851 9.4054 1.97851 9.25098 2.0664L6 3.92968L2.74902 2.0664C2.67316 2.02276 2.58716 1.99987 2.49963 1.99987C2.22357 2.00006 1.99988 2.22393 2 2.5V19.5C2.00128 20.8802 3.11981 21.9987 4.5 22H18.5C18.5594 22 18.6147 21.9852 18.6676 21.9662C18.7782 21.9786 18.8861 21.9999 19 22C20.6561 21.9982 21.9982 20.6561 22 19V12.5C22 12.4998 22 12.5002 22 12.5C21.9998 12.2241 21.776 11.9998 21.5 12ZM4.5 21C3.67194 20.9991 3.00092 20.3281 3 19.5V3.3623L5.74121 4.93359C5.90253 5.02148 6.09747 5.02148 6.25879 4.93359L9.5 3.07617L12.7412 4.93359C12.9025 5.02148 13.0975 5.02148 13.2588 4.93359L16 3.3623V12.5V19C16.0009 19.7719 16.3011 20.4684 16.7803 21H4.5ZM21 19C21 20.1045 20.1046 21 19 21C17.8954 21 17 20.1045 17 19V13H21V19ZM13.5 12C13.2239 12 13 12.2239 13 12.5C13 12.7761 13.2239 13 13.5 13C13.7761 13 14 12.7761 14 12.5C14 12.2239 13.7761 12 13.5 12ZM13.5 16C13.2239 16 13 16.2239 13 16.5C13 16.7761 13.2239 17 13.5 17C13.7761 17 14 16.7761 14 16.5C14 16.2239 13.7761 16 13.5 16Z" fill="#272726"/>
</svg>
