<svg width="24" height="24" viewBox="0 0 24 24" fill="none" xmlns="http://www.w3.org/2000/svg">
<path d="M21.6729 4.53125L12.1729 1.03125C12.0613 0.990234 11.9387 0.990234 11.8271 1.03125L2.32715 4.53125C2.13055 4.60345 1.99994 4.79059 2 5V8.5C1.99982 8.776 2.22345 8.99982 2.49939 9C2.49921 9 2.49963 9 2.49939 9H4V17.0505C2.83679 17.2894 2.00134 18.3125 2 19.5V21.5C1.99982 21.776 2.22345 21.9998 2.49939 22C2.49921 22 2.49963 22 2.49939 22H21.5C21.776 22.0002 21.9998 21.7766 22 21.5005C22 21.5007 22 21.5004 22 21.5005V19.5C21.9987 18.3125 21.1632 17.2894 20 17.0505V9H21.5C21.776 9.00018 21.9998 8.77655 22 8.50055C22 8.50073 22 8.50037 22 8.50055V5C22.0001 4.79059 21.8694 4.60345 21.6729 4.53125ZM21 19.5V21H3V19.5C3.00092 18.6719 3.67194 18.0009 4.5 18H19.5C20.3281 18.0009 20.9991 18.6719 21 19.5ZM5 17V9H8V17H5ZM9 17V9H15V17H9ZM16 17V9H19V17H16ZM21 8H3V5.34863L12 2.0332L21 5.34863V8Z" fill="#272726"/>
</svg>
