<svg width="24" height="24" viewBox="0 0 24 24" fill="none" xmlns="http://www.w3.org/2000/svg">
<path d="M17.3525 6.99988V3.953C17.3525 3.42009 16.9216 2.98917 16.3887 2.98914H7.61133C7.07843 2.98921 6.64753 3.42011 6.64746 3.953V20.0468C6.64746 20.5797 7.07839 21.0105 7.61133 21.0106H16.3887C16.9216 21.0106 17.3525 20.5797 17.3525 20.0468V16.9999C17.3526 16.7238 17.5765 16.4999 17.8525 16.4999C18.1286 16.4999 18.3525 16.7238 18.3525 16.9999V20.0468C18.3525 21.132 17.4739 22.0106 16.3887 22.0106H7.61133C6.5261 22.0105 5.64746 21.132 5.64746 20.0468V3.953C5.64753 2.86782 6.52615 1.98921 7.61133 1.98914H16.3887C17.4739 1.98917 18.3525 2.8678 18.3525 3.953V6.99988C18.3525 7.27602 18.1287 7.49988 17.8525 7.49988C17.5764 7.49984 17.3525 7.276 17.3525 6.99988Z" fill="#272726"/>
<path d="M17.8525 4.91714C18.1287 4.91714 18.3525 5.14099 18.3525 5.41714C18.3525 5.69328 18.1287 5.91714 17.8525 5.91714H6.14746C5.87132 5.91714 5.64746 5.69328 5.64746 5.41714C5.64746 5.14099 5.87132 4.91714 6.14746 4.91714H17.8525Z" fill="#272726"/>
<path d="M17.8525 18.0828C18.1287 18.0828 18.3525 18.3067 18.3525 18.5828C18.3525 18.859 18.1287 19.0828 17.8525 19.0828H6.14746C5.87132 19.0828 5.64746 18.859 5.64746 18.5828C5.64746 18.3067 5.87132 18.0828 6.14746 18.0828H17.8525Z" fill="#272726"/>
<path d="M18.1338 14.5L18.1338 15.5H13L13 14.5H18.1338ZM19.1338 13.5V10.5C19.1338 9.94787 18.6859 9.50025 18.1338 9.5H13C12.4477 9.5 12 9.94772 12 10.5V13.5C12 14.0523 12.4477 14.5 13 14.5L13 15.5C11.8955 15.5 11 14.6046 11 13.5V10.5C11 9.39543 11.8954 8.5 13 8.5H18.1338L18.3379 8.51074C19.3463 8.61321 20.1338 9.4645 20.1338 10.5V13.5L20.123 13.7041C20.0276 14.6455 19.2793 15.3936 18.3379 15.4893L18.1338 15.5L18.1338 14.5C18.6859 14.4998 19.1338 14.0521 19.1338 13.5Z" fill="#272726"/>
<path d="M20 10.5V11.5H12V10.5L20 10.5Z" fill="#272726"/>
<path d="M14 12C14.2761 12 14.5 12.2239 14.5 12.5C14.5 12.7761 14.2761 13 14 13H13.4004C13.1242 13 12.9004 12.7761 12.9004 12.5C12.9004 12.2239 13.1242 12 13.4004 12H14Z" fill="#272726"/>
</svg>
