<svg width="24" height="24" viewBox="0 0 24 24" fill="none" xmlns="http://www.w3.org/2000/svg">
<path d="M19.9202 8.33826C19.9201 8.27338 19.8968 8.21821 19.8557 8.1781L19.8508 8.17419C19.8051 8.12853 19.7463 8.10486 19.6868 8.10486H5.04321C4.70298 8.10484 4.37156 8.01454 4.07935 7.84998V17.8558C4.07935 18.1109 4.18142 18.3572 4.36157 18.5375C4.5418 18.7177 4.78808 18.8197 5.04321 18.8197H19.6868C19.7464 18.8197 19.8051 18.7961 19.8508 18.7504C19.8965 18.7047 19.9202 18.6459 19.9202 18.5863V8.33826ZM20.9202 18.5863C20.9202 18.9176 20.7864 19.2288 20.5579 19.4574C20.3293 19.686 20.018 19.8197 19.6868 19.8197H5.04321C4.52373 19.8197 4.02279 19.6136 3.65454 19.2455C3.28623 18.8772 3.07935 18.3755 3.07935 17.8558V6.14099C3.08016 5.62241 3.28695 5.12284 3.65454 4.75525C4.02282 4.38697 4.52359 4.18009 5.04321 4.18005H17.4895L17.5901 4.18982C17.8178 4.23651 17.9895 4.43849 17.9895 4.68005C17.9895 4.92162 17.8178 5.1236 17.5901 5.17029L17.4895 5.18005H5.04321C4.78808 5.18009 4.5418 5.28205 4.36157 5.46228C4.18134 5.64251 4.07938 5.88879 4.07935 6.14392C4.08022 6.39793 4.18209 6.64315 4.36157 6.82263C4.54179 7.00279 4.78813 7.10482 5.04321 7.10486H19.6868C20.0157 7.10486 20.3248 7.23668 20.553 7.46228C20.793 7.69642 20.9201 8.01234 20.9202 8.33826V18.5863Z" fill="#272726"/>
<path d="M16.3919 14.3795C16.8959 14.3795 17.3073 13.9715 17.3073 13.4641C17.3073 12.9566 16.8959 12.5486 16.3919 12.5486C15.8879 12.5486 15.4765 12.9601 15.4765 13.4641C15.4765 13.9681 15.8879 14.3795 16.3919 14.3795Z" fill="#272726"/>
</svg>
