<svg width="24" height="24" viewBox="0 0 24 24" fill="none" xmlns="http://www.w3.org/2000/svg">
<path d="M19.9726 17.3514L17.1975 12.55C17.7609 11.6048 18.0909 10.5044 18.0922 9.32432C18.0922 5.8315 15.2607 3 11.7679 3C8.27508 3 5.44358 5.8315 5.44358 9.32432C5.44358 10.5051 5.77317 11.6064 6.33656 12.5522L3.56272 17.3514C3.4781 17.5017 3.47916 17.6856 3.56557 17.835C3.65299 17.9852 3.81273 18.0785 3.98649 18.0811L7.05221 18.1257L8.61572 20.753C8.64179 20.7943 8.67291 20.8324 8.70836 20.866C8.79892 20.952 8.91894 20.9999 9.04377 21C9.06699 20.9998 9.09015 20.9982 9.11313 20.9952C9.26076 20.9737 9.3904 20.8859 9.46517 20.7568L11.7692 16.7703L14.0711 20.7568C14.1487 20.887 14.2825 20.9738 14.4331 20.9914C14.4531 20.9933 14.473 20.9952 14.4939 20.9952C14.626 20.9945 14.7523 20.9415 14.8455 20.848C14.8739 20.8193 14.8988 20.7875 14.9196 20.753L16.4836 18.1257L19.5517 18.0811C19.637 18.081 19.7207 18.0585 19.7946 18.0159C20.0272 17.8815 20.1069 17.584 19.9726 17.3514ZM9.03522 19.5548L7.74916 17.3941C7.6627 17.249 7.50717 17.1591 7.33822 17.1566L4.82027 17.1205L6.95702 13.4234C8.02335 14.6735 9.56678 15.4995 11.3066 15.6254L9.03522 19.5548ZM16.1976 17.1566C16.0285 17.1591 15.8728 17.2489 15.7862 17.3941L14.5006 19.5548L12.3314 15.7977L12.4389 15.6115C14.093 15.4352 15.5541 14.6206 16.5775 13.4204L18.7155 17.1205L16.1976 17.1566Z" fill="#272726"/>
</svg>
