<svg width="24" height="24" viewBox="0 0 24 24" fill="none" xmlns="http://www.w3.org/2000/svg">
<path d="M20.4326 17.5L17.5805 12.5653C18.1594 11.5938 18.4986 10.4628 18.5 9.25C18.5 5.66016 15.5899 2.75 12 2.75C8.41016 2.75 5.50001 5.66016 5.50001 9.25C5.50001 10.4636 5.83875 11.5955 6.41779 12.5676L3.5669 17.5C3.47993 17.6545 3.48103 17.8436 3.56983 17.9971C3.65968 18.1514 3.82386 18.2474 4.00245 18.25L7.15333 18.2959L8.76026 20.9961C8.78706 21.0386 8.81904 21.0777 8.85548 21.1123C8.94856 21.2006 9.07191 21.2499 9.2002 21.25C9.22407 21.2498 9.24787 21.2482 9.27149 21.2451C9.42323 21.223 9.55647 21.1327 9.63331 21L12.0014 16.9028L14.3672 21C14.447 21.1339 14.5845 21.223 14.7393 21.2412C14.7598 21.2431 14.7803 21.2451 14.8018 21.2451C14.9374 21.2443 15.0673 21.1899 15.1631 21.0938C15.1923 21.0643 15.2178 21.0316 15.2393 20.9961L16.8467 18.2959L20 18.25C20.0877 18.2499 20.1737 18.2268 20.2496 18.183C20.4888 18.0449 20.5707 17.7391 20.4326 17.5ZM9.19141 19.7646L7.86964 17.5439C7.78077 17.3948 7.62092 17.3024 7.44727 17.2998L4.85938 17.2627L7.05549 13.4629C8.15144 14.7478 9.73774 15.5967 11.5259 15.7261L9.19141 19.7646ZM12 14.75C10.075 14.75 8.38355 13.7593 7.40083 12.2617C7.39967 12.2603 7.39912 12.2585 7.39796 12.257C6.83192 11.3924 6.50001 10.3605 6.50001 9.25C6.50001 6.21246 8.96247 3.75 12 3.75C15.0361 3.7536 17.4964 6.21393 17.5 9.25C17.5 10.3611 17.1679 11.3934 16.6013 12.2582C16.6013 12.2582 16.6014 12.2581 16.6013 12.2582C15.619 13.7576 13.9264 14.75 12 14.75ZM16.5527 17.2998C16.379 17.3024 16.2189 17.3947 16.1299 17.5439L14.8086 19.7646L12.5791 15.9032L12.6896 15.7119C14.3897 15.5306 15.8914 14.6934 16.9432 13.4599L19.1406 17.2627L16.5527 17.2998Z" fill="#272726"/>
</svg>
