<svg width="24" height="24" viewBox="0 0 24 24" fill="none" xmlns="http://www.w3.org/2000/svg">
<path d="M6.17647 19.4667V4.53333C6.17647 4.23878 6.4135 4 6.70588 4C6.99827 4 7.23529 4.23878 7.23529 4.53333V19.4667C7.23529 19.7612 6.99827 20 6.70588 20C6.4135 20 6.17647 19.7612 6.17647 19.4667ZM8.29412 19.4667V4.53333C8.29412 4.23878 8.53114 4 8.82353 4C9.11592 4 9.35294 4.23878 9.35294 4.53333V19.4667C9.35294 19.7612 9.11592 20 8.82353 20C8.53114 20 8.29412 19.7612 8.29412 19.4667ZM16.7647 19.4667V4.53333C16.7647 4.23878 17.0017 4 17.2941 4C17.5865 4 17.8235 4.23878 17.8235 4.53333V19.4667C17.8235 19.7612 17.5865 20 17.2941 20C17.0017 20 16.7647 19.7612 16.7647 19.4667ZM19.9412 19.4667V4.53333C19.9412 4.23878 20.1782 4 20.4706 4C20.763 4 21 4.23878 21 4.53333V19.4667C21 19.7612 20.763 20 20.4706 20C20.1782 20 19.9412 19.7612 19.9412 19.4667ZM11.4706 17.3333V4.53333C11.4706 4.23878 11.7076 4 12 4C12.2924 4 12.5294 4.23878 12.5294 4.53333V17.3333C12.5294 17.6279 12.2924 17.8667 12 17.8667C11.7076 17.8667 11.4706 17.6279 11.4706 17.3333ZM13.5882 17.3333V4.53333C13.5882 4.23878 13.8253 4 14.1176 4C14.41 4 14.6471 4.23878 14.6471 4.53333V17.3333C14.6471 17.6279 14.41 17.8667 14.1176 17.8667C13.8253 17.8667 13.5882 17.6279 13.5882 17.3333ZM3 16.8V4.53333C3 4.23878 3.23703 4 3.52941 4C3.8218 4 4.05882 4.23878 4.05882 4.53333V16.8C4.05882 17.0946 3.8218 17.3333 3.52941 17.3333C3.23703 17.3333 3 17.0946 3 16.8Z" fill="#272726"/>
</svg>
