<svg width="24" height="24" viewBox="0 0 24 24" fill="none" xmlns="http://www.w3.org/2000/svg">
<path d="M20.4897 7.28729C20.4848 7.22498 20.4688 7.16663 20.4415 7.11023C20.4332 7.09326 20.4291 7.07617 20.419 7.06024C20.3798 6.99805 20.3303 6.94177 20.2637 6.90039L12.2637 1.94141C12.102 1.8418 11.898 1.8418 11.7363 1.94141L3.73633 6.90039C3.72272 6.90881 3.71552 6.92426 3.70282 6.9339C3.66656 6.96143 3.63586 6.99225 3.60834 7.0285C3.59863 7.04126 3.58319 7.04852 3.57471 7.06219C3.56775 7.07349 3.56744 7.08643 3.56146 7.09802C3.5462 7.1272 3.53668 7.15765 3.5274 7.18982C3.51794 7.22302 3.50977 7.25494 3.50739 7.28876C3.50641 7.30145 3.5 7.31226 3.5 7.3252V16.6748C3.49994 16.8478 3.58936 17.0084 3.73633 17.0996L11.7363 22.0586C11.7399 22.0609 11.7447 22.0599 11.7484 22.062C11.7519 22.0641 11.7532 22.0683 11.7568 22.0703C11.831 22.1122 11.9148 22.134 12 22.1338C12.0852 22.134 12.169 22.1122 12.2432 22.0703C12.2468 22.0683 12.2481 22.0641 12.2516 22.062C12.2553 22.0599 12.2601 22.0609 12.2637 22.0586L20.2637 17.0996C20.4105 17.0083 20.4999 16.8477 20.5 16.6748V7.3252C20.5 7.31165 20.4908 7.30066 20.4897 7.28729ZM11.5 20.7354L4.5 16.3965V8.22363L11.5 12.5615V20.7354ZM12 11.6953L11.5945 11.444L4.94922 7.3252L12 2.9541L19.0508 7.3252L13.8687 10.537L12 11.6953ZM19.5 16.3965L12.5 20.7354V12.5615L19.5 8.22363V16.3965Z" fill="#272726"/>
</svg>
