<svg width="24" height="24" viewBox="0 0 24 24" fill="none" xmlns="http://www.w3.org/2000/svg">
<path d="M13.5 11H15.5C15.8 11 16 10.8 16 10.5C16 10.2 15.8 10 15.5 10H13.5C13.2 10 13 10.2 13 10.5C13 10.8 13.2 11 13.5 11ZM21.5 21H20V2.5C20 2.2 19.8 2 19.5 2H4.5C4.2 2 4 2.2 4 2.5V21H2.5C2.2 21 2 21.2 2 21.5C2 21.8 2.2 22 2.5 22H4.5H14.5H19.5H21.5C21.8 22 22 21.8 22 21.5C22 21.2 21.8 21 21.5 21ZM14 21H10V15H14V21ZM19 21H15V14.5C15 14.2 14.8 14 14.5 14H9.5C9.2 14 9 14.2 9 14.5V21H5V3H19V21ZM13.5 7H15.5C15.8 7 16 6.8 16 6.5C16 6.2 15.8 6 15.5 6H13.5C13.2 6 13 6.2 13 6.5C13 6.8 13.2 7 13.5 7ZM8.5 11H10.5C10.8 11 11 10.8 11 10.5C11 10.2 10.8 10 10.5 10H8.5C8.2 10 8 10.2 8 10.5C8 10.8 8.2 11 8.5 11ZM8.5 7H10.5C10.8 7 11 6.8 11 6.5C11 6.2 10.8 6 10.5 6H8.5C8.2 6 8 6.2 8 6.5C8 6.8 8.2 7 8.5 7Z" fill="#272726"/>
</svg>
