<svg width="24" height="24" viewBox="0 0 24 24" fill="none" xmlns="http://www.w3.org/2000/svg">
<path d="M15.5 4C15.5 3.17157 14.8284 2.5 14 2.5H10C9.17157 2.5 8.5 3.17157 8.5 4V8C8.5 8.27614 8.27614 8.5 8 8.5H4C3.17157 8.5 2.5 9.17157 2.5 10V14L2.50781 14.1533C2.58461 14.9097 3.22334 15.5 4 15.5H8C8.27614 15.5 8.5 15.7239 8.5 16V20L8.50781 20.1533C8.58461 20.9097 9.22334 21.5 10 21.5H14C14.7767 21.5 15.4154 20.9097 15.4922 20.1533L15.5 20V16C15.5 15.7239 15.7239 15.5 16 15.5H20L20.1533 15.4922C20.8593 15.4205 21.4205 14.8593 21.4922 14.1533L21.5 14V10C21.5 9.22334 20.9097 8.58461 20.1533 8.50781L20 8.5H16C15.7239 8.5 15.5 8.27614 15.5 8V4ZM16.5 7.5H20C21.3807 7.5 22.5 8.61929 22.5 10V14C22.5 15.2943 21.5164 16.3592 20.2559 16.4873L20 16.5H16.5V20L16.4873 20.2559C16.3592 21.5164 15.2943 22.5 14 22.5H10C8.61929 22.5 7.5 21.3807 7.5 20V16.5H4C2.70566 16.5 1.64082 15.5164 1.5127 14.2559L1.5 14V10C1.5 8.61929 2.61929 7.5 4 7.5H7.5V4C7.5 2.61929 8.61929 1.5 10 1.5H14C15.3807 1.5 16.5 2.61929 16.5 4V7.5Z" fill="#272726"/>
</svg>
