<svg width="24" height="24" viewBox="0 0 24 24" fill="none" xmlns="http://www.w3.org/2000/svg">
<path d="M18.5 7H16.7214C17.2003 6.46838 17.5 5.77185 17.5 5C17.5 3.34314 16.1569 2 14.5 2C13.4552 2 12.5372 2.53534 12 3.3454C11.4628 2.53534 10.5448 2 9.5 2C7.84314 2 6.5 3.34314 6.5 5C6.5 5.77185 6.79968 6.46838 7.27856 7H5.5C4.11981 7.00128 3.00128 8.11981 3 9.5V12.5005C3.00018 12.7766 3.224 13.0002 3.5 13H5V19.5C5.00128 20.8802 6.11981 21.9987 7.5 22H16.5C17.8802 21.9987 18.9987 20.8802 19 19.5V13H20.5006C20.7766 12.9998 21.0002 12.776 21 12.5V9.5C20.9987 8.11981 19.8802 7.00128 18.5 7ZM9.5 3C10.604 3.0014 11.4986 3.896 11.5 5V7H9.5C8.39545 7 7.5 6.10455 7.5 5C7.5 3.89545 8.39545 3 9.5 3ZM11.5 21H7.5C6.67194 20.9991 6.00092 20.3281 6 19.5V13H11.5V21ZM11.5 8.00201V12H4V9.5C4.00092 8.67194 4.67194 8.00092 5.5 8H11.5004L11.5 8.00201ZM12.5 5C12.5 3.89545 13.3954 3 14.5 3C15.6046 3 16.5 3.89545 16.5 5C16.5 6.10455 15.6046 7 14.5 7H12.5V5ZM18 19.5C17.9991 20.3281 17.3281 20.9991 16.5 21H12.5V13H18V19.5ZM20 12H12.5V8.00201L12.4996 8H18.5C19.3281 8.00092 19.9991 8.67194 20 9.5V12Z" fill="#272726"/>
</svg>
