<svg width="24" height="24" viewBox="0 0 24 24" fill="none" xmlns="http://www.w3.org/2000/svg">
<path d="M6 19C6 20.7 7.3 22 9 22H17C18.7 22 20 20.7 20 19V15H6V19ZM19 7H18.7C18.9 6.5 19 6 19 5.5C19 3.6 17.4 2 15.5 2C14.6 2 13.7 2.4 13 3.1C11.7 1.7 9.4 1.7 8.1 3C7 4.1 6.7 5.7 7.4 7H7C5.3 7 4 8.3 4 10V12C4 12.6 4.4 13 5 13H21C21.6 13 22 12.6 22 12V10C22 8.3 20.7 7 19 7ZM12 7H10.5C9.7 7 9 6.3 9 5.5C9 4.7 9.7 4 10.5 4C11.3 4 12 4.7 12 5.5V7ZM15.5 7H14V5.5C14 4.7 14.7 4 15.5 4C16.3 4 17 4.7 17 5.5C17 6.3 16.3 7 15.5 7Z" fill="#272726"/>
</svg>
