<svg width="24" height="24" viewBox="0 0 24 24" fill="none" xmlns="http://www.w3.org/2000/svg">
<path d="M9.35294 4.58824C9.35294 4.29585 9.11592 4.05882 8.82353 4.05882H4.58824C4.29585 4.05882 4.05882 4.29585 4.05882 4.58824V8.82353C4.05882 9.11592 4.29585 9.35294 4.58824 9.35294H8.82353C9.11592 9.35294 9.35294 9.11592 9.35294 8.82353V4.58824ZM10.4118 8.82353C10.4118 9.70069 9.70069 10.4118 8.82353 10.4118H4.58824C3.71108 10.4118 3 9.70069 3 8.82353V4.58824C3 3.71108 3.71108 3 4.58824 3H8.82353C9.70069 3 10.4118 3.71108 10.4118 4.58824V8.82353Z" fill="#272726"/>
<path d="M19.9412 4.58824C19.9412 4.29585 19.7042 4.05882 19.4118 4.05882H15.1765C14.8841 4.05882 14.6471 4.29585 14.6471 4.58824V8.82353C14.6471 9.11592 14.8841 9.35294 15.1765 9.35294H19.4118C19.7042 9.35294 19.9412 9.11592 19.9412 8.82353V4.58824ZM21 8.82353C21 9.70069 20.2889 10.4118 19.4118 10.4118H15.1765C14.2993 10.4118 13.5882 9.70069 13.5882 8.82353V4.58824C13.5882 3.71108 14.2993 3 15.1765 3H19.4118C20.2889 3 21 3.71108 21 4.58824V8.82353Z" fill="#272726"/>
<path d="M9.35294 15.1765C9.35294 14.8841 9.11592 14.6471 8.82353 14.6471H4.58824C4.29585 14.6471 4.05882 14.8841 4.05882 15.1765V19.4118C4.05882 19.7042 4.29585 19.9412 4.58824 19.9412H8.82353C9.11592 19.9412 9.35294 19.7042 9.35294 19.4118V15.1765ZM10.4118 19.4118C10.4118 20.2889 9.70069 21 8.82353 21H4.58824C3.71108 21 3 20.2889 3 19.4118V15.1765C3 14.2993 3.71108 13.5882 4.58824 13.5882H8.82353C9.70069 13.5882 10.4118 14.2993 10.4118 15.1765V19.4118Z" fill="#272726"/>
<path d="M13.5882 18.3529C13.5882 18.0606 13.8253 17.8235 14.1176 17.8235C14.41 17.8235 14.6471 18.0606 14.6471 18.3529V19.9412H16.2353C16.5277 19.9412 16.7647 20.1782 16.7647 20.4706C16.7647 20.763 16.5277 21 16.2353 21H14.1176C13.8253 21 13.5882 20.763 13.5882 20.4706V18.3529ZM17.8235 20.4706V18.3529C17.8235 18.0606 18.0606 17.8235 18.3529 17.8235C18.6453 17.8235 18.8824 18.0606 18.8824 18.3529V20.4706C18.8824 20.763 18.6453 21 18.3529 21C18.0606 21 17.8235 20.763 17.8235 20.4706ZM15.7059 16.2353V14.6471H14.1176C13.8253 14.6471 13.5882 14.41 13.5882 14.1176C13.5882 13.8253 13.8253 13.5882 14.1176 13.5882H16.2353C16.5277 13.5882 16.7647 13.8253 16.7647 14.1176V16.2353C16.7647 16.5277 16.5277 16.7647 16.2353 16.7647C15.9429 16.7647 15.7059 16.5277 15.7059 16.2353ZM19.9412 16.2353V14.1176C19.9412 13.8253 20.1782 13.5882 20.4706 13.5882C20.763 13.5882 21 13.8253 21 14.1176V16.2353C21 16.5277 20.763 16.7647 20.4706 16.7647C20.1782 16.7647 19.9412 16.5277 19.9412 16.2353Z" fill="#272726"/>
</svg>
