<svg width="24" height="24" viewBox="0 0 24 24" fill="none" xmlns="http://www.w3.org/2000/svg">
<path d="M21.4758 8.38037C21.4704 8.3584 21.4725 8.33606 21.4639 8.31445L21.4612 8.30768L21.4595 8.30365L19.4639 3.31445C19.3884 3.12439 19.2045 2.9997 19 3H5C4.79553 2.9997 4.61157 3.12439 4.53613 3.31445L2.54047 8.30365L2.53882 8.30768L2.53613 8.31445C2.52673 8.33801 2.52869 8.36224 2.52301 8.38617C2.51398 8.42377 2.5 8.45966 2.5 8.5C2.5 8.50256 2.50073 8.50488 2.50073 8.50745C2.50079 8.51001 2.50146 8.51233 2.50153 8.51489C2.50806 9.69544 3.09998 10.7344 4 11.3645V21.5C4.00018 21.776 4.224 22.0002 4.5 22H14.5H19.5C19.7759 21.9998 20.0002 21.776 20 21.5V11.3645C20.9004 10.7341 21.4925 9.6947 21.4986 8.51355L21.4991 8.50855C21.4991 8.50562 21.5 8.50293 21.5 8.5C21.5 8.45758 21.4858 8.41974 21.4758 8.38037ZM19 21H15V14.5C14.9998 14.2241 14.776 13.9998 14.5 14H9.5C9.224 14.0002 8.99982 14.224 9 14.5V21H5V11.8364C5.31885 11.9323 5.65002 11.9996 6 12C7.28156 11.9985 8.3902 11.3016 9 10.2736C9.6098 11.3016 10.7184 11.9985 12 12C13.2816 11.9985 14.3902 11.3016 15 10.2736C15.6098 11.3016 16.7184 11.9985 18 12C18.35 11.9996 18.6812 11.9323 19 11.8364V21Z" fill="#272726"/>
</svg>
