<svg width="24" height="24" viewBox="0 0 24 24" fill="none" xmlns="http://www.w3.org/2000/svg">
<path d="M8 16.5H9C9.27612 16.5 9.5 16.2761 9.5 16C9.5 15.7239 9.27612 15.5 9 15.5H8C7.72388 15.5 7.5 15.7239 7.5 16C7.5 16.2761 7.72388 16.5 8 16.5ZM15 16.5H16C16.2761 16.5 16.5 16.2761 16.5 16C16.5 15.7239 16.2761 15.5 16 15.5H15C14.7239 15.5 14.5 15.7239 14.5 16C14.5 16.2761 14.7239 16.5 15 16.5ZM21 17V9C20.9982 7.34387 19.6561 6.00183 18 6H12.5V3H17.5C17.7761 3 18 2.77612 18 2.5C18 2.22388 17.7761 2 17.5 2H6.5C6.22388 2 6 2.22388 6 2.5C6 2.77612 6.22388 3 6.5 3H11.5V6H6C4.34387 6.00183 3.00183 7.34387 3 9V17C3.00128 18.1622 3.66962 19.1584 4.63635 19.6566L3.14648 21.1465C3.05273 21.2402 3.00006 21.3674 3.00006 21.4999C3 21.7761 3.22388 21.9999 3.5 22C3.63263 22.0001 3.75983 21.9474 3.85345 21.8535L5.73401 19.9729C5.82306 19.981 5.90887 19.9999 6 20H18C18.0911 19.9999 18.1769 19.981 18.2659 19.9729L20.1465 21.8535C20.2401 21.9474 20.3674 22.0002 20.5 22C20.6325 21.9999 20.7596 21.9473 20.8533 21.8536C21.0486 21.6584 21.0487 21.3418 20.8535 21.1465L19.3636 19.6567C20.3304 19.1585 20.9987 18.1623 21 17ZM4 9C4.0014 7.896 4.896 7.0014 6 7H11.5V12.5H4V9ZM20 17C19.9986 18.104 19.104 18.9986 18 19H6C4.896 18.9986 4.0014 18.104 4 17V13.5H20V17ZM20 12.5H12.5V7H18C19.104 7.0014 19.9986 7.896 20 9V12.5Z" fill="#272726"/>
</svg>
