<svg width="24" height="24" viewBox="0 0 24 24" fill="none" xmlns="http://www.w3.org/2000/svg">
<path d="M16 5C15.0903 5 14.2491 5.26129 13.5142 5.68579C12.5887 3.4776 10.4335 1.99915 7.99677 1.99988C4.6839 2.00079 1.99908 4.68713 2 8V12C2.00342 15.1434 4.42249 17.7166 7.5 17.9742V21.5005C7.50018 21.7766 7.724 22.0002 8 22C8.27594 21.9998 8.50018 21.776 8.5 21.5V17.9762C9.70349 17.878 10.8472 17.4181 11.7808 16.6562C12.5814 17.924 13.9319 18.7894 15.5 18.9491V21.5005C15.5002 21.7766 15.724 22.0002 16 22C16.2759 21.9998 16.5002 21.776 16.5 21.5V18.9491C19.0217 18.6922 20.9969 16.5888 21 14V10C21 7.23859 18.7614 5 16 5ZM11.7682 7.36231C11.6422 7.56213 11.5272 7.76819 11.4311 7.98346C11.4019 8.04944 11.3787 8.11731 11.3523 8.18475C11.2524 8.43762 11.1677 8.69653 11.1104 8.96375C11.1036 8.99591 11.1008 9.02905 11.0946 9.06146C11.0352 9.36865 11 9.68207 11 10V14C11.0002 14.314 11.035 14.6257 11.095 14.9327C11.1279 15.1055 11.1851 15.2674 11.2352 15.4335C11.2663 15.5341 11.2827 15.6386 11.3203 15.7373C10.5316 16.4384 9.54138 16.8487 8.5 16.9542V12.5C8.5 12.2239 8.27612 12 8 12C7.72388 12 7.5 12.2239 7.5 12.5V16.9497C4.97656 16.6958 2.99951 14.5903 3 12V8C3.00324 5.23993 5.23993 3.00324 8 3C10.0927 3.00958 11.9607 4.31403 12.6904 6.27539C12.6841 6.28088 12.6788 6.28723 12.6725 6.29279C12.5547 6.39862 12.4413 6.50623 12.334 6.62268C12.1957 6.77069 12.0675 6.92651 11.9492 7.08899C11.8851 7.17792 11.8265 7.2691 11.7682 7.36231ZM20 14C20 16.0379 18.4705 17.701 16.5 17.9496V12.5C16.5 12.2239 16.2761 12 16 12C15.7239 12 15.5 12.2239 15.5 12.5V17.9496C14.1037 17.7734 12.9342 16.8914 12.3698 15.6591C12.3691 15.6576 12.3698 15.6558 12.3691 15.6543C12.1277 15.1361 12.0017 14.5717 12 14V10C12.0005 9.70233 12.0385 9.40973 12.1034 9.12518C12.1171 9.06403 12.1422 9.00775 12.1586 8.94763C12.2207 8.72461 12.2952 8.50574 12.3947 8.29779C12.4221 8.23999 12.4557 8.18616 12.4858 8.12994C12.5979 7.92212 12.7244 7.72217 12.8724 7.53662C12.9021 7.49908 12.9327 7.46252 12.9637 7.42609C13.147 7.21271 13.3483 7.01263 13.5772 6.83984C13.5779 6.83929 13.5781 6.83826 13.5788 6.83765C14.2526 6.32062 15.0853 6.00092 16 6C18.2083 6.0022 19.9978 7.79175 20 10V14Z" fill="#272726"/>
</svg>
