<svg width="24" height="24" viewBox="0 0 24 24" fill="none" xmlns="http://www.w3.org/2000/svg">
<g clip-path="url(#clip0_15540_8662)">
<path d="M15.5605 3C16.3908 3.00016 17.1111 3.34069 17.584 3.91504C18.056 4.48864 18.2562 5.26397 18.1133 6.08594L18.1123 6.08691L17.7744 8H19.6895C19.6906 8 19.6922 8.00086 19.6934 8.00098C20.6388 8.00525 21.477 8.45489 21.9326 9.25098L23.4619 11.9189L23.5703 12.1279C23.7984 12.6264 23.8556 13.1945 23.7627 13.752V13.7568L23.002 18.0869V18.0879C22.9102 18.6014 22.4471 18.9999 21.9199 19H20.835C20.8308 19.0285 20.8272 19.0573 20.8223 19.0859C20.5412 20.7009 19.017 22 17.3896 22C16.5592 21.9999 15.8391 21.6594 15.3662 21.085C14.9106 20.5313 14.7102 19.79 14.8252 19H8.83496C8.83081 19.0285 8.82725 19.0573 8.82227 19.0859C8.54122 20.7009 7.01702 22 5.38965 22C4.55924 21.9999 3.83909 21.6594 3.36621 21.085C2.91064 20.5313 2.71017 19.79 2.8252 19H1.91992C1.64448 18.9999 1.38225 18.8879 1.20508 18.6719C1.02888 18.4568 0.971095 18.1802 1.01855 17.9131L2.06836 11.9365C2.11113 11.9494 2.15493 11.9607 2.19922 11.9697L2.30273 11.9854L2.40332 11.9951L2.5 12H3.07324L2.01855 18H3.14355C3.72796 16.8361 4.96544 16 6.27051 16C7.1009 16.0001 7.82107 16.3406 8.29395 16.915C8.5496 17.2257 8.72498 17.5956 8.80957 18H14.9102C14.9194 17.9999 14.943 17.9954 14.9688 17.9736C14.9944 17.9518 15.0051 17.927 15.0078 17.9121L17.1279 5.91309C17.2245 5.35594 17.084 4.88088 16.8115 4.5498C16.5396 4.21973 16.1094 4.00016 15.5605 4H6.56055C5.50642 4.0001 4.45506 4.81957 4.16211 5.87402L4.13281 6H3.1123L3.12793 5.91309L3.13281 5.8877L3.19336 5.62793L3.19824 5.60645C3.60533 4.1411 5.03486 3.00009 6.56055 3H15.5605ZM6.27051 17C5.138 17 4.02137 17.9411 3.82227 19.0859C3.72537 19.6436 3.86597 20.1189 4.13867 20.4502C4.41065 20.7804 4.84063 20.9999 5.38965 21C6.52217 21 7.63878 20.0589 7.83789 18.9141C7.93479 18.3564 7.79419 17.8811 7.52148 17.5498C7.24951 17.2196 6.81952 17.0001 6.27051 17ZM18.2705 17C17.138 17 16.0214 17.9411 15.8223 19.0859C15.7254 19.6436 15.866 20.1189 16.1387 20.4502C16.4107 20.7804 16.8406 20.9999 17.3896 21C18.5222 21 19.6388 20.0589 19.8379 18.9141C19.9348 18.3564 19.7942 17.8811 19.5215 17.5498C19.2495 17.2196 18.8195 17.0001 18.2705 17ZM16.2471 16.6963C16.8326 16.2624 17.5407 16 18.2705 16C19.1009 16.0001 19.8211 16.3406 20.2939 16.915C20.5496 17.2257 20.725 17.5956 20.8096 18H21.9199C21.929 17.9999 21.9518 17.9953 21.9775 17.9736C22.0035 17.9517 22.0149 17.9271 22.0176 17.9121L22.7041 14H16.7236L16.2471 16.6963ZM5.5 13C5.77614 13 6 13.2239 6 13.5C6 13.7761 5.77614 14 5.5 14H4.5L4.39941 13.9902C4.17145 13.9437 4 13.7417 4 13.5C4 13.2583 4.17145 13.0563 4.39941 13.0098L4.5 13H5.5ZM17.6895 9C17.6801 9.00018 17.6573 9.00485 17.6318 9.02637C17.606 9.04831 17.5945 9.07298 17.5918 9.08789L16.9004 13H22.7881C22.7598 12.7862 22.6959 12.5898 22.5977 12.4209L22.5957 12.4189L21.0664 9.74902L21.0654 9.74805C20.803 9.28893 20.3081 9 19.6797 9H17.6895ZM5.5 10C5.77614 10 6 10.2239 6 10.5C6 10.7761 5.77614 11 5.5 11H2.5L2.39941 10.9902C2.17145 10.9437 2 10.7417 2 10.5C2 10.2239 2.22386 10 2.5 10H5.5ZM5.5 7C5.77614 7 6 7.22386 6 7.5C6 7.77614 5.77614 8 5.5 8H0.5L0.399414 7.99023C0.171448 7.94371 5.70033e-07 7.74171 0 7.5C-3.72468e-08 7.22386 0.223858 7 0.5 7H5.5Z" fill="#272726"/>
</g>
<defs>
<clipPath id="clip0_15540_8662">
<rect width="24" height="24" fill="white"/>
</clipPath>
</defs>
</svg>
