<svg width="24" height="24" viewBox="0 0 24 24" fill="none" xmlns="http://www.w3.org/2000/svg">
<path d="M22.5 11.667L20.5 9C20.0266 8.37195 19.2864 8.00189 18.5 8H16V5.5C15.9987 4.11981 14.8802 3.00128 13.5 3H3.5C2.11981 3.00128 1.00128 4.11981 1 5.5V18.5005C1.00018 18.7766 1.224 19.0002 1.5 19H3C3 20.6569 4.34314 22 6 22C7.65613 21.9982 8.99817 20.6561 9 19H15C15 20.6569 16.3431 22 18 22C19.6561 21.9982 20.9982 20.6561 21 19H22.5006C22.7766 18.9998 23.0002 18.776 23 18.5V13.167C22.9991 12.6262 22.8237 12.1002 22.5 11.667ZM6 21C4.89545 21 4 20.1046 4 19C4 17.8954 4.89545 17 6 17C7.104 17.0014 7.9986 17.896 8 19C8 20.1046 7.10455 21 6 21ZM15 18H8.81628C8.40302 16.8375 7.30432 16 6 16C4.69568 16 3.59698 16.8375 3.18372 18H2V5.5C2.00092 4.67194 2.67194 4.00092 3.5 4H13.5C14.3281 4.00092 14.9991 4.67194 15 5.5V18ZM16 9H18.5C18.9716 9.00116 19.4153 9.22302 19.6992 9.59961L21.7002 12.2676C21.8602 12.4815 21.9424 12.7366 21.9728 13H16V9ZM18 21C16.8954 21 16 20.1046 16 19C16 17.8954 16.8954 17 18 17C19.104 17.0014 19.9986 17.896 20 19C20 20.1046 19.1046 21 18 21ZM22 18H20.8163C20.403 16.8375 19.3043 16 18 16C17.2281 16 16.5316 16.2997 16 16.7786V14H22V18Z" fill="#272726"/>
</svg>
