<svg width="24" height="24" viewBox="0 0 24 24" fill="none" xmlns="http://www.w3.org/2000/svg">
<path fill-rule="evenodd" clip-rule="evenodd" d="M12.1847 3C12.4933 3.00036 12.746 3.25065 12.746 3.56269V8.69862C12.7458 10.2241 11.5024 11.4615 9.97691 11.4616H9.43574V20.4373C9.43554 20.7493 9.18209 20.9998 8.87349 21C8.56481 20.9999 8.31045 20.7494 8.31024 20.4373V11.4616H7.76908C6.24381 11.4612 5.00017 10.2239 5 8.69862V3.56269C5.00002 3.25057 5.25357 3.00024 5.56225 3C5.87105 3.0001 6.12548 3.25049 6.1255 3.56269V8.69862C6.12567 9.59987 6.86106 10.3358 7.76908 10.3362H8.31024V3.56269C8.31026 3.25048 8.56469 3.0001 8.87349 3C9.1822 3.00021 9.43572 3.25055 9.43574 3.56269V10.3362H9.97691C10.8852 10.3362 11.6213 9.60006 11.6215 8.69862V3.56269C11.6215 3.25042 11.8759 3 12.1847 3ZM5.96787 9.06735C5.97398 9.09705 5.98242 9.12607 5.98996 9.15524C5.98149 9.12245 5.97253 9.0897 5.96586 9.05624L5.96787 9.06735ZM11.7972 8.9441C11.7998 8.92457 11.8042 8.90523 11.8062 8.88551L11.8072 8.8744C11.805 8.89786 11.8003 8.92091 11.7972 8.9441ZM12.5522 3.56269L12.5462 3.49804C12.5458 3.49595 12.5446 3.49404 12.5442 3.49197C12.5487 3.51491 12.5522 3.53844 12.5522 3.56269ZM12.1847 3.19598L12.258 3.20305C12.2344 3.19824 12.2098 3.19603 12.1847 3.19598Z" fill="#272726"/>
<path fill-rule="evenodd" clip-rule="evenodd" d="M18.2962 3.01818C18.4512 2.9779 18.6171 3.006 18.752 3.09698C18.9065 3.20129 19 3.37527 19 3.56269V20.4373C18.9998 20.7493 18.7463 20.9998 18.4378 21C18.1292 20.9997 17.8757 20.7493 17.8755 20.4373V13.6628H14.759C14.4502 13.6627 14.1968 13.4124 14.1968 13.1001V8.98148C14.1968 6.34964 15.7807 4.01732 18.2289 3.04041L18.2962 3.01818ZM17.8755 4.46683C16.3006 5.40994 15.3213 7.10309 15.3213 8.98148V12.5374H17.8755V4.46683ZM18.8052 3.56269L18.7992 3.49501C18.7982 3.48978 18.7954 3.48501 18.7942 3.47985C18.8005 3.50686 18.8052 3.53433 18.8052 3.56269ZM17.7741 3.46066C17.9447 3.37385 18.1206 3.29431 18.3012 3.22225C18.3297 3.21095 18.3589 3.20299 18.3886 3.19901L18.3012 3.22225L18.0813 3.31418C17.9771 3.36032 17.8748 3.40945 17.7741 3.46066ZM18.4779 3.198C18.507 3.20119 18.5356 3.20818 18.5633 3.21821C18.5912 3.22835 18.6183 3.24161 18.6436 3.25861C18.6914 3.29088 18.7295 3.33423 18.757 3.38287C18.744 3.36001 18.7295 3.33794 18.7118 3.31822L18.6436 3.25861C18.5932 3.22462 18.5366 3.20442 18.4779 3.198Z" fill="#272726"/>
</svg>
