<svg width="24" height="24" viewBox="0 0 24 24" fill="none" xmlns="http://www.w3.org/2000/svg">
<path d="M12.1843 3C12.4929 3.00026 12.7458 3.25047 12.7459 3.5625V8.69824C12.7459 10.2237 11.5025 11.4617 9.97706 11.4619H9.43511V20.4365C9.43511 20.7487 9.18216 20.9998 8.87345 21C8.5646 21 8.31081 20.7488 8.31081 20.4365V11.4619H7.76985C6.24435 11.4618 5 10.2238 5 8.69824V3.5625C5.00011 3.25059 5.25321 3.00044 5.56166 3C5.87047 3 6.12517 3.25031 6.12528 3.5625V8.69824C6.12528 9.59977 6.86157 10.3368 7.76985 10.3369H8.31081V3.5625C8.31092 3.25033 8.56467 3.00003 8.87345 3C9.18209 3.00021 9.435 3.25044 9.43511 3.5625V10.3369H9.97706C10.8852 10.3367 11.6206 9.59971 11.6206 8.69824V3.5625C11.6207 3.25031 11.8755 3 12.1843 3ZM18.2955 3.01855C18.4506 2.97817 18.6167 3.00563 18.7517 3.09668C18.9061 3.20096 18.9999 3.37514 19 3.5625V20.4365C19 20.7487 18.746 20.9998 18.4374 21C18.1286 20.9998 17.8747 20.7487 17.8747 20.4365V13.6631H14.759C14.4502 13.6631 14.1965 13.4128 14.1964 13.1006V8.98145C14.1964 6.34952 15.7803 4.0169 18.2285 3.04004L18.2955 3.01855ZM9.00943 20.7686C8.96479 20.7892 8.91578 20.8014 8.8636 20.8027L8.87345 20.8037C8.92001 20.8037 8.96624 20.7906 9.00943 20.7686ZM18.1693 20.6416C18.1892 20.6729 18.2147 20.699 18.2452 20.7207C18.2166 20.6977 18.19 20.672 18.1693 20.6416ZM11.1881 10.96C10.8233 11.1547 10.4068 11.2666 9.96425 11.2666H9.97706L10.2401 11.2529C10.5805 11.2183 10.8998 11.1141 11.1881 10.96ZM7.74324 10.5322H7.76985C7.71741 10.5322 7.66491 10.529 7.61318 10.5254C7.6562 10.5284 7.69947 10.5322 7.74324 10.5322ZM8.8636 3.19629C8.89356 3.19708 8.92253 3.20154 8.95031 3.20898C8.94957 3.2071 8.94809 3.20505 8.94735 3.20312L8.87345 3.19629C8.87015 3.19629 8.86687 3.1962 8.8636 3.19629ZM5.54195 3.19727C5.55029 3.1977 5.5584 3.19923 5.56658 3.2002C5.565 3.19884 5.56325 3.19766 5.56166 3.19629C5.55503 3.1963 5.54849 3.19691 5.54195 3.19727Z" fill="#272726"/>
</svg>
