<svg width="24" height="24" viewBox="0 0 24 24" fill="none" xmlns="http://www.w3.org/2000/svg">
<path d="M3 5C3 3.89543 3.89543 3 5 3H9.47059C10.5752 3 11.4706 3.89543 11.4706 5V9.47059C11.4706 10.5752 10.5752 11.4706 9.47059 11.4706H5C3.89543 11.4706 3 10.5752 3 9.47059V5Z" fill="#272726"/>
<path d="M3 14.5294C3 13.4248 3.89543 12.5294 5 12.5294H9.47059C10.5752 12.5294 11.4706 13.4248 11.4706 14.5294V19C11.4706 20.1046 10.5752 21 9.47059 21H5C3.89543 21 3 20.1046 3 19V14.5294Z" fill="#272726"/>
<path d="M12.5294 5C12.5294 3.89543 13.4248 3 14.5294 3H19C20.1046 3 21 3.89543 21 5V9.47059C21 10.5752 20.1046 11.4706 19 11.4706H14.5294C13.4248 11.4706 12.5294 10.5752 12.5294 9.47059V5Z" fill="#272726"/>
<path d="M12.5294 14.5294C12.5294 13.4248 13.4248 12.5294 14.5294 12.5294H19C20.1046 12.5294 21 13.4248 21 14.5294V19C21 20.1046 20.1046 21 19 21H14.5294C13.4248 21 12.5294 20.1046 12.5294 19V14.5294Z" fill="#272726"/>
</svg>
