<svg width="24" height="24" viewBox="0 0 24 24" fill="none" xmlns="http://www.w3.org/2000/svg">
<path d="M9.47062 10.4706V11.4706H4.99997V10.4706H9.47062ZM10.4706 9.47062V4.99997C10.4706 4.44774 10.0228 4.00005 9.47062 3.99999H4.99997C4.4477 3.99999 3.99999 4.4477 3.99999 4.99997V9.47062C4.00005 10.0228 4.44773 10.4706 4.99997 10.4706V11.4706L4.79587 11.4598C3.85437 11.3644 3.10625 10.6162 3.01074 9.67471L3 9.47062V4.99997C3 3.89542 3.89542 3 4.99997 3H9.47062L9.67471 3.01074C10.6833 3.11306 11.4706 3.96438 11.4706 4.99997V9.47062L11.4598 9.67471C11.3643 10.6162 10.6162 11.3644 9.67471 11.4598L9.47062 11.4706V10.4706C10.0228 10.4705 10.4705 10.0228 10.4706 9.47062Z" fill="#272726"/>
<path d="M9.47062 20V21H4.99997V20H9.47062ZM10.4706 19V14.5294C10.4706 13.9771 10.0228 13.5295 9.47062 13.5294H4.99997C4.4477 13.5294 3.99999 13.9771 3.99999 14.5294V19C4.00005 19.5522 4.44773 20 4.99997 20V21L4.79587 20.9893C3.85437 20.8938 3.10625 20.1456 3.01074 19.2041L3 19V14.5294C3 13.4248 3.89542 12.5294 4.99997 12.5294H9.47062L9.67471 12.5402C10.6833 12.6425 11.4706 13.4938 11.4706 14.5294V19L11.4598 19.2041C11.3643 20.1456 10.6162 20.8938 9.67471 20.9893L9.47062 21V20C10.0228 20 10.4705 19.5522 10.4706 19Z" fill="#272726"/>
<path d="M19 10.4706V11.4706H14.5294V10.4706H19ZM20 9.47062V4.99997C20 4.44774 19.5523 4.00005 19 3.99999H14.5294C13.9771 3.99999 13.5294 4.4477 13.5294 4.99997V9.47062C13.5295 10.0228 13.9771 10.4706 14.5294 10.4706V11.4706L14.3253 11.4598C13.3838 11.3644 12.6357 10.6162 12.5402 9.67471L12.5294 9.47062V4.99997C12.5294 3.89542 13.4248 3 14.5294 3H19L19.2041 3.01074C20.2127 3.11306 21 3.96438 21 4.99997V9.47062L20.9893 9.67471C20.8938 10.6162 20.1456 11.3644 19.2041 11.4598L19 11.4706V10.4706C19.5522 10.4705 20 10.0228 20 9.47062Z" fill="#272726"/>
<path d="M19 20V21H14.5294V20H19ZM20 19V14.5294C20 13.9771 19.5523 13.5295 19 13.5294H14.5294C13.9771 13.5294 13.5294 13.9771 13.5294 14.5294V19C13.5295 19.5522 13.9771 20 14.5294 20V21L14.3253 20.9893C13.3838 20.8938 12.6357 20.1456 12.5402 19.2041L12.5294 19V14.5294C12.5294 13.4248 13.4248 12.5294 14.5294 12.5294H19L19.2041 12.5402C20.2127 12.6425 21 13.4938 21 14.5294V19L20.9893 19.2041C20.8938 20.1456 20.1456 20.8938 19.2041 20.9893L19 21V20C19.5522 20 20 19.5522 20 19Z" fill="#272726"/>
</svg>
