<svg width="24" height="24" viewBox="0 0 24 24" fill="none" xmlns="http://www.w3.org/2000/svg">
<path d="M7.5 17.5C7.22388 17.5 7 17.7239 7 18C7 18.2761 7.22388 18.5 7.5 18.5C7.77612 18.5 8 18.2761 8 18C8 17.7239 7.77612 17.5 7.5 17.5ZM7.5 11.5C7.22388 11.5 7 11.7239 7 12C7 12.2761 7.22388 12.5 7.5 12.5C7.77612 12.5 8 12.2761 8 12C8 11.7239 7.77612 11.5 7.5 11.5ZM19.96 5.59039C19.562 3.54663 16.2094 2 12 2C7.79065 2 4.43805 3.54663 4.04004 5.59039C4.0144 5.65051 4 5.71661 4 5.78613V11.7861V12.2617V18.2617C4 20.3584 7.51367 22 12 22C16.4863 22 20 20.3584 20 18.2617V12.2617V11.7861V5.78613C20 5.71661 19.9856 5.65051 19.96 5.59039ZM19 18.2617C19 19.5566 16.125 21 12 21C7.875 21 5 19.5566 5 18.2617V14.0952C6.35242 15.2401 8.94971 16 12 16C15.0503 16 17.6476 15.2401 19 14.0952V18.2617ZM19 11.7861V12.2617C19 13.5566 16.125 15 12 15C7.875 15 5 13.5566 5 12.2617V11.7861V7.96173C6.35242 9.18671 8.94971 10 12 10C15.0503 10 17.6476 9.18671 19 7.96173V11.7861ZM12 9C7.875 9 5 7.41895 5 6C5 4.58105 7.875 3 12 3C16.125 3 19 4.58099 19 6C19 7.41901 16.125 9 12 9Z" fill="#272726"/>
</svg>
