<svg width="24" height="24" viewBox="0 0 24 24" fill="none" xmlns="http://www.w3.org/2000/svg">
<path d="M3.5 12C3.22388 12 3 12.2239 3 12.5C3 12.7761 3.22388 13 3.5 13C3.77612 13 4 12.7761 4 12.5C4 12.2239 3.77612 12 3.5 12ZM6.5 8H21.5C21.7761 8 22 7.77612 22 7.5C22 7.22388 21.7761 7 21.5 7H6.5C6.22388 7 6 7.22388 6 7.5C6 7.77612 6.22388 8 6.5 8ZM3.5 17C3.22388 17 3 17.2239 3 17.5C3 17.7761 3.22388 18 3.5 18C3.77612 18 4 17.7761 4 17.5C4 17.2239 3.77612 17 3.5 17ZM21.5 12H6.5C6.22388 12 6 12.2239 6 12.5C6 12.7761 6.22388 13 6.5 13H21.5C21.7761 13 22 12.7761 22 12.5C22 12.2239 21.7761 12 21.5 12ZM3.5 7C3.22388 7 3 7.22388 3 7.5C3 7.77612 3.22388 8 3.5 8C3.77612 8 4 7.77612 4 7.5C4 7.22388 3.77612 7 3.5 7ZM21.5 17H6.5C6.22388 17 6 17.2239 6 17.5C6 17.7761 6.22388 18 6.5 18H21.5C21.7761 18 22 17.7761 22 17.5C22 17.2239 21.7761 17 21.5 17Z" fill="#272726"/>
</svg>
