<svg width="24" height="24" viewBox="0 0 24 24" fill="none" xmlns="http://www.w3.org/2000/svg">
<path d="M19.2002 3.5C19.918 3.50011 20.4999 4.08199 20.5 4.7998V19.2002C20.4999 19.918 19.918 20.4999 19.2002 20.5H4.7998C4.08199 20.4999 3.50011 19.918 3.5 19.2002V4.7998C3.50011 4.08199 4.08199 3.50011 4.7998 3.5H19.2002ZM4.7998 4.5C4.63427 4.50011 4.50011 4.63427 4.5 4.7998V19.2002C4.50011 19.3657 4.63427 19.4999 4.7998 19.5H11.5V4.5H4.7998ZM12.5 19.5H19.2002C19.3657 19.4999 19.4999 19.3657 19.5 19.2002V4.7998C19.4999 4.63427 19.3657 4.50011 19.2002 4.5H12.5V19.5Z" fill="#272726"/>
</svg>
