<svg width="24" height="24" viewBox="0 0 24 24" fill="none" xmlns="http://www.w3.org/2000/svg">
<path d="M7.29972 5.00003C7.29972 4.72395 7.52367 4.50014 7.79972 4.50003C8.07586 4.50003 8.29972 4.72389 8.29972 5.00003V17.793L10.246 15.8467C10.4412 15.6515 10.7578 15.6515 10.953 15.8467C11.1483 16.042 11.1483 16.3585 10.953 16.5537L8.15323 19.3535C8.05947 19.4473 7.93228 19.5 7.79972 19.5C7.66718 19.5 7.53992 19.4473 7.4462 19.3535L4.6464 16.5537C4.45117 16.3585 4.45123 16.042 4.6464 15.8467C4.84166 15.6514 5.15817 15.6514 5.35343 15.8467L7.29972 17.793V5.00003ZM15.7001 19V6.20706L13.7538 8.15335C13.5586 8.34858 13.2421 8.34852 13.0468 8.15335C12.8515 7.95809 12.8515 7.64158 13.0468 7.44632L15.8466 4.64652L15.9247 4.58206C16.1188 4.454 16.3828 4.47569 16.5536 4.64652L19.3534 7.44632C19.5487 7.64155 19.5486 7.95808 19.3534 8.15335C19.1582 8.34861 18.8417 8.34861 18.6464 8.15335L16.7001 6.20706V19C16.7001 19.2761 16.4762 19.4999 16.2001 19.5C15.924 19.5 15.7001 19.2762 15.7001 19Z" fill="#272726"/>
</svg>
