<svg width="24" height="24" viewBox="0 0 24 24" fill="none" xmlns="http://www.w3.org/2000/svg">
<path d="M16.25 9.5C16.5261 9.5 16.75 9.72386 16.75 10V17.793L19.6465 14.8965C19.8417 14.7012 20.1583 14.7012 20.3535 14.8965C20.5488 15.0917 20.5488 15.4083 20.3535 15.6035L16.6035 19.3535C16.5694 19.3876 16.5304 19.4134 16.4902 19.4355C16.446 19.46 16.3988 19.4801 16.3477 19.4902C16.2829 19.5031 16.2161 19.5032 16.1514 19.4902C16.1002 19.48 16.053 19.4601 16.0088 19.4355C15.9689 19.4134 15.9303 19.3874 15.8965 19.3535L12.1465 15.6035C11.9512 15.4083 11.9512 15.0917 12.1465 14.8965C12.3417 14.7012 12.6583 14.7012 12.8535 14.8965L15.75 17.793V10C15.75 9.72386 15.9739 9.5 16.25 9.5Z" fill="#272726"/>
<path d="M8.75 17C9.02614 17 9.25 17.2239 9.25 17.5C9.25 17.7761 9.02614 18 8.75 18H3.5C3.22386 18 3 17.7761 3 17.5C3 17.2239 3.22386 17 3.5 17H8.75Z" fill="#272726"/>
<path d="M10.25 11C10.5261 11 10.75 11.2239 10.75 11.5C10.75 11.7761 10.5261 12 10.25 12H3.5C3.22386 12 3 11.7761 3 11.5C3 11.2239 3.22386 11 3.5 11H10.25Z" fill="#272726"/>
<path d="M16.25 5C16.5261 5 16.75 5.22386 16.75 5.5C16.75 5.77614 16.5261 6 16.25 6H3.5C3.22386 6 3 5.77614 3 5.5C3 5.22386 3.22386 5 3.5 5H16.25Z" fill="#272726"/>
</svg>
