<svg width="24" height="24" viewBox="0 0 24 24" fill="none" xmlns="http://www.w3.org/2000/svg">
<path d="M16.25 18.5002C16.5261 18.5002 16.75 18.7241 16.75 19.0002C16.75 19.2763 16.5261 19.5002 16.25 19.5002H3.5C3.22386 19.5002 3 19.2763 3 19.0002C3 18.7241 3.22386 18.5002 3.5 18.5002H16.25ZM15.75 14.5002V6.70724L12.8535 9.60372C12.6583 9.79898 12.3417 9.79898 12.1465 9.60372C11.9512 9.40846 11.9512 9.09195 12.1465 8.89669L15.8965 5.14669L15.9746 5.08224C16.1687 4.95407 16.4327 4.97583 16.6035 5.14669L20.3535 8.89669C20.5488 9.09195 20.5488 9.40846 20.3535 9.60372C20.1583 9.79898 19.8417 9.79898 19.6465 9.60372L16.75 6.70724V14.5002C16.75 14.7763 16.5261 15.0002 16.25 15.0002C15.9739 15.0002 15.75 14.7763 15.75 14.5002ZM10.25 12.5002C10.5261 12.5002 10.75 12.7241 10.75 13.0002C10.75 13.2764 10.5261 13.5002 10.25 13.5002H3.5C3.22386 13.5002 3 13.2764 3 13.0002C3 12.7241 3.22386 12.5002 3.5 12.5002H10.25ZM8.75 6.50021C9.02614 6.50021 9.25 6.72406 9.25 7.00021C9.25 7.27635 9.02614 7.50021 8.75 7.50021H3.5C3.22386 7.50021 3 7.27635 3 7.00021C3 6.72406 3.22386 6.50021 3.5 6.50021H8.75Z" fill="#272726"/>
</svg>
