<svg width="24" height="24" viewBox="0 0 24 24" fill="none" xmlns="http://www.w3.org/2000/svg">
<path d="M6.85349 9.35352L12 4.20697L17.1465 9.35352C17.2401 9.44745 17.3673 9.50018 17.5 9.5C17.6325 9.5 17.7596 9.44733 17.8534 9.35364C18.0486 9.15839 18.0487 8.8418 17.8535 8.64655L12.3535 3.14655C12.3534 3.14648 12.3536 3.14661 12.3535 3.14655C12.1582 2.95142 11.8417 2.95129 11.6465 3.14655L6.14652 8.64655C5.95933 8.84027 5.95933 9.14746 6.14652 9.34125C6.33836 9.53986 6.65488 9.54535 6.85349 9.35352ZM17.1465 14.6465L12 19.793L6.85343 14.6465C6.65971 14.4594 6.35252 14.4594 6.15873 14.6465C5.96012 14.8384 5.95463 15.1549 6.14646 15.3535L11.6465 20.8535C11.7401 20.9474 11.8673 21.0002 12 21C12.1326 21.0001 12.2598 20.9474 12.3534 20.8535L17.8534 15.3535C18.0406 15.1597 18.0406 14.8525 17.8534 14.6588C17.6616 14.4601 17.3451 14.4547 17.1465 14.6465Z" fill="#272726"/>
</svg>
