<svg width="24" height="24" viewBox="0 0 24 24" fill="none" xmlns="http://www.w3.org/2000/svg">
<path d="M20.7341 16.3967L14.1393 5.18652C13.488 4.0655 11.9411 3.66513 10.8012 4.30572C10.3941 4.54594 10.0685 4.86623 9.90563 5.18652L3.31085 16.3967C2.65951 17.5177 3.0666 19.0391 4.20644 19.6797C4.61352 19.9199 5.02061 20 5.42769 20H18.5358C19.9199 20 20.9783 18.879 20.9783 17.5978C21.0598 17.1174 20.8969 16.717 20.7341 16.3967ZM12.0225 16.7971C11.534 16.7971 11.2083 16.4768 11.2083 15.9964C11.2083 15.5159 11.534 15.1956 12.0225 15.1956C12.511 15.1956 12.8366 15.5159 12.8366 15.9964C12.8366 16.4768 12.511 16.7971 12.0225 16.7971ZM12.8366 12.7934C12.8366 13.2739 12.511 13.5942 12.0225 13.5942C11.534 13.5942 11.2083 13.2739 11.2083 12.7934V9.59053C11.2083 9.11009 11.534 8.7898 12.0225 8.7898C12.511 8.7898 12.8366 9.11009 12.8366 9.59053V12.7934Z" fill="#272726"/>
</svg>
