<svg width="24" height="24" viewBox="0 0 24 24" fill="none" xmlns="http://www.w3.org/2000/svg">
<path d="M12 15.875C11.6548 15.875 11.375 16.1548 11.375 16.5C11.375 16.8451 11.6548 17.125 12 17.125C12.3452 17.125 12.625 16.8451 12.625 16.5C12.625 16.1548 12.3452 15.875 12 15.875ZM12 14C12.2759 13.9998 12.5002 13.776 12.5 13.5V9.49999C12.5 9.22387 12.2761 8.99999 12 8.99999C11.7239 8.99999 11.5 9.22387 11.5 9.49999V13.5005C11.5002 13.7765 11.724 14.0002 12 14ZM22.7129 17.5469L14.5645 3.47851C14.3053 3.03148 13.9337 2.6599 13.4867 2.40075C12.0704 1.5797 10.2567 2.06218 9.43555 3.47851L1.28613 17.5498C1.02448 18.0015 0.886719 18.5142 0.88678 19.0362C0.887085 20.6733 2.21442 22.0002 3.85156 22H20.1455C20.6679 22.0001 21.1811 21.8623 21.6332 21.6004C23.0507 20.7792 23.5341 18.9644 22.7129 17.5469ZM20.1456 21H3.85156C3.50659 20.9997 3.16779 20.9087 2.86914 20.7361C1.92944 20.1927 1.60803 18.9905 2.15137 18.0508L10.3008 3.98046C10.6489 3.37127 11.2983 2.99694 12 3.00097C12.7017 2.99694 13.3511 3.37127 13.6992 3.98046L21.8477 18.0488C22.0211 18.3484 22.1124 18.6884 22.1123 19.0345C22.1119 20.1204 21.2314 21.0004 20.1456 21Z" fill="#272726"/>
</svg>
