<svg width="24" height="24" viewBox="0 0 24 24" fill="none" xmlns="http://www.w3.org/2000/svg">
<path d="M12 2C6.47717 2 2 6.47717 2 12C2 17.5228 6.47717 22 12 22C17.5201 21.9935 21.9935 17.5201 22 12C22 6.47717 17.5228 2 12 2ZM12 21C7.02942 21 3 16.9706 3 12C3 7.02942 7.02942 3 12 3C16.9683 3.00543 20.9946 7.03168 21 12C21 16.9706 16.9706 21 12 21Z" fill="#272726"/>
<path d="M11.5 8C11.5 7.72386 11.7239 7.5 12 7.5C12.2761 7.5 12.5 7.72386 12.5 8V11.793L16.3535 15.6465C16.5488 15.8417 16.5488 16.1583 16.3535 16.3535C16.1583 16.5488 15.8417 16.5488 15.6465 16.3535L11.6465 12.3535C11.5527 12.2597 11.5 12.1326 11.5 12V8Z" fill="#272726"/>
</svg>
