<svg width="24" height="24" viewBox="0 0 24 24" fill="none" xmlns="http://www.w3.org/2000/svg">
<path d="M12 13C12.2759 12.9998 12.5002 12.776 12.5 12.5V8.5C12.5 8.22388 12.2761 8 12 8C11.7239 8 11.5 8.22388 11.5 8.5V12.5005C11.5002 12.7766 11.724 13.0002 12 13ZM21.8535 7.71191L16.2881 2.14648C16.1943 2.05267 16.0672 2 15.9346 2H8.06543C7.9328 2 7.80566 2.05267 7.71191 2.14648L2.14648 7.71191C2.05267 7.80566 2 7.9328 2 8.06543V15.9346C2 16.0672 2.05267 16.1943 2.14648 16.2881L7.71191 21.8535C7.80566 21.9473 7.9328 22 8.06543 22H15.9346C16.0672 22 16.1943 21.9473 16.2881 21.8535L21.8535 16.2881C21.9473 16.1943 22 16.0672 22 15.9346V8.06543C22 7.9328 21.9473 7.80566 21.8535 7.71191ZM21 15.7275L15.7275 21H8.27246L3 15.7275V8.27246L8.27246 3H15.7275L21 8.27246V15.7275ZM12 14.375C11.6548 14.375 11.375 14.6548 11.375 15C11.375 15.3452 11.6548 15.625 12 15.625C12.3452 15.625 12.625 15.3452 12.625 15C12.625 14.6548 12.3452 14.375 12 14.375Z" fill="#272726"/>
</svg>
