<svg width="24" height="24" viewBox="0 0 24 24" fill="none" xmlns="http://www.w3.org/2000/svg">
<path d="M12 8.375C11.6548 8.375 11.375 8.65485 11.375 9C11.375 9.34515 11.6548 9.625 12 9.625C12.3452 9.625 12.625 9.34515 12.625 9C12.625 8.65485 12.3452 8.375 12 8.375ZM12 10.5C11.7239 10.5 11.5 10.7239 11.5 11V15.0005C11.5002 15.2766 11.724 15.5002 12 15.5C12.2759 15.4998 12.5002 15.276 12.5 15V11C12.5 10.7239 12.2761 10.5 12 10.5ZM12 2C6.47717 2 2 6.47717 2 12C2 17.5228 6.47717 22 12 22C17.5201 21.9935 21.9935 17.5201 22 12C22 6.47717 17.5228 2 12 2ZM12 21C7.02942 21 3 16.9706 3 12C3 7.02942 7.02942 3 12 3C16.9683 3.00543 20.9946 7.03168 21 12C21 16.9706 16.9706 21 12 21Z" fill="#272726"/>
</svg>
