<svg width="24" height="24" viewBox="0 0 24 24" fill="none" xmlns="http://www.w3.org/2000/svg">
<path d="M6.39697 7.57062C8.92152 4.85893 13.4517 3.21443 19.4624 3.45245L20.0483 3.48175L20.1411 3.49542C20.3493 3.5476 20.505 3.73026 20.5181 3.95148C20.8882 10.2556 19.2269 14.9982 16.4282 17.6038C13.6792 20.1628 9.92099 20.5768 6.20557 18.5013L4.28271 20.4251C4.08756 20.6199 3.77087 20.6199 3.57568 20.4251C3.38053 20.23 3.38075 19.9134 3.57568 19.7181L5.49854 17.7943C3.42321 14.0788 3.83786 10.3199 6.39697 7.57062ZM19.5405 4.45734C13.6455 4.19948 9.40314 5.80996 7.12939 8.25226C4.95409 10.5892 4.50719 13.7655 6.23779 17.055L14.5474 8.7464C14.7426 8.55126 15.0592 8.55118 15.2544 8.7464C15.4492 8.94165 15.4494 9.25829 15.2544 9.45343L6.94482 17.762C10.2344 19.4929 13.4101 19.0471 15.7466 16.8724C18.1888 14.5988 19.7973 10.3553 19.5405 4.45734Z" fill="#272726"/>
</svg>
