<svg width="24" height="24" viewBox="0 0 24 24" fill="none" xmlns="http://www.w3.org/2000/svg">
<path d="M19.8403 7.41158C18.9614 3.07748 14.7355 0.276452 10.4014 1.1553C9.17196 1.40432 8.0184 1.93923 7.03408 2.71682C3.57076 5.45266 2.98098 10.4781 5.71682 13.9414C6.52053 14.9071 6.97292 16.1169 7.00002 17.373V20.5C7.00131 21.8802 8.11984 22.9987 9.50002 23H14.5C15.8802 22.9987 16.9987 21.8802 17 20.5V17.5215C17.0307 16.1856 17.5044 14.8977 18.3467 13.8604C19.4229 12.4691 20.0047 10.7589 20 9.00002C19.9998 8.46658 19.9463 7.93441 19.8403 7.41158ZM16 20.5C15.9991 21.3281 15.3281 21.9991 14.5 22H9.50002C8.67196 21.9991 8.00094 21.3281 8.00002 20.5V18H12C11.9998 18 12.0002 18 12 18H16V20.5ZM17.5537 13.251C16.6866 14.3256 16.1821 15.633 16.0532 17H12.5V13.5C12.5 13.2239 12.2761 13 12 13C11.7239 13 11.5 13.2239 11.5 13.5V17H7.96182C7.86031 15.6547 7.3655 14.3669 6.50204 13.3223C5.82272 12.4627 5.355 11.4555 5.1365 10.3819C4.36666 6.59866 6.80953 2.90756 10.5928 2.13772C11.0509 2.04806 11.5166 2.00295 11.9834 2.00295C11.9929 2.00289 12.0023 2.00289 12.0119 2.00289C15.8737 2.00539 19.0025 5.13809 19 9.00002C19.0044 10.5385 18.4954 12.0344 17.5537 13.251Z" fill="#272726"/>
</svg>
