<svg width="24" height="24" viewBox="0 0 24 24" fill="none" xmlns="http://www.w3.org/2000/svg">
<path d="M12.6779 3.39746C12.6779 3.1512 12.5038 3 12.3494 3C12.2334 3.00018 12.1027 3.0876 12.0444 3.22754L12.0425 3.23242L7.72906 13.2891C7.57282 13.6539 7.83366 13.9841 8.0857 13.9844H11.272C11.5373 13.9845 11.7525 14.2083 11.7525 14.4844V20.5801C11.7526 20.8489 11.9463 20.9998 12.0801 21C12.2 21 12.3192 20.9293 12.3973 20.7686L16.7211 10.71L16.7455 10.6426C16.845 10.3068 16.601 10.0157 16.3635 10.0156H13.1584C12.8931 10.0156 12.6779 9.79177 12.6779 9.51562V3.39746ZM13.639 9.01562H16.3635C17.4063 9.01569 18.0001 10.1842 17.5986 11.1182L13.2654 21.1982C13.2624 21.2054 13.2585 21.2127 13.2551 21.2197C13.0429 21.6567 12.6233 22 12.0801 22C11.3433 21.9999 10.7916 21.3229 10.7915 20.5801V14.9844H8.0857C7.04161 14.9842 6.45134 13.8141 6.8506 12.8818H6.85154L11.1622 2.83008C11.3527 2.37235 11.8024 2.00016 12.3494 2C13.1072 2 13.639 2.67762 13.639 3.39746V9.01562Z" fill="#272726"/>
</svg>
