<svg width="24" height="24" viewBox="0 0 24 24" fill="none" xmlns="http://www.w3.org/2000/svg">
<path fill-rule="evenodd" clip-rule="evenodd" d="M12.0165 3C12.1361 3 12.2507 3.04749 12.3353 3.13208L20.2089 11.0059C21.2637 12.0627 21.2637 13.7741 20.2089 14.8309L14.8306 20.2093C14.3238 20.7168 13.6355 21.0014 12.9182 21C12.2008 21.0014 11.5125 20.7169 11.0057 20.2093L3.13208 12.3355C3.04749 12.251 3 12.1363 3 12.0167V3.45084C2.99984 3.20197 3.20202 3.00017 3.45083 3H12.0165ZM7.95908 6.60669C7.21213 6.60669 6.6066 7.21223 6.6066 7.9592C6.6066 8.70617 7.21213 9.31171 7.95908 9.31171C8.70603 9.31171 9.31156 8.70617 9.31156 7.9592C9.31156 7.21223 8.70603 6.60669 7.95908 6.60669Z" fill="#272726"/>
</svg>
