<svg width="24" height="24" viewBox="0 0 24 24" fill="none" xmlns="http://www.w3.org/2000/svg">
<path d="M21.0859 10.8789L12.3535 2.14648C12.2598 2.05267 12.1326 2 12 2H2.5C2.49982 2 2.50024 2 2.5 2C2.22406 2.00018 1.99982 2.224 2 2.5V12C2 12.1326 2.05267 12.2598 2.14648 12.3535L10.8789 21.0859C11.441 21.6489 12.2044 21.9645 13 21.9629C13.7956 21.9645 14.559 21.6489 15.1211 21.0859L21.0859 15.1211C22.2559 13.949 22.2559 12.051 21.0859 10.8789ZM20.3789 14.4141L14.4141 20.379C13.6324 21.1582 12.3676 21.1582 11.5859 20.379L3 11.793V3H11.793L20.3789 11.586C21.1582 12.3676 21.1582 13.6324 20.3789 14.4141ZM7.5 6C6.67157 6 6 6.67157 6 7.5C6 8.32843 6.67157 9 7.5 9C8.32806 8.99908 8.99908 8.32806 9 7.5C9 6.67157 8.32843 6 7.5 6ZM7.5 8C7.22388 8 7 7.77612 7 7.5C7 7.22388 7.22388 7 7.5 7C7.77594 7.00055 7.99945 7.22406 8 7.5C8 7.77612 7.77612 8 7.5 8Z" fill="#272726"/>
</svg>
