<svg width="24" height="24" viewBox="0 0 24 24" fill="none" xmlns="http://www.w3.org/2000/svg">
<path d="M17 19.5C17.8281 19.4991 18.4991 18.8281 18.5 18C18.5 17.1716 17.8284 16.5 17 16.5C16.1716 16.5 15.5 17.1716 15.5 18C15.5 18.8284 16.1716 19.5 17 19.5ZM17 17.5C17.2759 17.5005 17.4995 17.7241 17.5 18C17.5 18.2761 17.2761 18.5 17 18.5C16.7239 18.5 16.5 18.2761 16.5 18C16.5 17.7239 16.7239 17.5 17 17.5ZM17 15.5C17.8281 15.4991 18.4991 14.8281 18.5 14C18.5 13.1716 17.8284 12.5 17 12.5C16.1716 12.5 15.5 13.1716 15.5 14C15.5 14.8284 16.1716 15.5 17 15.5ZM17 13.5C17.2759 13.5005 17.4995 13.7241 17.5 14C17.5 14.2761 17.2761 14.5 17 14.5C16.7239 14.5 16.5 14.2761 16.5 14C16.5 13.7239 16.7239 13.5 17 13.5ZM19.5 3H17.5V1.5C17.5 1.22388 17.2761 1 17 1C16.7239 1 16.5 1.22388 16.5 1.5V3H7.5V1.5C7.5 1.22388 7.27612 1 7 1C6.72388 1 6.5 1.22388 6.5 1.5V3H4.5C3.11981 3.00128 2.00128 4.11981 2 5.5V20.5C2.00128 21.8802 3.11981 22.9987 4.5 23H19.5C20.8802 22.9987 21.9987 21.8802 22 20.5V5.5C21.9987 4.11981 20.8802 3.00128 19.5 3ZM21 20.5C20.9991 21.3281 20.3281 21.9991 19.5 22H4.5C3.67194 21.9991 3.00092 21.3281 3 20.5V10H21V20.5ZM21 9H3V5.5C3.00092 4.67194 3.67194 4.00092 4.5 4H6.5V5.5C6.5 5.49976 6.5 5.50018 6.5 5.5C6.50018 5.77594 6.724 6.00018 7 6C6.99976 6 7.00018 6 7 6C7.27594 5.99982 7.50018 5.776 7.5 5.5V4H16.5V5.5C16.5 5.49976 16.5 5.50018 16.5 5.5C16.5002 5.77594 16.724 6.00018 17 6C16.9998 6 17.0002 6 17 6C17.2759 5.99982 17.5002 5.776 17.5 5.5V4H19.5C20.3281 4.00092 20.9991 4.67194 21 5.5V9ZM7 19.5C7.82806 19.4991 8.49908 18.8281 8.5 18C8.5 17.1716 7.82843 16.5 7 16.5C6.17157 16.5 5.5 17.1716 5.5 18C5.5 18.8284 6.17157 19.5 7 19.5ZM7 17.5C7.27594 17.5005 7.49945 17.7241 7.5 18C7.5 18.2761 7.27612 18.5 7 18.5C6.72388 18.5 6.5 18.2761 6.5 18C6.5 17.7239 6.72388 17.5 7 17.5ZM12 19.5C12.8281 19.4991 13.4991 18.8281 13.5 18C13.5 17.1716 12.8284 16.5 12 16.5C11.1716 16.5 10.5 17.1716 10.5 18C10.5 18.8284 11.1716 19.5 12 19.5ZM12 17.5C12.2759 17.5005 12.4995 17.7241 12.5 18C12.5 18.2761 12.2761 18.5 12 18.5C11.7239 18.5 11.5 18.2761 11.5 18C11.5 17.7239 11.7239 17.5 12 17.5ZM12 15.5C12.8281 15.4991 13.4991 14.8281 13.5 14C13.5 13.1716 12.8284 12.5 12 12.5C11.1716 12.5 10.5 13.1716 10.5 14C10.5 14.8284 11.1716 15.5 12 15.5ZM12 13.5C12.2759 13.5005 12.4995 13.7241 12.5 14C12.5 14.2761 12.2761 14.5 12 14.5C11.7239 14.5 11.5 14.2761 11.5 14C11.5 13.7239 11.7239 13.5 12 13.5ZM7 15.5C7.82806 15.4991 8.49908 14.8281 8.5 14C8.5 13.1716 7.82843 12.5 7 12.5C6.17157 12.5 5.5 13.1716 5.5 14C5.5 14.8284 6.17157 15.5 7 15.5ZM7 13.5C7.27594 13.5005 7.49945 13.7241 7.5 14C7.5 14.2761 7.27612 14.5 7 14.5C6.72388 14.5 6.5 14.2761 6.5 14C6.5 13.7239 6.72388 13.5 7 13.5Z" fill="#272726"/>
</svg>
