<svg width="24" height="24" viewBox="0 0 24 24" fill="none" xmlns="http://www.w3.org/2000/svg">
<path d="M19.8535 8.14648L13.8535 2.14648C13.7598 2.05267 13.6326 2 13.5 2H7C5.34387 2.00183 4.00183 3.34387 4 5V19C4.00183 20.6561 5.34387 21.9982 7 22H17C18.6561 21.9982 19.9982 20.6561 20 19V8.5C20 8.36737 19.9473 8.24023 19.8535 8.14648ZM14 3.70697L18.293 8H15.333C14.597 7.99939 14.0006 7.40295 14 6.66699V3.70697ZM19 19C18.9986 20.104 18.104 20.9986 17 21H7C5.896 20.9986 5.0014 20.104 5 19V5C5.0014 3.896 5.896 3.0014 7 3H13V6.66699C13.0016 7.95477 14.0452 8.99835 15.333 9H19V19Z" fill="#272726"/>
</svg>
