<svg width="24" height="24" viewBox="0 0 24 24" fill="none" xmlns="http://www.w3.org/2000/svg">
<path d="M15 8H19.4L14 2.6V7C14 7.6 14.4 8 15 8ZM21.7 18.3C21.3 17.9 20.7 17.9 20.3 18.3L20 18.6V16C20 15.4 19.6 15 19 15C18.4 15 18 15.4 18 16V18.6L17.7 18.3C17.3 17.9 16.7 17.9 16.3 18.3C15.9 18.7 15.9 19.3 16.3 19.7L18.3 21.7C18.7 22.1 19.3 22.1 19.7 21.7L21.7 19.7C22.1 19.3 22.1 18.7 21.7 18.3ZM15.2 17.2C15.5 16.9 16 16.6 16.5 16.5V16C16.5 14.6 17.6 13.5 19 13.5C19.3 13.5 19.7 13.6 20 13.7V10H15C13.3 10 12 8.7 12 7V2H7C5.3 2 4 3.3 4 5V19C4 20.7 5.3 22 7 22H16.5L15.3 20.8C14.3 19.8 14.3 18.2 15.2 17.2ZM9 8H10C10.6 8 11 8.4 11 9C11 9.6 10.6 10 10 10H9C8.4 10 8 9.6 8 9C8 8.4 8.4 8 9 8ZM11 18H9C8.4 18 8 17.6 8 17C8 16.4 8.4 16 9 16H11C11.6 16 12 16.4 12 17C12 17.6 11.6 18 11 18ZM9 14C8.4 14 8 13.6 8 13C8 12.4 8.4 12 9 12H14C14.6 12 15 12.4 15 13C15 13.6 14.6 14 14 14H9Z" fill="#272726"/>
</svg>
