<svg width="24" height="24" viewBox="0 0 24 24" fill="none" xmlns="http://www.w3.org/2000/svg">
<path d="M13.5 17C13.7761 17 14 16.7761 14 16.5C14 16.2239 13.7761 16 13.5 16H8.5C8.22388 16 8 16.2239 8 16.5C8 16.7761 8.22388 17 8.5 17H13.5ZM15.5 12H8.5C8.22388 12 8 12.2239 8 12.5C8 12.7761 8.22388 13 8.5 13H15.5C15.7761 13 16 12.7761 16 12.5C16 12.2239 15.7761 12 15.5 12ZM8.5 8C8.22388 8 8 8.22388 8 8.5C8 8.77612 8.22388 9 8.5 9H10.5C10.7761 9 11 8.77612 11 8.5C11 8.22388 10.7761 8 10.5 8H8.5ZM13.5 21H7C5.896 20.9986 5.0014 20.104 5 19V5C5.0014 3.896 5.896 3.0014 7 3H13V6.66699C13.0016 7.95477 14.0452 8.99835 15.333 9H19V13.5C19 13.7761 19.2239 14 19.5 14C19.7761 14 20 13.7761 20 13.5V8.5C20 8.36737 19.9473 8.24023 19.8535 8.14648L13.8535 2.14648C13.7598 2.05267 13.6326 2 13.5 2H7C5.34387 2.00183 4.00183 3.34387 4 5V19C4.00183 20.6561 5.34387 21.9982 7 22H13.5C13.7761 22 14 21.7761 14 21.5C14 21.2239 13.7761 21 13.5 21ZM14 3.70697L18.293 8H15.333C14.597 7.99939 14.0006 7.40295 14 6.66699V3.70697Z" fill="#272726"/>
<path d="M20.7678 16.7678C20.963 16.963 20.963 17.2796 20.7678 17.4749L17.2322 21.0104C17.1385 21.1042 17.0113 21.1568 16.8787 21.1568H15.4645C15.1883 21.1568 14.9645 20.933 14.9645 20.6569V19.2426C14.9645 19.11 15.0171 18.9829 15.1109 18.8891L18.6464 15.3536C18.8417 15.1583 19.1583 15.1583 19.3536 15.3536L20.7678 16.7678ZM15.9644 19.4498V20.1569H16.6715L19.7071 17.1213L19 16.4142L15.9644 19.4498Z" fill="#272726"/>
</svg>
