<svg width="24" height="24" viewBox="0 0 24 24" fill="none" xmlns="http://www.w3.org/2000/svg">
<path d="M13.5 17C13.7761 17 14 16.7761 14 16.5C14 16.2239 13.7761 16 13.5 16H8.5C8.22388 16 8 16.2239 8 16.5C8 16.7761 8.22388 17 8.5 17H13.5ZM15.5 12H8.5C8.22388 12 8 12.2239 8 12.5C8 12.7761 8.22388 13 8.5 13H15.5C15.7761 13 16 12.7761 16 12.5C16 12.2239 15.7761 12 15.5 12ZM8.5 8C8.22388 8 8 8.22388 8 8.5C8 8.77612 8.22388 9 8.5 9H10.5C10.7761 9 11 8.77612 11 8.5C11 8.22388 10.7761 8 10.5 8H8.5ZM15.5 21H7C5.896 20.9986 5.0014 20.104 5 19V5C5.0014 3.896 5.896 3.0014 7 3H13V6.66699C13.0016 7.95477 14.0452 8.99835 15.333 9H19V13.5C19 13.7761 19.2239 14 19.5 14C19.7761 14 20 13.7761 20 13.5V8.5C20 8.36737 19.9473 8.24023 19.8535 8.14648L13.8535 2.14648C13.7598 2.05267 13.6326 2 13.5 2H7C5.34387 2.00183 4.00183 3.34387 4 5V19C4.00183 20.6561 5.34387 21.9982 7 22H15.5C15.7761 22 16 21.7761 16 21.5C16 21.2239 15.7761 21 15.5 21ZM14 3.70697L18.293 8H15.333C14.597 7.99939 14.0006 7.40295 14 6.66699V3.70697ZM21.8535 19.1588C21.6616 18.9601 21.3451 18.9547 21.1465 19.1465L20 20.293V16.5C20 16.2239 19.7761 16 19.5 16C19.2239 16 19 16.2239 19 16.5V20.293L17.8535 19.1465C17.6597 18.9594 17.3525 18.9594 17.1588 19.1465C16.9601 19.3384 16.9547 19.6549 17.1465 19.8535L19.1465 21.8535C19.2401 21.9474 19.3674 22.0002 19.5 22C19.6326 22.0001 19.7598 21.9474 19.8535 21.8535L21.8535 19.8535C22.0406 19.6597 22.0406 19.3525 21.8535 19.1588Z" fill="#272726"/>
</svg>
