<svg width="24" height="24" viewBox="0 0 24 24" fill="none" xmlns="http://www.w3.org/2000/svg">
<path d="M22.8135 14.7441C22.6964 14.6488 22.5419 14.6124 22.3945 14.6455C21.4888 14.8408 20.5428 14.6404 19.7939 14.0947C19.6185 13.9678 19.3815 13.9678 19.2061 14.0947C18.4573 14.6405 17.5112 14.8409 16.6055 14.6455C16.4581 14.6125 16.3037 14.6489 16.1865 14.7441C16.0687 14.8392 16.0001 14.9824 16 15.1338V17.4482C15.996 18.743 16.603 19.9638 17.6377 20.7422L19.2021 21.9014C19.2883 21.9652 19.3927 21.9998 19.5 22C19.6072 21.9998 19.7117 21.9653 19.7979 21.9014L21.3623 20.7422C22.397 19.9639 23.004 18.743 23 17.4482V15.1338C22.9999 14.9824 22.9313 14.8392 22.8135 14.7441ZM22 17.4482C22.0046 18.4266 21.5475 19.3499 20.7666 19.9395L19.5 20.8779L18.2334 19.9395C17.4525 19.3499 16.9954 18.4267 17 17.4482V15.709C17.8765 15.7733 18.751 15.5605 19.5 15.1006C20.2493 15.5596 21.1236 15.7724 22 15.709V17.4482ZM8.5 16C8.22388 16 8 16.2239 8 16.5C8 16.7761 8.22388 17 8.5 17H12.5C12.7761 17 13 16.7761 13 16.5C13 16.2239 12.7761 16 12.5 16H8.5ZM14 12.5C14 12.2239 13.7761 12 13.5 12H8.5C8.22388 12 8 12.2239 8 12.5C8 12.7761 8.22388 13 8.5 13H13.5C13.7761 13 14 12.7761 14 12.5ZM8.5 9H10.5C10.7761 9 11 8.77612 11 8.5C11 8.22388 10.7761 8 10.5 8H8.5C8.22388 8 8 8.22388 8 8.5C8 8.77612 8.22388 9 8.5 9ZM19 9V11.5C19 11.7761 19.2239 12 19.5 12C19.7761 12 20 11.7761 20 11.5V8.5C20 8.36737 19.9473 8.24023 19.8535 8.14648L13.8535 2.14648C13.7598 2.05267 13.6326 2 13.5 2H7C5.34387 2.00183 4.00183 3.34387 4 5V19C4.00183 20.6561 5.34387 21.9982 7 22H14.5C14.7761 22 15 21.7761 15 21.5C15 21.2239 14.7761 21 14.5 21H7C5.896 20.9986 5.0014 20.104 5 19V5C5.0014 3.896 5.896 3.0014 7 3H13V6.66699C13.0016 7.95477 14.0452 8.99835 15.333 9H19ZM14 6.66699V3.70697L18.293 8H15.333C14.597 7.99939 14.0006 7.40295 14 6.66699Z" fill="#272726"/>
</svg>
