<svg width="24" height="24" viewBox="0 0 24 24" fill="none" xmlns="http://www.w3.org/2000/svg">
<path d="M22.5 10H20V9C20 7.3 18.7 6 17 6H10.9L10.6 5.1C10.1 3.8 9 3 7.7 3H4C2.3 3 1 4.3 1 6V18.5C1 19.9 2.1 21 3.5 21H3.9H18.9C20.1 21 21.1 20.2 21.4 19L23.1 10.6V10.5C23 10.2 22.8 10 22.5 10ZM3.9 20H3.5C2.7 20 2 19.3 2 18.5V6C2 4.9 2.9 4 4 4H7.7C8.6 4 9.3 4.6 9.6 5.4L10 6.7C10.1 6.9 10.3 7 10.5 7H17C18.1 7 19 7.9 19 9V10H18.5H7.5C7.3 10 7.1 10.2 7 10.4L5.3 18.8C5.2 19.5 4.6 20 3.9 20ZM20.3 18.8C20.2 19.5 19.5 20 18.8 20H5.8C6 19.7 6.2 19.4 6.3 19L7.9 11H18.5H19.5H21.9L20.3 18.8Z" fill="#272726"/>
</svg>
