<svg width="24" height="24" viewBox="0 0 24 24" fill="none" xmlns="http://www.w3.org/2000/svg">
<path d="M17.3809 13.3711C18.9341 12.5228 20 10.8944 20 9C20 6.23859 17.7614 4 15 4C14.8594 4.00256 14.7191 4.01465 14.5801 4.03613L14.4443 4.05371L14.4407 4.05414C14.1663 4.08588 13.9696 4.33405 14.0013 4.60846C14.0331 4.88287 14.2813 5.07959 14.5557 5.04785L14.7149 5.02734C14.8092 5.01184 14.9044 5.00275 15 5C17.2092 5 19 6.79083 19 9C19 11.2092 17.2092 13 15 13C14.7239 13 14.5 13.2239 14.5 13.5C14.5 13.7761 14.7239 14 15 14C18.6798 14.0087 21.7261 16.8619 21.9756 20.5332C21.9934 20.7958 22.2114 20.9998 22.4746 21C22.4854 21 22.4961 21 22.5078 20.999C22.7833 20.9805 22.9918 20.7424 22.9736 20.4668C22.744 17.0976 20.4518 14.3356 17.3809 13.3711ZM11.3794 13.3696C12.932 12.521 13.9978 10.8936 14 9C14 6.23859 11.7614 4 9.00001 4C6.23859 4 4.00001 6.23859 4.00001 9C4.00001 10.8936 5.06507 12.5214 6.61713 13.3701C3.5583 14.3276 1.24921 17.0767 1.02637 20.4668C1.00819 20.7424 1.21668 20.9805 1.49219 20.999C1.49634 20.9993 1.50056 20.9996 1.50471 20.9999C1.77711 21.0145 2.00977 20.8056 2.02442 20.5332C2.25397 17.0328 5.04218 14.2445 8.54261 14.015C12.3951 13.7624 15.723 16.6807 15.9756 20.5332C15.9934 20.7958 16.2114 20.9998 16.4746 21C16.4854 21 16.4961 21 16.5078 20.999C16.7834 20.9805 16.9918 20.7424 16.9736 20.4668C16.7531 17.1099 14.4707 14.3337 11.3794 13.3696ZM9.00001 13C6.79084 13 5.00001 11.2092 5.00001 9C5.00001 6.79083 6.79084 5 9.00001 5C11.2083 5.0022 12.9978 6.79175 13 9C13 11.2092 11.2092 13 9.00001 13Z" fill="#272726"/>
</svg>
