<svg width="24" height="24" viewBox="0 0 24 24" fill="none" xmlns="http://www.w3.org/2000/svg">
<path d="M8.50003 11.5C10.7 11.5 12.5 9.7 12.5 7.5C12.5 5.3 10.7 3.5 8.50003 3.5C6.30003 3.5 4.50003 5.3 4.50003 7.5C4.50003 9.7 6.30003 11.5 8.50003 11.5ZM13 10.6C14.7 12 17.2 11.7 18.6 10C20 8.3 19.7 5.8 18 4.4C17.3 3.8 16.4 3.5 15.5 3.5C14.6 3.5 13.7 3.8 13 4.4C14.7 5.8 15 8.2 13.6 10C13.5 10.2 13.2 10.4 13 10.6ZM22.9 19.4C22.3 15.7 19.2 13 15.5 13C14.6 13 13.8 13.1 13 13.4C15.6 14.3 17.5 16.6 17.9 19.3C18 19.8 17.6 20.4 17 20.4H16.9H21.9C22.5 20.4 22.9 20 22.9 19.4ZM8.50003 13C4.80003 13 1.60003 15.7 1.10003 19.4C1.00003 19.9 1.40003 20.5 2.00003 20.5H2.10003H14.9C15.5 20.5 15.9 20.1 15.9 19.5V19.4C15.4 15.7 12.2 13 8.50003 13Z" fill="#272726"/>
</svg>
