<svg width="24" height="24" viewBox="0 0 24 24" fill="none" xmlns="http://www.w3.org/2000/svg">
<path d="M18.5011 16.4708C17.2892 16.4708 16.3934 17.4573 16.3934 18.6515C16.3934 19.8457 17.3946 20.7284 18.6065 20.7284C19.7658 20.7284 20.7143 19.7419 20.7143 18.5996V18.5477C20.6616 17.4054 19.6604 16.4708 18.5011 16.4708ZM20.1346 18.6515C20.1346 19.5342 19.3442 20.2092 18.4484 20.2092C17.5527 20.2092 16.8676 19.4303 16.8676 18.5477C16.8676 17.665 17.658 16.99 18.5538 16.99C19.4496 16.99 20.1873 17.7169 20.1346 18.6515ZM22.9801 19.1707C22.7166 18.8592 22.7166 18.3919 22.9801 18.0804L23.7178 17.3015C23.7705 17.1977 23.8232 17.0939 23.7705 16.99L22.6639 15.0689C22.6112 14.9651 22.5058 14.9131 22.4004 14.9651L21.3466 15.1727C20.925 15.2766 20.5035 15.017 20.3454 14.6016L20.0292 13.6151C19.9239 13.4593 19.8185 13.4074 19.7131 13.4074H17.4473C17.3419 13.4074 17.2365 13.4593 17.1838 13.5632L16.8676 14.6016C16.7096 14.9651 16.288 15.2247 15.8665 15.1208L14.8126 14.9131C14.7072 14.9131 14.6018 14.9651 14.5491 15.0689L13.4426 16.9381C13.3899 17.0419 13.3899 17.1458 13.4953 17.2496L14.233 18.0284C14.4964 18.34 14.4964 18.8073 14.233 19.1188L13.4953 19.9495C13.4426 20.0534 13.3899 20.1572 13.4426 20.2611L14.5491 22.1303C14.6018 22.2341 14.7072 22.286 14.8126 22.2341L15.8665 22.0264C16.288 21.9226 16.7096 22.1822 16.8676 22.5976L17.1838 23.636C17.2365 23.7398 17.3419 23.7918 17.4473 23.7918H19.6604C19.7658 23.7918 19.8712 23.7398 19.9239 23.636L20.24 22.6495C20.3981 22.2341 20.8196 22.0264 21.2412 22.0783L22.2951 22.286C22.4004 22.286 22.5058 22.2341 22.5585 22.1822L23.6651 20.2611C23.7178 20.1572 23.7178 20.0534 23.6124 19.9495L22.9801 19.1707ZM22.2424 21.7149L21.3993 21.5591C20.7143 21.4034 20.0292 21.8187 19.8185 22.4418L19.5023 23.2725H17.658L17.3946 22.4418C17.1838 21.7668 16.4988 21.4034 15.8138 21.5591L14.918 21.7149L13.9695 20.1572L14.5491 19.4822C15.0234 18.963 15.0234 18.1842 14.5491 17.665L13.9695 17.0419L14.918 15.4843L15.7611 15.64C16.4461 15.7958 17.1311 15.3804 17.3419 14.7574L17.658 13.9266H19.5023L19.7658 14.7574C19.9766 15.4324 20.6616 15.7958 21.3466 15.64L22.2424 15.4843L23.1908 17.0419L22.6112 17.7169C22.137 18.2361 22.137 19.015 22.6112 19.5342L23.1908 20.2092L22.2424 21.7149Z" fill="#272726"/>
<path fill-rule="evenodd" clip-rule="evenodd" d="M16.9985 13.4697C17.092 13.2855 17.2763 13.2002 17.4472 13.2002H19.713C19.9062 13.2002 20.0691 13.3039 20.2012 13.4992L20.2179 13.5238L20.5413 14.5331C20.6696 14.8635 20.9946 15.046 21.2968 14.9716L21.3063 14.9692L22.3378 14.7662C22.4356 14.7269 22.5396 14.7284 22.6327 14.7677C22.7291 14.8085 22.8012 14.884 22.8462 14.9698L23.9559 16.8964C24.0109 17.0048 24.0068 17.1111 23.9849 17.1973C23.9659 17.2721 23.9304 17.342 23.9064 17.3892C23.9052 17.3915 23.904 17.3938 23.9029 17.396L23.8893 17.4229L23.1351 18.2191C22.9406 18.4532 22.9418 18.8044 23.1386 19.0371L23.1413 19.0403L23.767 19.811C23.8404 19.8863 23.8908 19.976 23.904 20.0796C23.9174 20.1852 23.8888 20.2795 23.8502 20.3555L23.8452 20.3654L22.7243 22.3108L22.7042 22.3306C22.615 22.4185 22.4581 22.4942 22.295 22.4942H22.2747L21.2087 22.2841C20.8716 22.2454 20.5556 22.4115 20.4359 22.719L20.1165 23.7156L20.109 23.7304C20.0155 23.9146 19.8313 23.9999 19.6603 23.9999H17.4472C17.2763 23.9999 17.092 23.9146 16.9985 23.7304L16.9903 23.7143L16.6711 22.6657C16.5425 22.3361 16.2179 22.1542 15.9161 22.2285L15.9066 22.2309L14.8751 22.4339C14.7773 22.4732 14.6733 22.4717 14.5802 22.4324C14.4843 22.3919 14.4124 22.3169 14.3674 22.2315L13.2569 20.3557C13.2019 20.2473 13.2061 20.141 13.228 20.0547C13.247 19.9799 13.2826 19.91 13.3065 19.8628C13.3077 19.8605 13.3089 19.8582 13.31 19.856L13.3221 19.8321L14.0758 18.9834C14.2712 18.7506 14.2718 18.4007 14.0778 18.1672L13.3466 17.3953C13.2699 17.3187 13.2171 17.227 13.2035 17.1205C13.1902 17.0149 13.2187 16.9206 13.2573 16.8446L13.2634 16.8325L14.3674 14.9686C14.4619 14.7891 14.6437 14.7059 14.8125 14.7059H14.8328L15.9161 14.9194C16.2215 14.9946 16.5455 14.8085 16.6726 14.5294L16.9903 13.4858L16.9985 13.4697ZM17.3754 13.6474L17.0628 14.674L17.058 14.6849C16.8663 15.1258 16.354 15.4525 15.8217 15.3242L14.7972 15.1223C14.7659 15.1264 14.7446 15.143 14.7343 15.1634L14.7282 15.1754L13.6252 17.0376C13.62 17.0486 13.6175 17.0565 13.6164 17.0615C13.6158 17.0642 13.6157 17.066 13.6156 17.0669L13.6156 17.0682C13.6158 17.0688 13.6166 17.0712 13.6179 17.0736C13.6206 17.0786 13.6269 17.0883 13.641 17.1022L13.6461 17.1072L14.3917 17.8946C14.7207 18.2835 14.7204 18.8644 14.3915 19.2534L14.3883 19.2572L13.6684 20.0677C13.6603 20.084 13.6533 20.0983 13.6471 20.1122C13.6383 20.132 13.6333 20.1463 13.6306 20.1569C13.6293 20.1623 13.6287 20.1659 13.6285 20.168L14.7347 22.0365C14.7354 22.0379 14.7357 22.0394 14.7364 22.0406L14.7454 22.0361L15.8217 21.824C16.3593 21.6944 16.873 22.0285 17.0617 22.5242L17.0667 22.5374L17.3754 23.5528C17.3892 23.5712 17.4134 23.5845 17.4472 23.5845H19.6603C19.6946 23.5845 19.7191 23.5707 19.7328 23.5519L20.0456 22.576C20.2427 22.058 20.7649 21.8109 21.2665 21.8727L21.2739 21.8736L22.3105 22.0779C22.3272 22.0759 22.3463 22.0709 22.3657 22.0627C22.3789 22.0571 22.3895 22.0512 22.3974 22.0462L23.4819 20.1634C23.4874 20.1519 23.49 20.1438 23.4911 20.1387C23.4917 20.1359 23.4919 20.1341 23.4919 20.1332L23.4919 20.1319C23.4917 20.1313 23.4909 20.1289 23.4896 20.1265C23.487 20.1215 23.4807 20.1118 23.4666 20.098L23.4584 20.0899L22.82 19.3036C22.4925 18.9147 22.493 18.3351 22.8214 17.9467L22.829 17.9378L23.546 17.1813C23.5535 17.1662 23.56 17.1528 23.5658 17.1398C23.5746 17.12 23.5796 17.1057 23.5823 17.0952C23.5837 17.0895 23.5842 17.0858 23.5844 17.0837L22.4784 15.1635C22.4777 15.1621 22.4772 15.1607 22.4766 15.1595L22.4675 15.164L21.3912 15.3761C20.8536 15.5057 20.3399 15.1717 20.1512 14.676L20.1473 14.6656L19.8411 13.7093C19.8074 13.6639 19.7804 13.6414 19.7622 13.6302C19.7436 13.6187 19.7289 13.6156 19.713 13.6156H17.4472C17.4134 13.6156 17.3892 13.629 17.3754 13.6474ZM17.5148 13.7194H19.6543L19.9637 14.6951C20.14 15.2597 20.7139 15.5714 21.3005 15.438L21.3109 15.4356L22.3461 15.2559L23.4466 17.0632L22.7646 17.8575C22.3628 18.2974 22.3627 18.9547 22.7645 19.3946L22.7688 19.3993L23.4482 20.1906L22.343 21.9452L21.3531 21.7623C20.7754 21.6309 20.193 21.9831 20.0151 22.5088L20.0127 22.5162L19.6454 23.4807H17.506L17.1965 22.505C17.0202 21.9404 16.4464 21.6287 15.8598 21.7621L15.8493 21.7645L14.8141 21.9442L13.7136 20.1369L14.3957 19.3426C14.7972 18.9029 14.7975 18.2461 14.3963 17.8062L13.7103 17.0687L14.815 15.2545L15.8071 15.4378C16.3848 15.5692 16.9673 15.217 17.1451 14.6913L17.1476 14.6839L17.5148 13.7194ZM17.8012 14.1348L17.5373 14.8282C17.2925 15.5452 16.5088 16.0212 15.7193 15.844L15.0209 15.715L14.2286 17.0161L14.7024 17.5254C15.2484 18.1231 15.2491 19.0218 14.7046 19.6203L14.2253 20.1785L15.0217 21.4865L15.773 21.3559C16.5546 21.1809 17.3478 21.5967 17.5926 22.3799C17.5927 22.3801 17.5926 22.3798 17.5926 22.3799L17.81 23.0653H19.3591L19.623 22.3719C19.8677 21.6549 20.6515 21.1789 21.441 21.3561L22.1416 21.4855L22.9334 20.2286L22.4556 19.6723C21.9119 19.0745 21.9119 18.1775 22.4556 17.5798L22.9349 17.0216L22.1385 15.7136L21.3872 15.8442C20.6056 16.0192 19.8124 15.6034 19.5676 14.8202C19.5676 14.8201 19.5677 14.8204 19.5676 14.8202L19.3502 14.1348H17.8012ZM16.1857 18.652C16.1857 17.3536 17.1642 16.2636 18.5011 16.2636C19.7676 16.2636 20.8637 17.2818 20.9217 18.5386L20.9221 18.5481L20.9219 18.6001C20.9219 19.8533 19.8841 20.9365 18.6065 20.9365C17.2963 20.9365 16.1857 19.9767 16.1857 18.652ZM18.5011 16.6789C17.4141 16.6789 16.601 17.562 16.601 18.652C16.601 19.7157 17.4927 20.5212 18.6065 20.5212C19.6473 20.5212 20.5065 19.6314 20.5065 18.6001V18.5531C20.4566 17.5273 19.5514 16.6789 18.5011 16.6789ZM18.5538 17.1982C17.7519 17.1982 17.0753 17.7999 17.0753 18.5481C17.0753 19.3309 17.6815 20.0019 18.4484 20.0019C19.2503 20.0019 19.9269 19.4002 19.9269 18.652V18.6403C19.9726 17.8301 19.3357 17.1982 18.5538 17.1982ZM16.6599 18.5481C16.6599 17.531 17.5641 16.7828 18.5538 16.7828C19.5616 16.7828 20.3986 17.6016 20.3422 18.6578C20.3388 19.672 19.4362 20.4173 18.4484 20.4173C17.4236 20.4173 16.6599 19.5307 16.6599 18.5481Z" fill="#272726"/>
<path d="M12.0003 2C15.3138 2.00025 18.0003 4.68643 18.0003 8C17.9978 10.3534 16.6382 12.3841 14.6654 13.3672C14.9705 13.4512 15.2693 13.5501 15.5619 13.6611C15.3395 13.7638 15.1275 13.8912 14.93 14.0459C14.8015 14.1466 14.6832 14.2564 14.5736 14.373C13.3071 13.9958 11.938 13.8913 10.5462 14.1182C6.71184 14.7431 3.70635 17.7486 3.08139 21.583C3.03665 21.8555 2.77872 22.0398 2.50619 21.9951C2.23379 21.9502 2.04936 21.6934 2.09409 21.4209L2.09506 21.417C2.74791 17.4253 5.67501 14.3811 9.33334 13.3691C7.35941 12.3867 6.00034 10.3546 6.00034 8C6.00034 4.68628 8.68661 2 12.0003 2ZM12.0003 3C9.23892 3 7.00034 5.23859 7.00034 8C7.00034 10.7614 9.23892 13 12.0003 13C14.7615 12.9998 17.0003 10.7613 17.0003 8C16.9971 5.24008 14.7602 3.00348 12.0003 3Z" fill="#272726"/>
</svg>
