<svg width="24" height="24" viewBox="0 0 24 24" fill="none" xmlns="http://www.w3.org/2000/svg">
<path d="M14.3794 13.3696C15.932 12.521 16.9978 10.8936 17 9C17 6.23859 14.7614 4 12 4C9.23859 4 7.00001 6.23859 7.00001 9C7.00001 10.8936 8.06507 12.5214 9.61713 13.3701C6.55836 14.3276 4.24921 17.0767 4.02643 20.4668C4.02625 20.4695 4.02607 20.4722 4.02588 20.4749C4.00983 20.7507 4.22028 20.9872 4.49604 21.0034C4.7718 21.0194 5.00837 20.809 5.02442 20.5332C5.25397 17.0328 8.04218 14.2445 11.5426 14.015C15.3951 13.7624 18.723 16.6807 18.9756 20.5332C18.9934 20.7958 19.2114 20.9998 19.4746 21C19.4854 21 19.4961 21 19.5079 20.999C19.7834 20.9805 19.9919 20.7424 19.9737 20.4668C19.7531 17.1099 17.4707 14.3337 14.3794 13.3696ZM12 13C9.79084 13 8.00001 11.2092 8.00001 9C8.00001 6.79083 9.79084 5 12 5C14.2082 5.00238 15.9976 6.79181 16 9C16 11.2092 14.2092 13 12 13ZM23.3535 9.98663C23.1602 9.78943 22.8436 9.78625 22.6464 9.97955L20.333 12.293L19.3535 11.3135C19.1591 11.123 18.848 11.123 18.6536 11.3135C18.4564 11.5068 18.4532 11.8233 18.6465 12.0205L19.9795 13.3535C20.0731 13.4474 20.2004 13.5002 20.333 13.5C20.4656 13.5001 20.5928 13.4474 20.6865 13.3535L23.3535 10.6865C23.544 10.4921 23.544 10.181 23.3535 9.98663Z" fill="#272726"/>
</svg>
