<svg width="24" height="24" viewBox="0 0 24 24" fill="none" xmlns="http://www.w3.org/2000/svg">
<path fill-rule="evenodd" clip-rule="evenodd" d="M12.0005 2C15.314 2.00025 18.0005 4.68643 18.0005 8C17.9979 10.3534 16.6384 12.3841 14.6655 13.3672C14.9706 13.4512 15.2694 13.5501 15.562 13.6611C15.3396 13.7638 15.1277 13.8912 14.9301 14.0459C14.8016 14.1466 14.6833 14.2564 14.5737 14.373C13.3072 13.9958 11.9381 13.8913 10.5464 14.1182C6.71196 14.7431 3.70647 17.7486 3.08151 21.583C3.03677 21.8555 2.77884 22.0398 2.50632 21.9951C2.23392 21.9502 2.04949 21.6934 2.09421 21.4209L2.09518 21.417C2.74804 17.4253 5.67513 14.3811 9.33347 13.3691C7.35953 12.3867 6.00046 10.3546 6.00046 8C6.00046 4.68628 8.68674 2 12.0005 2ZM12.0005 3C9.23904 3 7.00046 5.23859 7.00046 8C7.00046 10.7614 9.23904 13 12.0005 13C14.7617 12.9998 17.0005 10.7613 17.0005 8C16.9972 5.24008 14.7603 3.00348 12.0005 3Z" fill="#272726"/>
<path d="M23.1379 18.885C22.9699 18.665 22.9699 18.39 23.1379 18.17L23.8659 17.4C24.0339 17.235 24.0339 16.96 23.9219 16.74L22.8019 14.815C22.69 14.595 22.466 14.485 22.186 14.54L21.122 14.76C20.842 14.815 20.562 14.65 20.506 14.375L20.17 13.385C20.058 13.165 19.834 13 19.61 13H17.3701C17.1461 13 16.9221 13.165 16.8661 13.385L16.4741 14.375C16.4181 14.65 16.1381 14.815 15.8582 14.76L14.7942 14.54C14.5702 14.485 14.3462 14.595 14.1782 14.815L13.0582 16.74C12.9462 16.905 13.0022 17.18 13.1702 17.345L13.8982 18.115C14.0662 18.335 14.0662 18.61 13.8982 18.83L13.1702 19.6C13.0022 19.765 13.0022 20.04 13.1142 20.26L14.2342 22.185C14.3462 22.405 14.5702 22.515 14.8502 22.46L15.9142 22.24C16.1941 22.185 16.4741 22.35 16.5301 22.625L16.8661 23.615C16.9221 23.835 17.1461 24 17.3701 24H19.61C19.834 24 20.058 23.835 20.114 23.615L20.45 22.625C20.562 22.35 20.842 22.185 21.066 22.24L22.13 22.46C22.354 22.515 22.634 22.405 22.7459 22.185L23.8659 20.26C23.9779 20.04 23.9779 19.82 23.8099 19.6L23.1379 18.885ZM18.4901 20.15C17.5381 20.15 16.8101 19.435 16.8101 18.5C16.8101 17.565 17.5381 16.85 18.4901 16.85C19.442 16.85 20.17 17.565 20.17 18.5C20.17 19.435 19.442 20.15 18.4901 20.15Z" fill="#272726"/>
</svg>
