<svg width="24" height="24" viewBox="0 0 24 24" fill="none" xmlns="http://www.w3.org/2000/svg">
<path d="M14.6651 13.3672C16.6382 12.3843 17.9975 10.3536 18 8C18 4.68628 15.3137 2 12 2C8.68631 2 6.00003 4.68628 6.00003 8C6.00003 10.3546 7.35959 12.3866 9.33352 13.369C5.67514 14.3809 2.74759 17.4252 2.09475 21.417C2.09451 21.4183 2.09433 21.4197 2.09408 21.421C2.04934 21.6936 2.23404 21.9508 2.50662 21.9955C2.77914 22.0402 3.03634 21.8555 3.08108 21.583C3.70602 17.7485 6.71194 14.7426 10.5464 14.1177C15.4722 13.3149 20.1162 16.6572 20.919 21.583C20.9595 21.8234 21.1674 21.9995 21.4112 22C21.4393 22.0002 21.4674 21.9979 21.4951 21.9932C21.7675 21.9473 21.9512 21.6893 21.9053 21.417C21.2677 17.5185 18.4114 14.3986 14.6651 13.3672ZM12 13C9.23861 13 7.00003 10.7614 7.00003 8C7.00003 5.23859 9.23861 3 12 3C14.7601 3.00323 16.9968 5.23993 17 8C17 10.7614 14.7614 13 12 13Z" fill="#272726"/>
</svg>
